<svg width="20" height="20" viewBox="0 0 20 20" fill="none" xmlns="http://www.w3.org/2000/svg">
<path d="M6.66659 8.92857V5.71429C6.66659 4.8618 7.01777 4.04424 7.6429 3.44144C8.26802 2.83865 9.11586 2.5 9.99992 2.5C10.884 2.5 11.7318 2.83865 12.3569 3.44144C12.9821 4.04424 13.3333 4.8618 13.3333 5.71429V8.92857M4.44436 8.92857H15.5555C15.8502 8.92857 16.1328 9.04145 16.3411 9.24239C16.5495 9.44332 16.6666 9.71584 16.6666 10V16.4286C16.6666 16.7127 16.5495 16.9853 16.3411 17.1862C16.1328 17.3871 15.8502 17.5 15.5555 17.5H4.44436C4.14968 17.5 3.86706 17.3871 3.65869 17.1862C3.45032 16.9853 3.33325 16.7127 3.33325 16.4286V10C3.33325 9.71584 3.45032 9.44332 3.65869 9.24239C3.86706 9.04145 4.14968 8.92857 4.44436 8.92857Z" stroke="black" stroke-width="1.4"/>
</svg>
