<svg width="20" height="20" viewBox="0 0 20 20" fill="none" xmlns="http://www.w3.org/2000/svg">
<path d="M9.99988 2.08331C10.98 2.08301 11.9343 2.39689 12.7229 2.97887C13.5115 3.56085 14.0927 4.38029 14.3814 5.31692C14.67 6.25354 14.6508 7.25801 14.3265 8.18291C14.0023 9.10781 13.3901 9.90442 12.5799 10.4558C13.9863 10.9716 15.2061 11.8966 16.0823 13.1116C16.9585 14.3266 17.4511 15.776 17.4965 17.2733C17.5008 17.3564 17.4884 17.4395 17.4601 17.5178C17.4318 17.5961 17.3881 17.6679 17.3317 17.729C17.2753 17.7902 17.2072 17.8395 17.1315 17.874C17.0557 17.9085 16.9739 17.9275 16.8907 17.93C16.8075 17.9324 16.7247 17.9182 16.6471 17.8882C16.5694 17.8582 16.4986 17.813 16.4387 17.7553C16.3787 17.6975 16.3309 17.6284 16.2981 17.5519C16.2653 17.4754 16.248 17.3932 16.2474 17.31C16.1978 15.6862 15.5178 14.1455 14.3517 13.0145C13.1855 11.8834 11.6248 11.2509 10.0003 11.2509C8.37575 11.2509 6.81504 11.8834 5.6489 13.0145C4.48276 14.1455 3.80284 15.6862 3.75321 17.31C3.74824 17.4757 3.67762 17.6327 3.55689 17.7464C3.43617 17.8601 3.27522 17.9212 3.10946 17.9162C2.9437 17.9113 2.78671 17.8406 2.67301 17.7199C2.55932 17.5992 2.49824 17.4382 2.50321 17.2725C2.54883 15.7753 3.04146 14.3261 3.91768 13.1112C4.7939 11.8964 6.01362 10.9716 7.41988 10.4558C6.60962 9.90442 5.99744 9.10781 5.67321 8.18291C5.34898 7.25801 5.32976 6.25354 5.61839 5.31692C5.90701 4.38029 6.48827 3.56085 7.27684 2.97887C8.06542 2.39689 9.01979 2.08301 9.99988 2.08331ZM6.66654 6.66665C6.66654 7.5507 7.01773 8.39855 7.64286 9.02367C8.26798 9.64879 9.11582 9.99998 9.99988 9.99998C10.8839 9.99998 11.7318 9.64879 12.3569 9.02367C12.982 8.39855 13.3332 7.5507 13.3332 6.66665C13.3332 5.78259 12.982 4.93475 12.3569 4.30962C11.7318 3.6845 10.8839 3.33331 9.99988 3.33331C9.11582 3.33331 8.26798 3.6845 7.64286 4.30962C7.01773 4.93475 6.66654 5.78259 6.66654 6.66665Z" fill="black"/>
</svg>
