<svg width="70" height="46" viewBox="0 0 70 46" fill="none" xmlns="http://www.w3.org/2000/svg">
<path d="M37.7086 37.252C37.7086 38.092 36.7726 38.596 35.0086 38.68V39.34H39.2326V40.204H29.7646V39.34H33.9406V38.68C32.2006 38.584 31.2886 38.092 31.2886 37.252C31.2886 36.352 32.4046 35.836 34.5046 35.836C36.6046 35.836 37.7086 36.364 37.7086 37.252ZM37.9966 43.744H31.0006V40.744H37.9966V43.744ZM38.6446 35.5H30.3406V34.648H38.6446V35.5ZM36.9286 42.916V41.572H32.0566V42.916H36.9286ZM36.6166 37.252C36.6166 36.844 35.7886 36.616 34.5046 36.616C33.2086 36.616 32.3926 36.844 32.3926 37.252C32.3926 37.672 33.2086 37.912 34.5046 37.912C35.7886 37.912 36.6166 37.672 36.6166 37.252ZM36.3406 34.18H32.6926V33.34H36.3406V34.18Z" fill="#4D67DF"/>
<g clip-path="url(#clip0_42_1752)">
<path d="M46.9985 14.2243C46.8957 13.5985 46.5054 13.1666 46.08 12.7428C42.6157 9.29418 39.958 6.63595 37.4618 4.12405C36.7722 3.42987 36.0243 3.07291 35.1757 3.03241C35.1626 3.0319 35.1423 3.02481 35.1216 3.01772C35.1069 3.01266 35.0922 3.00759 35.0775 3.00354L35.0643 3H34.9494L34.9297 3.00203C34.8289 3.02228 34.7276 3.04101 34.6259 3.05924C34.3995 3.10076 34.1651 3.1438 33.9378 3.20557C33.5074 3.32304 33.1038 3.56759 32.7388 3.93266C31.8623 4.80861 30.9864 5.68456 30.1104 6.56051C27.9646 8.70684 25.7454 10.9261 23.56 13.1063C23.2573 13.4086 23.0795 13.7803 23.0016 14.2754L23.0005 14.4552L23.0036 14.4668C23.0142 14.5099 23.0238 14.5534 23.034 14.597C23.0557 14.6916 23.078 14.7899 23.1059 14.8861C23.3403 15.6871 23.9762 16.1696 24.8056 16.1767C25.0284 16.1787 25.2497 16.1782 25.4841 16.1777C25.5621 16.1777 25.6411 16.1777 25.7216 16.1777V16.3949C25.7216 17.1524 25.7216 17.9094 25.7216 18.6668C25.7211 20.441 25.7205 22.2754 25.7231 24.08C25.7251 25.5099 26.5995 26.6263 27.9504 26.9235C28.0421 26.9438 28.1347 26.96 28.2243 26.9762C28.2659 26.9833 28.3074 26.9909 28.3489 26.9985L41.6446 27L41.6557 26.9975C41.7297 26.9808 41.8041 26.9661 41.879 26.9514C42.0436 26.919 42.2132 26.8856 42.3768 26.8319C43.4993 26.4608 44.2598 25.4354 44.2684 24.2815C44.2826 22.4223 44.2811 20.5316 44.28 18.7038C44.2795 17.9499 44.279 17.1965 44.2795 16.4425V16.1767C44.313 16.1767 44.3459 16.1757 44.3788 16.1747C44.5119 16.1722 44.6375 16.1696 44.76 16.1792C45.9803 16.2775 46.7965 15.6876 46.9995 14.5625L47.0011 14.2405L46.9995 14.2243H46.9985ZM43.0097 24.0238C43.0142 24.5043 42.834 24.958 42.5145 25.2689C42.2046 25.5701 41.794 25.7205 41.3266 25.7033C40.9676 25.6901 40.6051 25.6861 40.2451 25.6861C39.9585 25.6861 39.6735 25.6886 39.3924 25.6911C39.1124 25.6937 38.8228 25.6962 38.5388 25.6962H38.3418V23.8856C38.3418 22.5929 38.3418 21.3008 38.3418 20.0081C38.3418 18.8562 37.6274 18.1403 36.478 18.1392H35.9828C35.1438 18.1387 34.3043 18.1377 33.4654 18.1392C32.4031 18.1413 31.6603 18.8805 31.6593 19.9377C31.6578 21.2451 31.6578 22.5524 31.6583 23.8597V25.6876C31.6051 25.6916 31.5545 25.6952 31.5059 25.6952H30.9449C30.1833 25.6967 29.3955 25.6977 28.6208 25.6952C27.6218 25.6916 27.0011 25.0678 27.0005 24.0673C27 22.2866 27 20.5053 27.0005 18.7241V15.7139C27.0005 15.12 26.7803 14.8992 26.1884 14.8987C26.0699 14.8987 25.9509 14.8977 25.8324 14.8972C25.5418 14.8952 25.2411 14.8932 24.9454 14.9018C24.6208 14.9104 24.4411 14.8142 24.3469 14.5792C24.2542 14.3478 24.3124 14.1646 24.5555 13.9251C25.1681 13.3205 25.7864 12.7013 26.3843 12.1023C26.599 11.8871 26.8137 11.6719 27.0289 11.4572L33.4907 4.99595C34.4228 4.0638 35.5823 4.06481 36.5165 4.99899L37.3874 5.86937C40.0294 8.51089 42.7621 11.242 45.4426 13.9352C45.5666 14.0597 45.6623 14.243 45.6811 14.3904C45.6973 14.518 45.6628 14.6344 45.5823 14.7276C45.4917 14.8319 45.3519 14.8937 45.198 14.8962C44.8831 14.9018 44.5621 14.9008 44.2517 14.8997C44.1119 14.8997 43.9717 14.8987 43.833 14.8987C43.2193 14.8987 43.0016 15.1139 43.0016 15.72C43.0016 16.4937 43 17.2668 42.9985 18.0405C42.995 20.0015 42.9914 22.0294 43.0112 24.0238H43.0097ZM32.9368 20.0527C32.9368 19.5484 33.0694 19.4177 33.5823 19.4177C34.5347 19.4177 35.4876 19.4172 36.44 19.4177C36.917 19.4177 37.0623 19.56 37.0623 20.0253C37.0633 21.8633 37.0628 23.7008 37.0623 25.5387C37.0623 25.5828 37.0598 25.6268 37.0568 25.6775H32.9362V23.9904C32.9362 22.6775 32.9362 21.3651 32.9362 20.0522L32.9368 20.0527Z" fill="#4D67DF"/>
</g>
<defs>
<clipPath id="clip0_42_1752">
<rect width="24" height="24" fill="white" transform="translate(23 3)"/>
</clipPath>
</defs>
</svg>
