<svg width="16" height="16" viewBox="0 0 16 16" fill="none" xmlns="http://www.w3.org/2000/svg">
<path d="M14.5001 13.7931L10.7241 10.0171C11.6315 8.92771 12.0839 7.53048 11.9874 6.11601C11.8908 4.70154 11.2527 3.37875 10.2057 2.42282C9.15867 1.46688 7.78343 0.951395 6.36604 0.983601C4.94864 1.01581 3.59823 1.59322 2.59573 2.59573C1.59322 3.59823 1.01581 4.94864 0.983601 6.36604C0.951395 7.78343 1.46688 9.15867 2.42282 10.2057C3.37875 11.2527 4.70154 11.8908 6.11601 11.9874C7.53048 12.0839 8.92771 11.6315 10.0171 10.7241L13.7931 14.5001L14.5001 13.7931ZM2.00006 6.50006C2.00006 5.61004 2.26398 4.74001 2.75844 3.99999C3.25291 3.25997 3.95571 2.68319 4.77798 2.3426C5.60025 2.00201 6.50505 1.91289 7.37796 2.08652C8.25088 2.26016 9.0527 2.68874 9.68204 3.31808C10.3114 3.94741 10.74 4.74924 10.9136 5.62215C11.0872 6.49507 10.9981 7.39987 10.6575 8.22213C10.3169 9.0444 9.74014 9.7472 9.00012 10.2417C8.2601 10.7361 7.39007 11.0001 6.50006 11.0001C5.30699 10.9987 4.16317 10.5242 3.31954 9.68058C2.47591 8.83695 2.00138 7.69313 2.00006 6.50006Z" fill="black"/>
</svg>
