<svg width="70" height="46" viewBox="0 0 70 46" fill="none" xmlns="http://www.w3.org/2000/svg">
<path d="M19.9344 41.212H15.0264V34.408H19.9344V41.212ZM18.8664 40.36V35.272H16.0824V40.36H18.8664ZM24.4704 38.392H22.7904V43.84H21.7224V33.352H22.7904V37.516H24.4704V38.392ZM34.5412 38.692H25.0732V37.828H34.5412V38.692ZM33.7492 43.768H26.1532V41.2H32.2972V40.444H26.1292V39.58H33.3532V41.992H27.2092V42.892H33.7492V43.768ZM33.4492 35.356C33.4492 36.532 32.0932 37.204 29.8132 37.204C27.5572 37.204 26.2012 36.532 26.2012 35.356C26.2012 34.168 27.5572 33.496 29.8132 33.496C32.0932 33.496 33.4492 34.168 33.4492 35.356ZM29.8132 34.348C28.2772 34.348 27.3052 34.756 27.3052 35.356C27.3052 35.944 28.2772 36.352 29.8132 36.352C31.3732 36.352 32.3572 35.944 32.3572 35.356C32.3572 34.756 31.3732 34.348 29.8132 34.348ZM45.116 36.892H43.556V39.676H42.488V33.352H43.556V36.016H45.116V36.892ZM43.676 41.788C43.676 43.024 42.416 43.828 40.184 43.828C37.964 43.828 36.728 43.024 36.728 41.788C36.728 40.552 37.964 39.748 40.184 39.748C42.44 39.748 43.676 40.564 43.676 41.788ZM40.184 40.612C38.684 40.612 37.808 41.08 37.808 41.788C37.808 42.508 38.696 42.964 40.184 42.964C41.72 42.964 42.596 42.52 42.596 41.788C42.596 41.068 41.72 40.612 40.184 40.612ZM40.736 38.944H35.792V33.892H36.848V35.584H39.668V33.88H40.736V38.944ZM39.668 38.08V36.448H36.848V38.08H39.668ZM54.1908 41.956C54.1908 43.168 52.8708 43.864 50.5668 43.864C48.2748 43.864 46.9548 43.156 46.9548 41.956C46.9548 40.792 48.2748 40.072 50.5668 40.072C52.8708 40.072 54.1908 40.756 54.1908 41.956ZM55.3068 39.328H45.8388V38.464H50.0388V36.928H51.1068V38.464H55.3068V39.328ZM54.8748 36.688L54.3948 37.516C52.7868 37.24 51.0828 36.208 50.5668 35.14C50.1228 36.208 48.4788 37.228 46.7748 37.516L46.3068 36.688C48.0588 36.496 50.0268 35.368 50.0268 33.868V33.532H51.1308V33.868C51.1308 35.368 53.3508 36.556 54.8748 36.688ZM50.5668 40.924C49.0188 40.924 48.0468 41.32 48.0468 41.968C48.0468 42.628 49.0188 43 50.5668 43C52.1388 43 53.1108 42.628 53.1108 41.968C53.1108 41.32 52.1388 40.924 50.5668 40.924Z" fill="#AAAAAA"/>
<g clip-path="url(#clip0_42_1759)">
<path d="M35.1678 3C35.6802 3.07734 36.1973 3.13078 36.7037 3.23625C40.7458 4.07766 44.0205 7.38609 44.7879 11.4525C45.4088 14.7422 44.6623 17.708 42.58 20.3269C42.3306 20.6409 42.0062 20.7563 41.6287 20.6545C41.2648 20.5566 41.0576 20.2908 41.0051 19.9163C40.9669 19.643 41.0786 19.417 41.2494 19.2094C42.129 18.1392 42.7215 16.9266 43.0445 15.5747C44.1196 11.0728 41.4197 6.38766 37.0034 5.10328C32.2045 3.70734 27.2539 6.51516 26.0392 11.3775C25.3052 14.3152 25.9549 16.9758 27.8752 19.3125C28.0712 19.5506 28.2671 19.7784 28.2564 20.1131C28.2452 20.4684 28.0269 20.7867 27.7044 20.91C27.3702 21.0375 27.0193 20.948 26.7559 20.6555C26.1965 20.0339 25.6934 19.3664 25.3182 18.6173C23.3574 14.7047 23.5627 10.9017 26.0801 7.32375C27.8036 4.87312 30.2367 3.49547 33.1991 3.08859C33.4211 3.05813 33.6431 3.02953 33.8647 3C34.2989 3 34.7336 3 35.1678 3Z" fill="#AAAAAA"/>
<path d="M34.1437 27C33.6392 26.7835 33.4991 26.3841 33.501 25.8553C33.5136 22.3645 33.5066 18.8742 33.5108 15.3835C33.5108 15.2063 33.4665 15.0891 33.3246 14.9681C32.7498 14.4792 32.5669 13.6406 32.8592 12.9413C33.1589 12.2236 33.8873 11.7905 34.6729 11.8627C35.4073 11.9302 36.0259 12.4824 36.2051 13.23C36.3819 13.9697 36.0645 14.7511 35.4055 15.1453C35.257 15.2339 35.2137 15.3267 35.2142 15.4936C35.2193 18.953 35.2105 22.4124 35.2258 25.8717C35.2281 26.4117 35.069 26.7933 34.5631 27H34.1442H34.1437Z" fill="#AAAAAA"/>
<path d="M28.245 13.5356C28.2399 10.2281 30.8421 7.42688 34.12 7.21032C37.5175 6.98626 40.5036 9.51892 40.8383 12.9178C40.9728 14.2861 40.7051 15.5733 40.0135 16.7649C39.725 17.2617 39.24 17.4155 38.7965 17.1544C38.3702 16.9031 38.2478 16.3884 38.527 15.9103C39.617 14.047 39.2768 11.6738 37.7526 10.237C36.3665 8.93063 34.7315 8.58095 32.9504 9.2297C31.2004 9.8672 30.2496 11.1984 29.9969 13.0383C29.8652 13.9978 30.0862 14.8974 30.5186 15.7528C30.7457 16.2019 30.6508 16.6627 30.2878 16.9224C29.8493 17.2359 29.2857 17.0991 29.0167 16.613C28.5276 15.7284 28.2474 14.6105 28.2455 13.5356H28.245Z" fill="#AAAAAA"/>
</g>
<defs>
<clipPath id="clip0_42_1759">
<rect width="21" height="24" fill="white" transform="translate(24 3)"/>
</clipPath>
</defs>
</svg>
