<svg width="70" height="46" viewBox="0 0 70 46" fill="none" xmlns="http://www.w3.org/2000/svg">
<path d="M11.9114 38.668L11.3354 39.508C9.69139 39.04 7.95139 37.708 7.45939 36.532C7.03939 37.72 5.28739 39.052 3.58339 39.496L3.04339 38.632C4.75939 38.332 6.91939 36.808 6.91939 35.044V34.228H8.01139V35.044C8.01139 36.796 10.3034 38.356 11.9114 38.668ZM12.1994 42.424H2.73139V41.56H12.1994V42.424ZM18.3582 41.212H13.4502V34.408H18.3582V41.212ZM17.2902 40.36V35.272H14.5062V40.36H17.2902ZM22.8942 38.392H21.2142V43.84H20.1462V33.352H21.2142V37.516H22.8942V38.392ZM31.489 37.456H25.693V38.944H31.825V39.82H24.637V34.348H31.729V35.212H25.693V36.616H31.489V37.456ZM32.965 42.508H23.497V41.644H32.965V42.508ZM45.6362 40.972H44.5682V33.352H45.6362V40.972ZM43.3802 38.512L42.7682 39.34C41.7962 38.932 40.6682 37.936 40.2242 36.868C39.9002 37.984 38.7602 39.196 37.6802 39.688L37.0322 38.86C38.4602 38.26 39.6722 36.772 39.6722 35.116V33.94H40.7522V35.068C40.7522 36.772 42.1442 38.08 43.3802 38.512ZM45.8642 43.54H38.7962V40.264H39.8642V42.676H45.8642V43.54ZM55.695 37.744H48.591V33.688H49.659V34.924H54.639V33.676H55.695V37.744ZM52.719 41.62H51.663V39.688H47.415V38.824H56.883V39.688H52.719V41.62ZM55.779 43.528H48.591V40.648H49.659V42.664H55.779V43.528ZM54.639 36.88V35.764H49.659V36.88H54.639ZM66.1498 41.944C66.1498 43.132 64.8298 43.828 62.5258 43.828C60.2338 43.828 58.9138 43.12 58.9138 41.944C58.9138 40.78 60.2338 40.072 62.5258 40.072C64.8298 40.072 66.1498 40.744 66.1498 41.944ZM66.8338 36.964L66.3658 37.816C64.7098 37.576 63.0778 36.676 62.5258 35.704C62.0818 36.688 60.5218 37.588 58.7338 37.816L58.2658 36.976C59.9338 36.844 61.6978 36.028 61.9498 34.768H58.6858V33.904H66.3778V34.768H63.1258C63.4258 36.028 65.3578 36.856 66.8338 36.964ZM62.5258 40.924C60.9778 40.924 60.0058 41.308 60.0058 41.944C60.0058 42.604 60.9778 42.964 62.5258 42.964C64.0978 42.964 65.0698 42.604 65.0698 41.944C65.0698 41.308 64.0978 40.924 62.5258 40.924ZM67.2658 39.364H57.7978V38.512H67.2658V39.364Z" fill="#AAAAAA"/>
<g clip-path="url(#clip0_42_1757)">
<path d="M44.2248 27H24.9208C24.892 26.988 24.8637 26.9698 24.8339 26.9655C24.2812 26.8802 23.836 26.6147 23.4797 26.1854C23.2118 25.8625 23.0932 25.4796 23 25.0833C23 20.6113 23 16.1387 23 11.6667C23.0711 11.44 23.1138 11.199 23.2185 10.9886C23.642 10.1386 24.3551 9.75048 25.2934 9.75C28.7888 9.74952 32.2837 9.75 35.7791 9.75C35.8708 9.75 35.963 9.75 36.0571 9.75C36.0633 9.62494 36.0653 9.53725 36.0729 9.45004C36.2986 6.97371 37.5649 5.26117 39.8828 4.35219C40.3448 4.17106 40.8553 4.11404 41.3431 4C41.6634 4 41.9832 4 42.3035 4C42.3808 4.01629 42.4577 4.03594 42.5355 4.04792C44.7924 4.40154 46.3665 5.62677 47.2049 7.74852C47.3956 8.23104 47.4618 8.76196 47.5852 9.27083V10.2771C47.5684 10.3451 47.5449 10.4122 47.5358 10.4812C47.3936 11.5411 46.9965 12.4942 46.3204 13.3246C46.1903 13.4841 46.1413 13.6413 46.1413 13.8435C46.1461 17.4665 46.1437 21.09 46.1451 24.7129C46.1451 25.4786 45.8916 26.1361 45.2462 26.5687C44.9446 26.771 44.5667 26.8596 44.2239 26.9995L44.2248 27ZM36.2357 11.1875H35.9644C32.4273 11.1875 28.8901 11.1875 25.353 11.1875C24.6927 11.1875 24.4411 11.4391 24.4411 12.0984C24.4411 16.283 24.4411 20.467 24.4411 24.6516C24.4411 25.3109 24.6927 25.5625 25.3535 25.5625C31.4995 25.5625 37.6456 25.5625 43.7917 25.5625C44.4534 25.5625 44.7055 25.3114 44.7055 24.653C44.7055 21.4431 44.7055 18.2327 44.7055 15.0227V14.7309C43.0301 15.6346 41.3263 15.7679 39.5991 15.0429C37.8617 14.3136 36.7683 12.9906 36.2362 11.1875H36.2357ZM41.8123 14.0615C44.1854 14.0702 46.136 12.1339 46.1446 9.76102C46.1533 7.39298 44.2128 5.4466 41.8349 5.43798C39.4617 5.42935 37.5111 7.36567 37.5025 9.7385C37.4939 12.1065 39.4343 14.0529 41.8123 14.0615Z" fill="#AAAAAA"/>
<path d="M27.4476 18.9759C26.2255 17.6975 26.4161 15.903 27.4759 14.88C28.5602 13.8335 30.2625 13.7956 31.3795 14.7746C32.4844 15.7429 32.821 17.6012 31.5245 18.9792C31.7444 19.1867 31.9807 19.3789 32.1809 19.6036C32.7725 20.2677 33.065 21.055 33.0818 21.9414C33.0909 22.4125 33.0875 22.8835 33.0832 23.3545C33.0784 23.8246 32.7874 24.1226 32.3197 24.1236C30.4316 24.1269 28.5434 24.1269 26.6548 24.1236C26.1837 24.1226 25.8817 23.8289 25.8841 23.3631C25.887 22.733 25.8634 22.0981 25.9316 21.4743C26.0368 20.5107 26.5203 19.7344 27.2829 19.1335C27.3266 19.099 27.3713 19.065 27.414 19.0291C27.4255 19.0195 27.4313 19.0027 27.4476 18.9759ZM31.6397 22.6774C31.6397 22.4038 31.6527 22.1561 31.6378 21.9098C31.5466 20.3952 30.1588 19.4469 28.7307 19.9634C27.6118 20.3683 27.1725 21.3966 27.3554 22.6774H31.6397ZM29.4899 18.3731C30.2736 18.3678 30.9223 17.7166 30.9214 16.9361C30.9204 16.155 30.2707 15.5053 29.4875 15.5019C28.6966 15.4986 28.0349 16.1627 28.044 16.9509C28.0531 17.7339 28.7086 18.3784 29.4899 18.3731Z" fill="#AAAAAA"/>
<path d="M39.6624 19.813C40.6147 19.813 41.5669 19.8073 42.5191 19.8154C43.0637 19.8202 43.4147 20.3348 43.2034 20.8102C43.0656 21.1207 42.8087 21.2524 42.4716 21.2515C41.4713 21.2486 40.4711 21.2505 39.4708 21.2505C38.5825 21.2505 37.6941 21.2563 36.8062 21.2476C36.2617 21.2424 35.9106 20.7282 36.1219 20.2529C36.2597 19.9424 36.5167 19.8106 36.8538 19.8116C37.7901 19.8144 38.726 19.8125 39.6624 19.813Z" fill="#AAAAAA"/>
<path d="M39.6552 24.125C38.7112 24.125 37.7666 24.1298 36.8225 24.1231C36.2626 24.1192 35.9049 23.6032 36.1253 23.1207C36.2665 22.8116 36.5253 22.6856 36.8619 22.6865C38.1901 22.6894 39.5189 22.688 40.8471 22.688C41.3835 22.688 41.9194 22.686 42.4558 22.6884C42.9398 22.6904 43.2678 22.9874 43.263 23.4144C43.2582 23.8322 42.9355 24.1235 42.4644 24.125C41.528 24.1274 40.5921 24.1259 39.6557 24.1255L39.6552 24.125Z" fill="#AAAAAA"/>
<path d="M36.7889 16.9394C37.1808 16.9437 37.5039 17.2729 37.5001 17.6639C37.4958 18.0549 37.1659 18.3774 36.774 18.3736C36.3822 18.3693 36.059 18.0401 36.0629 17.6491C36.0672 17.2581 36.3971 16.9356 36.7889 16.9394Z" fill="#AAAAAA"/>
<path d="M40.3813 17.6505C40.3847 18.0415 40.0605 18.3697 39.6687 18.3731C39.2768 18.3764 38.9479 18.053 38.9445 17.662C38.9412 17.271 39.2653 16.9428 39.6572 16.9394C40.049 16.9361 40.3779 17.2595 40.3813 17.6505Z" fill="#AAAAAA"/>
<path d="M42.5369 18.3731C42.1451 18.3692 41.8214 18.0401 41.8253 17.6491C41.8291 17.2581 42.159 16.9351 42.5508 16.9389C42.9427 16.9428 43.2663 17.272 43.2625 17.663C43.2587 18.054 42.9288 18.3769 42.5369 18.3731Z" fill="#AAAAAA"/>
<path d="M41.1208 10.2057C41.2644 10.0423 41.3729 9.9043 41.4958 9.7802C42.1383 9.13476 42.7823 8.49028 43.431 7.85059C43.7662 7.51997 44.2003 7.50942 44.4966 7.81082C44.7866 8.10647 44.7766 8.53292 44.4543 8.85684C43.5247 9.79122 42.5912 10.7227 41.6548 11.6504C41.3057 11.9963 40.9052 11.9954 40.5546 11.6523C40.098 11.2052 39.6456 10.7534 39.1971 10.2977C38.8687 9.9642 38.86 9.52815 39.165 9.23442C39.4627 8.9474 39.8852 8.96274 40.2132 9.28378C40.5042 9.5684 40.7851 9.86405 41.1208 10.2057Z" fill="#AAAAAA"/>
</g>
<defs>
<clipPath id="clip0_42_1757">
<rect width="24.5862" height="23" fill="white" transform="translate(23 4)"/>
</clipPath>
</defs>
</svg>
