<svg width="70" height="46" viewBox="0 0 70 46" fill="none" xmlns="http://www.w3.org/2000/svg">
<path d="M28.1018 34.048C28.1018 35.572 28.0058 36.904 27.7778 37.996H29.3498V38.872H25.1378V41.404H24.0698V38.872H19.8818V37.996H26.7098C26.9138 37.096 27.0218 35.92 27.0218 34.924H21.1178V34.048H28.1018ZM28.2578 43.516H21.1058V40.252H22.1618V42.664H28.2578V43.516ZM38.8686 40.972H37.8006V33.352H38.8686V40.972ZM39.0846 43.516H31.9806V40.24H33.0486V42.664H39.0846V43.516ZM35.7966 39.136H30.7926V34.312H35.7966V39.136ZM34.7526 38.296V35.164H31.8486V38.296H34.7526ZM49.5034 43.708H42.5554V39.604H43.6354V40.816H48.4474V39.568H49.5034V43.708ZM45.5434 36.292C45.5434 37.612 44.6074 38.656 43.1794 38.656C41.7514 38.656 40.8154 37.612 40.8154 36.28C40.8154 34.96 41.7514 33.916 43.1794 33.916C44.6074 33.916 45.5434 34.96 45.5434 36.292ZM49.5034 39.04H48.4834V36.652H47.3674V38.944H46.3474V33.544H47.3674V35.776H48.4834V33.352H49.5034V39.04ZM44.5234 36.292C44.5234 35.428 44.0074 34.804 43.1794 34.804C42.3514 34.804 41.8234 35.428 41.8234 36.28C41.8234 37.132 42.3514 37.768 43.1794 37.768C44.0074 37.768 44.5234 37.132 44.5234 36.292ZM48.4474 42.856V41.644H43.6354V42.856H48.4474Z" fill="#AAAAAA"/>
<rect x="24.75" y="4.75" width="8.58333" height="8.58333" rx="2.25" stroke="#AAAAAA" stroke-width="1.5"/>
<rect x="24.75" y="16.6667" width="8.58333" height="8.58333" rx="2.25" stroke="#AAAAAA" stroke-width="1.5"/>
<rect x="36.6667" y="16.6667" width="8.58333" height="8.58333" rx="2.25" stroke="#AAAAAA" stroke-width="1.5"/>
<path d="M41.1875 5.83331V12.7083" stroke="#AAAAAA" stroke-width="1.5" stroke-linecap="round"/>
<path d="M44.625 9.27081L37.75 9.27081" stroke="#AAAAAA" stroke-width="1.5" stroke-linecap="round"/>
</svg>
