<svg width="18" height="20" viewBox="0 0 18 20" fill="none" xmlns="http://www.w3.org/2000/svg">
<path d="M5 8.71429V4.85714C5 3.83417 5.42143 2.85309 6.17157 2.12973C6.92172 1.40638 7.93913 1 9 1C10.0609 1 11.0783 1.40638 11.8284 2.12973C12.5786 2.85309 13 3.83417 13 4.85714V8.71429M2.33333 8.71429H15.6667C16.0203 8.71429 16.3594 8.84975 16.6095 9.09086C16.8595 9.33198 17 9.65901 17 10V17.7143C17 18.0553 16.8595 18.3823 16.6095 18.6234C16.3594 18.8645 16.0203 19 15.6667 19H2.33333C1.97971 19 1.64057 18.8645 1.39052 18.6234C1.14048 18.3823 1 18.0553 1 17.7143V10C1 9.65901 1.14048 9.33198 1.39052 9.09086C1.64057 8.84975 1.97971 8.71429 2.33333 8.71429Z" stroke="white" stroke-width="1.5"/>
</svg>
