<svg width="18" height="20" viewBox="0 0 18 20" fill="none" xmlns="http://www.w3.org/2000/svg">
<path id="Vector" d="M9.00044 -0.00780602C10.9471 -0.0103649 12.8182 0.745036 14.2174 2.09835C15.6167 3.45167 16.4341 5.29657 16.4964 7.24219L16.5004 7.49219V11.5892L17.8804 14.7452C17.9634 14.9354 17.9978 15.1432 17.9804 15.35C17.963 15.5568 17.8944 15.7559 17.7808 15.9296C17.6672 16.1032 17.5121 16.2458 17.3296 16.3446C17.1472 16.4433 16.9429 16.4951 16.7354 16.4952L12.0004 16.4982C12.0015 17.2792 11.6979 18.0298 11.1542 18.5905C10.6105 19.1512 9.86964 19.4778 9.08898 19.5008C8.30833 19.5238 7.54945 19.2416 6.97365 18.7139C6.39785 18.1863 6.0505 17.4549 6.00544 16.6752L6.00044 16.4952H1.27544C1.06816 16.4952 0.864131 16.4437 0.681719 16.3452C0.499307 16.2468 0.34424 16.1045 0.230477 15.9312C0.116713 15.758 0.0478257 15.5591 0.0300143 15.3526C0.0122029 15.1461 0.0460272 14.9384 0.128442 14.7482L1.50044 11.5902V7.49219C1.50044 3.33719 4.85244 -0.00780602 9.00044 -0.00780602ZM10.5004 16.4962L7.50044 16.4982C7.50038 16.8835 7.64858 17.254 7.91434 17.533C8.18009 17.812 8.54301 17.978 8.92786 17.9967C9.31271 18.0153 9.68998 17.8852 9.98145 17.6332C10.2729 17.3812 10.4563 17.0267 10.4934 16.6432L10.5004 16.4962ZM9.00044 1.49219C5.68044 1.49219 3.00044 4.16619 3.00044 7.49219V11.9022L1.65644 14.9962H16.3534L15.0004 11.9032V7.50519L14.9974 7.28019C14.945 5.72561 14.2899 4.25239 13.1706 3.17218C12.0514 2.09197 10.5559 1.48949 9.00044 1.49219Z" fill="black"/>
</svg>
