<svg width="69" height="13" viewBox="0 0 69 13" fill="none" xmlns="http://www.w3.org/2000/svg">
<path d="M0.492 9.488H10.548V10.784H0.492V9.488ZM4.704 7.112H6.3V9.8H4.704V7.112ZM1.548 1.664H3.132V3.368H7.872V1.664H9.456V7.448H1.548V1.664ZM3.132 4.616V6.176H7.872V4.616H3.132ZM11.8311 1.94H13.3311V4.436H14.7471V1.94H16.2231V9.44H11.8311V1.94ZM13.3311 5.684V8.168H14.7471V5.684H13.3311ZM19.5471 0.956H21.0711V12.068H19.5471V0.956ZM18.1791 5.192H20.0271V6.476H18.1791V5.192ZM17.1111 1.124H18.6111V11.564H17.1111V1.124ZM30.2621 0.956H31.8581V7.304H30.2621V0.956ZM24.4541 7.784H31.8581V11.948H24.4541V7.784ZM30.2981 9.032H26.0261V10.688H30.2981V9.032ZM28.2341 2.888H30.4901V4.172H28.2341V2.888ZM25.1021 1.46H26.3981V2.516C26.3981 4.64 25.4261 6.488 23.3021 7.184L22.4861 5.936C24.3341 5.348 25.1021 3.956 25.1021 2.516V1.46ZM25.4141 1.46H26.7101V2.612C26.7101 3.932 27.4541 5.216 29.1941 5.756L28.3901 6.992C26.3501 6.332 25.4141 4.604 25.4141 2.612V1.46ZM36.3865 9.464H46.4425V10.772H36.3865V9.464ZM40.5625 6.992H42.1465V9.812H40.5625V6.992ZM40.5025 1.568H41.8945V2.372C41.8945 4.736 40.1785 6.824 37.2745 7.352L36.6145 6.02C39.1465 5.612 40.5025 3.908 40.5025 2.372V1.568ZM40.8145 1.568H42.2065V2.372C42.2065 3.944 43.5625 5.612 46.1065 6.02L45.4465 7.352C42.5305 6.812 40.8145 4.772 40.8145 2.372V1.568ZM50.0176 1.46H51.3376V2.528C51.3376 4.628 50.3176 6.536 48.1456 7.232L47.3656 5.972C49.2376 5.372 50.0176 3.932 50.0176 2.528V1.46ZM50.3416 1.46H51.6496V2.528C51.6496 3.896 52.4176 5.24 54.2296 5.792L53.4496 7.04C51.3256 6.368 50.3416 4.592 50.3416 2.528V1.46ZM49.0696 8.072H56.6536V12.068H55.0456V9.344H49.0696V8.072ZM55.0456 0.956H56.6536V7.58H55.0456V0.956ZM58.4407 6.68H68.4967V7.928H58.4407V6.68ZM62.6647 5.492H64.2607V7.136H62.6647V5.492ZM59.6887 4.796H67.4287V6.008H59.6887V4.796ZM59.6887 1.232H67.3447V2.444H61.2727V5.48H59.6887V1.232ZM60.8287 3.032H67.0927V4.196H60.8287V3.032ZM63.4567 8.42C65.8927 8.42 67.3087 9.068 67.3087 10.244C67.3087 11.432 65.8927 12.068 63.4567 12.068C61.0087 12.068 59.5927 11.432 59.5927 10.244C59.5927 9.068 61.0087 8.42 63.4567 8.42ZM63.4567 9.596C61.9087 9.596 61.2007 9.788 61.2007 10.244C61.2007 10.712 61.9087 10.904 63.4567 10.904C64.9927 10.904 65.7007 10.712 65.7007 10.244C65.7007 9.788 64.9927 9.596 63.4567 9.596Z" fill="black"/>
</svg>
