<svg width="50" height="50" viewBox="0 0 50 50" fill="none" xmlns="http://www.w3.org/2000/svg">
<rect x="0.5" y="0.5" width="49" height="49" rx="24.5" fill="white"/>
<rect x="0.5" y="0.5" width="49" height="49" rx="24.5" stroke="#F4F4F4"/>
<g opacity="0.15" filter="url(#filter0_f_81_28312)">
<path d="M24.9997 40.3191C30.8381 40.3191 35.5711 39.6085 35.5711 38.7318C35.5711 37.8552 30.8381 37.1445 24.9997 37.1445C19.1612 37.1445 14.4282 37.8552 14.4282 38.7318C14.4282 39.6085 19.1612 40.3191 24.9997 40.3191Z" fill="#A7A7A7"/>
</g>
<path d="M15.5102 11.3438C14.3985 11.3438 13.4939 12.2483 13.4939 13.3601C13.4939 14.4719 14.3985 15.3764 15.5102 15.3764C16.622 15.3764 17.5266 14.4719 17.5266 13.3601C17.5266 12.2483 16.622 11.3438 15.5102 11.3438Z" fill="url(#paint0_linear_81_28312)"/>
<path d="M33.9197 11.3438C32.8079 11.3438 31.9033 12.2483 31.9033 13.3601C31.9033 14.4719 32.8079 15.3764 33.9197 15.3764C35.0314 15.3764 35.936 14.4719 35.936 13.3601C35.936 12.2483 35.0314 11.3438 33.9197 11.3438Z" fill="url(#paint1_linear_81_28312)"/>
<path d="M33.9197 29.7617C32.8079 29.7617 31.9033 30.6663 31.9033 31.7781C31.9033 32.8898 32.8079 33.7944 33.9197 33.7944C35.0314 33.7944 35.936 32.8898 35.936 31.7781C35.936 30.6663 35.0314 29.7617 33.9197 29.7617Z" fill="url(#paint2_linear_81_28312)"/>
<path d="M15.5097 29.75C14.398 29.75 13.4934 30.6546 13.4934 31.7663C13.4934 32.8781 14.398 33.7827 15.5097 33.7827C16.6215 33.7827 17.5261 32.8781 17.5261 31.7663C17.5261 30.6546 16.6215 29.75 15.5097 29.75Z" fill="url(#paint3_linear_81_28312)"/>
<path d="M23.5229 12.5913C23.2076 12.3389 22.802 12.2451 22.4086 12.333C18.4707 13.216 15.3558 16.3308 14.4729 20.2687C14.385 20.6616 14.4788 21.0677 14.7312 21.383C14.9846 21.6992 15.3622 21.8809 15.7674 21.8809H17.3771C17.9718 21.8809 18.4972 21.4797 18.6554 20.9052C19.2392 18.7813 20.9212 17.0993 23.045 16.5155C23.6196 16.3578 24.0208 15.8319 24.0208 15.2372V13.6275C24.0208 13.2223 23.8391 12.8447 23.5229 12.5913Z" fill="url(#paint4_linear_81_28312)"/>
<path d="M34.9561 20.2687C34.0732 16.3308 30.9583 13.216 27.0204 12.333C26.627 12.2451 26.2214 12.3389 25.9061 12.5913C25.5899 12.8447 25.4082 13.2223 25.4082 13.6275V15.2372C25.4082 15.8319 25.8094 16.3573 26.384 16.5155C28.5078 17.0993 30.1898 18.7813 30.7737 20.9052C30.9318 21.4797 31.4572 21.8809 32.0519 21.8809H33.6616C34.0668 21.8809 34.4444 21.6992 34.6978 21.383C34.9502 21.0677 35.044 20.6616 34.9561 20.2687Z" fill="url(#paint5_linear_81_28312)"/>
<path d="M34.6978 23.7714C34.4444 23.4551 34.0668 23.2734 33.6616 23.2734H32.0519C31.4572 23.2734 30.9318 23.6746 30.7737 24.2492C30.1898 26.3731 28.5078 28.055 26.384 28.6389C25.8094 28.7965 25.4082 29.3225 25.4082 29.9171V31.5269C25.4082 31.932 25.5899 32.3096 25.9061 32.563C26.1438 32.7531 26.4331 32.8538 26.7297 32.8538C26.8264 32.8538 26.9236 32.8429 27.0204 32.8213C30.9583 31.9384 34.0732 28.8235 34.9561 24.8856C35.044 24.4928 34.9502 24.0867 34.6978 23.7714Z" fill="url(#paint6_linear_81_28312)"/>
<path d="M23.045 28.6389C20.9212 28.055 19.2392 26.3731 18.6554 24.2492C18.4972 23.6746 17.9718 23.2734 17.3771 23.2734H15.7674C15.3622 23.2734 14.9846 23.4551 14.7312 23.7714C14.4788 24.0867 14.385 24.4928 14.4729 24.8856C15.3558 28.8235 18.4707 31.9384 22.4086 32.8213C22.5054 32.8429 22.6026 32.8538 22.6993 32.8538C22.9959 32.8538 23.2852 32.7536 23.5229 32.563C23.8391 32.3096 24.0208 31.932 24.0208 31.5269V29.9171C24.0208 29.3225 23.6196 28.797 23.045 28.6389Z" fill="url(#paint7_linear_81_28312)"/>
<path d="M28.9943 23.1345L28.6889 22.9582C28.7011 22.8296 28.7075 22.7004 28.7075 22.5713C28.7075 22.4421 28.7011 22.3129 28.6889 22.1843L28.9943 22.008C29.6312 21.6402 29.8502 20.823 29.4824 20.1861L29.1647 19.6356C28.9864 19.3272 28.6992 19.1063 28.3549 19.0144C28.0107 18.9226 27.6512 18.9697 27.3428 19.1475L27.0379 19.3238C26.8272 19.1725 26.6028 19.0429 26.3666 18.9358V18.5838C26.3666 17.8481 25.7684 17.25 25.0328 17.25H24.3969C23.6613 17.25 23.0631 17.8481 23.0631 18.5838V18.9358C22.8269 19.0429 22.603 19.1725 22.3918 19.3238L22.0869 19.1475C21.7785 18.9692 21.419 18.9221 21.0748 19.0144C20.7305 19.1067 20.4433 19.3272 20.265 19.6356L19.9473 20.1861C19.5795 20.823 19.7985 21.6402 20.4354 22.008L20.7409 22.1843C20.7286 22.3129 20.7222 22.4421 20.7222 22.5713C20.7222 22.7004 20.7286 22.8296 20.7409 22.9582L20.4354 23.1345C19.7985 23.5023 19.5795 24.3195 19.9473 24.9564L20.265 25.5069C20.6328 26.1438 21.45 26.3628 22.0869 25.995L22.3918 25.8187C22.6025 25.97 22.8269 26.0996 23.0631 26.2067V26.5588C23.0631 27.2944 23.6613 27.8925 24.3969 27.8925H25.0328C25.7684 27.8925 26.3666 27.2944 26.3666 26.5588V26.2067C26.6028 26.0996 26.8267 25.97 27.0379 25.8187L27.3428 25.995C27.9797 26.3628 28.7969 26.1438 29.1647 25.5069L29.4824 24.9564C29.8502 24.3195 29.6312 23.5023 28.9943 23.1345ZM25.4547 22.5708C25.4547 22.9788 25.1227 23.3103 24.7151 23.3103C24.3075 23.3103 23.9755 22.9783 23.9755 22.5708C23.9755 22.1632 24.3075 21.8312 24.7151 21.8312C25.1227 21.8312 25.4547 22.1632 25.4547 22.5708Z" fill="url(#paint8_linear_81_28312)"/>
<defs>
<filter id="filter0_f_81_28312" x="12.1425" y="34.8588" width="25.7143" height="7.74721" filterUnits="userSpaceOnUse" color-interpolation-filters="sRGB">
<feFlood flood-opacity="0" result="BackgroundImageFix"/>
<feBlend mode="normal" in="SourceGraphic" in2="BackgroundImageFix" result="shape"/>
<feGaussianBlur stdDeviation="1.14286" result="effect1_foregroundBlur_81_28312"/>
</filter>
<linearGradient id="paint0_linear_81_28312" x1="15.5102" y1="15.3764" x2="15.5102" y2="11.3438" gradientUnits="userSpaceOnUse">
<stop stop-color="#FF9500"/>
<stop offset="1" stop-color="#FFCC1E"/>
</linearGradient>
<linearGradient id="paint1_linear_81_28312" x1="33.9197" y1="15.3764" x2="33.9197" y2="11.3438" gradientUnits="userSpaceOnUse">
<stop stop-color="#0068C0"/>
<stop offset="1" stop-color="#00AEFF"/>
</linearGradient>
<linearGradient id="paint2_linear_81_28312" x1="33.9197" y1="33.7944" x2="33.9197" y2="29.7617" gradientUnits="userSpaceOnUse">
<stop stop-color="#FF9500"/>
<stop offset="1" stop-color="#FFCC1E"/>
</linearGradient>
<linearGradient id="paint3_linear_81_28312" x1="15.5097" y1="33.7827" x2="15.5097" y2="29.75" gradientUnits="userSpaceOnUse">
<stop stop-color="#62D154"/>
<stop offset="1" stop-color="#9DED93"/>
</linearGradient>
<linearGradient id="paint4_linear_81_28312" x1="19.2309" y1="21.8809" x2="19.2309" y2="12.3011" gradientUnits="userSpaceOnUse">
<stop stop-color="#FFBD00"/>
<stop offset="1" stop-color="#FFF065"/>
</linearGradient>
<linearGradient id="paint5_linear_81_28312" x1="30.1981" y1="21.8809" x2="30.1981" y2="12.3011" gradientUnits="userSpaceOnUse">
<stop stop-color="#0068C0"/>
<stop offset="1" stop-color="#00AEFF"/>
</linearGradient>
<linearGradient id="paint6_linear_81_28312" x1="30.1981" y1="32.8533" x2="30.1981" y2="23.2734" gradientUnits="userSpaceOnUse">
<stop stop-color="#FFBD00"/>
<stop offset="1" stop-color="#FFF065"/>
</linearGradient>
<linearGradient id="paint7_linear_81_28312" x1="19.2309" y1="32.8533" x2="19.2309" y2="23.2734" gradientUnits="userSpaceOnUse">
<stop stop-color="#4CA342"/>
<stop offset="1" stop-color="#54CC46"/>
</linearGradient>
<linearGradient id="paint8_linear_81_28312" x1="24.7146" y1="27.8925" x2="24.7146" y2="17.249" gradientUnits="userSpaceOnUse">
<stop stop-color="#999999"/>
<stop offset="1" stop-color="#CCCCCC"/>
</linearGradient>
</defs>
</svg>
