<svg width="20" height="21" viewBox="0 0 20 21" fill="none" xmlns="http://www.w3.org/2000/svg">
<path d="M7.30671 2.32531C8.16546 2.20697 8.88755 2.73239 9.22921 3.41531L10.0696 5.09572C10.5359 6.02822 10.268 7.12239 9.5613 7.81072C9.1438 8.21697 8.72422 8.68114 8.48088 9.09072C8.46469 9.11989 8.45965 9.15395 8.46671 9.18656C8.69171 10.4057 9.51796 11.6103 10.255 12.4741C10.2922 12.5151 10.3406 12.5444 10.3942 12.5582C10.4478 12.572 10.5043 12.5699 10.5567 12.552L12.213 12.0345C12.6591 11.895 13.1382 11.9022 13.58 12.0548C14.0218 12.2075 14.4031 12.4977 14.668 12.8828L15.8667 14.6266C16.1917 15.0995 16.3563 15.7411 16.1071 16.3582C15.8846 16.9095 15.4542 17.7045 14.6713 18.2332C13.8588 18.7816 12.7459 18.9899 11.2896 18.4907C9.66255 17.9324 8.12546 16.5324 6.85088 14.742C5.5688 12.9403 4.51338 10.6899 3.87338 8.34322C3.26838 6.12781 3.63338 4.63614 4.49255 3.67572C5.3213 2.74906 6.5088 2.43489 7.30671 2.32531ZM8.29713 3.88114C8.10671 3.50072 7.76713 3.31281 7.44838 3.35656C6.73963 3.45406 5.85213 3.71781 5.26921 4.36989C4.71671 4.98781 4.33421 6.07614 4.87755 8.06906C5.48796 10.3057 6.49296 12.4432 7.69921 14.1378C8.91297 15.8432 10.2921 17.0474 11.6271 17.5053C12.8167 17.9132 13.5813 17.7116 14.088 17.3699C14.6238 17.0078 14.9534 16.4324 15.1409 15.9682C15.2267 15.7557 15.1896 15.4807 15.008 15.2166L13.8092 13.4732C13.6705 13.2715 13.4708 13.1194 13.2394 13.0394C13.008 12.9594 12.7571 12.9556 12.5234 13.0286L10.8671 13.5461C10.3721 13.7007 9.81463 13.5628 9.46255 13.1503C8.69546 12.2516 7.71797 10.8732 7.44172 9.37531C7.38895 9.09457 7.43988 8.80423 7.58505 8.55822C7.90088 8.02739 8.40088 7.48614 8.8338 7.06447C9.25671 6.65281 9.37672 6.04031 9.13755 5.56156L8.29713 3.88114Z" fill="black"/>
</svg>
