<svg width="51" height="51" viewBox="0 0 51 51" fill="none" xmlns="http://www.w3.org/2000/svg">
<g clip-path="url(#clip0_28_4357)">
<path d="M39.4158 29.7827H40.7886C41.0737 29.7827 41.3471 29.896 41.5487 30.0976C41.7503 30.2992 41.8636 30.5726 41.8636 30.8577V31.9327C41.8636 32.2178 41.7503 32.4913 41.5487 32.6929C41.3471 32.8945 41.0737 33.0077 40.7886 33.0077H39.7136L39.4158 29.7827ZM10.9777 29.7827H9.61357C9.32847 29.7827 9.05504 29.896 8.85343 30.0976C8.65183 30.2992 8.53857 30.5726 8.53857 30.8577V31.9327C8.53857 32.2178 8.65183 32.4913 8.85343 32.6929C9.05504 32.8945 9.32847 33.0077 9.61357 33.0077H10.6886L10.9777 29.7827Z" fill="#349AD1"/>
<path d="M39.7135 30.882V33.3545C39.7143 33.8433 39.5473 34.3177 39.2405 34.6982L36.0477 38.665C35.8477 38.9178 35.5928 39.1218 35.3022 39.2615C35.0117 39.4012 34.6931 39.4729 34.3707 39.4712H29.7052C29.1958 39.4686 28.7038 39.2859 28.3162 38.9554C27.9286 38.6248 27.6705 38.1678 27.5875 37.6652L27.4585 36.859L27.0822 34.6015C27.0068 34.1571 26.7766 33.7537 26.4322 33.4629C26.0879 33.172 25.6517 33.0125 25.201 33.0125C24.7502 33.0125 24.3141 33.172 23.9697 33.4629C23.6254 33.7537 23.3951 34.1571 23.3197 34.6015L22.8037 37.6652C22.7217 38.1664 22.4631 38.6217 22.0748 38.949C21.6864 39.2762 21.1938 39.4538 20.686 39.4497H16.0097C15.6868 39.4482 15.3683 39.374 15.078 39.2326C14.7877 39.0911 14.533 38.8861 14.3327 38.6327L11.1615 34.6552C10.8546 34.2747 10.6877 33.8003 10.6885 33.3115V30.839C10.6927 30.2682 10.9221 29.7222 11.3267 29.3196C11.7313 28.917 12.2785 28.6904 12.8492 28.689L35.5747 28.732H37.5742C37.856 28.7321 38.135 28.7879 38.3952 28.8961C38.6554 29.0043 38.8916 29.1629 39.0904 29.3626C39.2892 29.5624 39.4465 29.7995 39.5534 30.0602C39.6604 30.3209 39.7148 30.6002 39.7135 30.882Z" fill="#83C8EC"/>
<path d="M18.4083 28.7017L11.7261 35.3828L14.4372 38.754L24.4637 28.7264L18.4083 28.7017Z" fill="#B8DFF6"/>
<path d="M39.7135 30.8829V30.9474L31.1887 39.4722H29.7052C29.1959 39.4696 28.7038 39.2868 28.3162 38.9563C27.9286 38.6258 27.6705 38.1688 27.5875 37.6662L27.4585 36.8599L35.5747 28.7329H37.5742C37.856 28.733 38.135 28.7888 38.3952 28.8971C38.6554 29.0053 38.8917 29.1638 39.0904 29.3636C39.2892 29.5634 39.4465 29.8004 39.5535 30.0611C39.6604 30.3218 39.7148 30.6011 39.7135 30.8829Z" fill="#B8DFF6"/>
<path d="M39.7135 22.7888V23.3263H10.6885V22.7888C10.6885 22.606 10.6885 22.434 10.6992 22.2513C10.7739 20.1834 11.2914 18.1555 12.2168 16.3047C13.1422 14.454 14.454 12.8233 16.0635 11.5228C16.4055 11.2363 16.7645 10.9706 17.1385 10.7273C19.5237 9.12943 22.33 8.27637 25.201 8.27637C28.072 8.27637 30.8782 9.12943 33.2635 10.7273C33.6356 10.9732 33.9945 11.2388 34.3385 11.5228C34.7323 11.8394 35.1091 12.1767 35.4672 12.5333C38.0585 15.1195 39.5721 18.5925 39.7027 22.2513C39.7135 22.434 39.7135 22.606 39.7135 22.7888Z" fill="#FDD331"/>
<path d="M40.2511 23.333H10.1511C9.26052 23.333 8.53857 24.0549 8.53857 24.9455C8.53857 25.8361 9.26052 26.558 10.1511 26.558H40.2511C41.1416 26.558 41.8636 25.8361 41.8636 24.9455C41.8636 24.0549 41.1416 23.333 40.2511 23.333Z" fill="#FDD331"/>
<path d="M39.7135 22.789V23.3265H10.6885V22.789C10.6885 22.6062 10.6885 22.4342 10.6992 22.2515H39.7027C39.7135 22.4342 39.7135 22.6062 39.7135 22.789Z" fill="#E2BB27"/>
<path d="M33.2632 10.4264V15.8014H17.1382V10.4264C17.1399 9.85667 17.3669 9.3108 17.7698 8.90797C18.1726 8.50513 18.7185 8.27807 19.2882 8.27637H31.1132C31.6829 8.27807 32.2288 8.50513 32.6316 8.90797C33.0344 9.3108 33.2615 9.85667 33.2632 10.4264Z" fill="#FDD331"/>
<path d="M16.5128 15.8006H17.1385V10.7266C16.7645 10.9699 16.4055 11.2356 16.0635 11.5221L16.5128 15.8006ZM33.2635 10.7266V15.8006H33.8902L34.3385 11.5221C33.9945 11.2381 33.6356 10.9725 33.2635 10.7266Z" fill="#E2BB27"/>
<path d="M21.4385 21.1828L22.3221 8.81386C22.3741 8.08578 22.6999 7.4044 23.2341 6.90694C23.7682 6.40947 24.471 6.13287 25.201 6.13281C25.9309 6.13287 26.6337 6.40947 27.1679 6.90694C27.7021 7.4044 28.0279 8.08578 28.0798 8.81386L28.9635 21.1828" fill="#FDD331"/>
<path d="M22.4164 8.27637C22.3625 8.45096 22.33 8.63145 22.3196 8.81387L21.8251 15.8014L21.4381 21.1764L21.3521 15.8014L21.2446 8.81387C21.255 8.63145 21.2875 8.45096 21.3414 8.27637H22.4164ZM29.1566 8.81387L29.0491 15.8014L28.9631 21.1764L28.5761 15.8014L28.0816 8.81387C28.0712 8.63145 28.0388 8.45096 27.9849 8.27637H29.0599C29.1138 8.45096 29.1462 8.63145 29.1566 8.81387Z" fill="#E2BB27"/>
</g>
<g opacity="0.15" filter="url(#filter0_f_28_4357)">
<path d="M25.2004 44.8016C33.3742 44.8016 40.0004 44.0852 40.0004 43.2016C40.0004 42.3179 33.3742 41.6016 25.2004 41.6016C17.0266 41.6016 10.4004 42.3179 10.4004 43.2016C10.4004 44.0852 17.0266 44.8016 25.2004 44.8016Z" fill="#68645F"/>
</g>
<defs>
<filter id="filter0_f_28_4357" x="7.20039" y="38.4016" width="36.0001" height="9.6002" filterUnits="userSpaceOnUse" color-interpolation-filters="sRGB">
<feFlood flood-opacity="0" result="BackgroundImageFix"/>
<feBlend mode="normal" in="SourceGraphic" in2="BackgroundImageFix" result="shape"/>
<feGaussianBlur stdDeviation="1.6" result="effect1_foregroundBlur_28_4357"/>
</filter>
<clipPath id="clip0_28_4357">
<rect width="34.4" height="34.4" fill="white" transform="translate(8.00049 5.60156)"/>
</clipPath>
</defs>
</svg>
