<svg width="51" height="51" viewBox="0 0 51 51" fill="none" xmlns="http://www.w3.org/2000/svg">
<g clip-path="url(#clip0_28_4338)">
<mask id="mask0_28_4338" style="mask-type:luminance" maskUnits="userSpaceOnUse" x="8" y="13" width="34" height="30">
<path d="M8.79688 13.68H41.5969V42.48H8.79688V13.68Z" fill="white"/>
</mask>
<g mask="url(#mask0_28_4338)">
<path d="M38.488 32.3892C31.9608 36.0839 21.1713 32.058 22.6275 26.2791C23.9041 21.2133 30.7575 22.6692 32.3164 23.3528C33.8744 24.0365 32.9318 20.4054 29.3169 19.3155C24.4202 17.8399 18.4256 18.1522 16.5318 25.5682C15.2371 30.6362 17.7722 37.7415 27.5095 37.8362C37.2476 37.9309 38.488 32.3892 38.488 32.3892Z" fill="#226699"/>
<path d="M40.724 33.5345C40.724 31.9081 38.3468 31.7656 37.2714 32.6864C34.6871 34.8987 30.8823 35.7271 25.7931 34.8548C16.9457 33.339 16.8663 24.2344 22.9162 21.6363C26.1884 20.2304 30.07 21.8948 31.5469 22.8907C32.8313 23.7569 35.2878 24.9067 35.1592 23.4598C34.8839 20.382 28.0123 13.7883 18.8058 17.9568C9.59851 22.1252 9.66066 31.5329 9.66066 33.2382V38.7329C9.66066 40.4071 11.2264 41.7251 13.1331 41.7251H37.3016C39.2083 41.7251 40.7343 40.4071 40.7343 38.7329C40.7343 38.7329 40.7309 33.5391 40.724 33.5345Z" fill="#55ACEE"/>
</g>
</g>
<path d="M13.2865 5.08918C13.1686 4.97894 13.0275 4.89641 12.8736 4.84761C12.7197 4.79882 12.5569 4.78498 12.3969 4.80713C11.9562 4.86815 12.0172 4.88849 9.63334 7.12323C9.52934 7.22064 9.44555 7.33758 9.38675 7.46737C9.32794 7.59716 9.29528 7.73726 9.29062 7.87968C9.28121 8.1673 9.38644 8.44687 9.58317 8.6569C9.77989 8.86694 10.052 8.99022 10.3396 8.99962C10.482 9.00428 10.624 8.98085 10.7573 8.93065C10.8907 8.88046 11.0128 8.80448 11.1168 8.70708L11.4599 8.3857V11.712C11.4599 11.9998 11.5742 12.2757 11.7777 12.4791C11.9811 12.6826 12.257 12.7969 12.5447 12.7969C12.8325 12.7969 13.1084 12.6826 13.3118 12.4791C13.5153 12.2757 13.6296 11.9998 13.6296 11.712V8.3857L13.9726 8.70708C14.1827 8.9038 14.4623 9.00903 14.7499 8.99962C15.0375 8.99022 15.3096 8.86694 15.5063 8.6569C15.703 8.44687 15.8083 8.1673 15.7989 7.87968C15.7895 7.59206 15.6662 7.31996 15.4561 7.12323L13.2865 5.08918Z" fill="#A5CCF2"/>
<path d="M20.3463 12.5046C20.4643 12.6148 20.6053 12.6973 20.7592 12.7461C20.9131 12.7949 21.076 12.8088 21.2359 12.7866C21.6766 12.7256 21.6156 12.7053 23.9995 10.4705C24.1035 10.3731 24.1873 10.2562 24.2461 10.1264C24.3049 9.99659 24.3375 9.85649 24.3422 9.71407C24.3516 9.42645 24.2464 9.14688 24.0496 8.93685C23.8529 8.72681 23.5808 8.60353 23.2932 8.59413C23.1508 8.58947 23.0088 8.6129 22.8755 8.6631C22.7421 8.71329 22.62 8.78926 22.516 8.88667L22.1729 9.20805V5.8817C22.1729 5.59399 22.0586 5.31806 21.8552 5.11461C21.6517 4.91117 21.3758 4.79688 21.0881 4.79688C20.8004 4.79688 20.5244 4.91117 20.321 5.11461C20.1175 5.31806 20.0032 5.59399 20.0032 5.8817V9.20805L19.6602 8.88667C19.4501 8.68995 19.1706 8.58472 18.8829 8.59413C18.5953 8.60353 18.3232 8.72681 18.1265 8.93685C17.9298 9.14688 17.8245 9.42645 17.8339 9.71407C17.8434 10.0017 17.9666 10.2738 18.1767 10.4705L20.3463 12.5046Z" fill="#A5CCF2"/>
<path d="M30.3734 5.08918C30.2555 4.97894 30.1144 4.89641 29.9605 4.84761C29.8066 4.79882 29.6438 4.78498 29.4839 4.80713C29.0431 4.86815 29.1042 4.88849 26.7203 7.12323C26.6163 7.22064 26.5325 7.33758 26.4737 7.46737C26.4149 7.59716 26.3822 7.73726 26.3775 7.87968C26.3681 8.1673 26.4734 8.44687 26.6701 8.6569C26.8668 8.86694 27.1389 8.99022 27.4265 8.99962C27.5689 9.00428 27.7109 8.98085 27.8442 8.93065C27.9776 8.88046 28.0998 8.80448 28.2038 8.70708L28.5468 8.3857V11.712C28.5468 11.9998 28.6611 12.2757 28.8646 12.4791C29.068 12.6826 29.3439 12.7969 29.6317 12.7969C29.9194 12.7969 30.1953 12.6826 30.3987 12.4791C30.6022 12.2757 30.7165 11.9998 30.7165 11.712V8.3857L31.0596 8.70708C31.2696 8.9038 31.5492 9.00903 31.8368 8.99962C32.1244 8.99022 32.3965 8.86694 32.5932 8.6569C32.79 8.44687 32.8952 8.1673 32.8858 7.87968C32.8764 7.59206 32.7531 7.31996 32.5431 7.12323L30.3734 5.08918Z" fill="#A5CCF2"/>
<path d="M37.4332 12.5046C37.5512 12.6148 37.6922 12.6973 37.8461 12.7461C38 12.7949 38.1629 12.8088 38.3228 12.7866C38.7635 12.7256 38.7025 12.7053 41.0864 10.4705C41.1904 10.3731 41.2742 10.2562 41.333 10.1264C41.3918 9.99659 41.4244 9.85649 41.4291 9.71407C41.4385 9.42645 41.3333 9.14688 41.1366 8.93685C40.9398 8.72681 40.6677 8.60353 40.3801 8.59413C40.2377 8.58947 40.0958 8.6129 39.9624 8.6631C39.829 8.71329 39.7069 8.78927 39.6029 8.88667L39.2598 9.20805V5.8817C39.2598 5.59399 39.1455 5.31806 38.9421 5.11461C38.7386 4.91117 38.4627 4.79688 38.175 4.79688C37.8873 4.79688 37.6113 4.91117 37.4079 5.11461C37.2044 5.31806 37.0902 5.59399 37.0902 5.8817V9.20805L36.7471 8.88667C36.537 8.68995 36.2575 8.58472 35.9699 8.59413C35.6822 8.60353 35.4101 8.72681 35.2134 8.93685C35.0167 9.14688 34.9114 9.42645 34.9209 9.71407C34.9303 10.0017 35.0535 10.2738 35.2636 10.4705L37.4332 12.5046Z" fill="#A5CCF2"/>
<g opacity="0.15" filter="url(#filter0_f_28_4338)">
<path d="M24.4001 46.3968C32.5739 46.3968 39.2001 45.6804 39.2001 44.7968C39.2001 43.9131 32.5739 43.1968 24.4001 43.1968C16.2263 43.1968 9.6001 43.9131 9.6001 44.7968C9.6001 45.6804 16.2263 46.3968 24.4001 46.3968Z" fill="#55ACEE"/>
</g>
<defs>
<filter id="filter0_f_28_4338" x="6.4001" y="39.9968" width="36.0001" height="9.6002" filterUnits="userSpaceOnUse" color-interpolation-filters="sRGB">
<feFlood flood-opacity="0" result="BackgroundImageFix"/>
<feBlend mode="normal" in="SourceGraphic" in2="BackgroundImageFix" result="shape"/>
<feGaussianBlur stdDeviation="1.6" result="effect1_foregroundBlur_28_4338"/>
</filter>
<clipPath id="clip0_28_4338">
<rect width="32.8" height="28.8" fill="white" transform="translate(8.79932 13.6782)"/>
</clipPath>
</defs>
</svg>
