<svg width="62" height="62" viewBox="0 0 62 62" fill="none" xmlns="http://www.w3.org/2000/svg">
<g clip-path="url(#clip0_81_33194)">
<rect x="1" y="1" width="60" height="60" rx="30" fill="white"/>
<rect width="60" height="60" transform="translate(1 1)" fill="#F9FAFC"/>
<path d="M31 12.25C28.4994 12.25 26.1012 13.2377 24.333 14.9959C22.5648 16.754 21.5714 19.1386 21.5714 21.625C21.5714 24.1114 22.5648 26.496 24.333 28.2541C26.1012 30.0123 28.4994 31 31 31C33.5006 31 35.8988 30.0123 37.667 28.2541C39.4352 26.496 40.4286 24.1114 40.4286 21.625C40.4286 19.1386 39.4352 16.754 37.667 14.9959C35.8988 13.2377 33.5006 12.25 31 12.25ZM19.2355 33.3438C18.6146 33.341 17.9993 33.4602 17.4249 33.6945C16.8505 33.9288 16.3283 34.2737 15.8883 34.7092C15.4483 35.1448 15.0991 35.6624 14.8609 36.2325C14.6226 36.8026 14.5 37.4139 14.5 38.0312C14.5 41.9945 16.4635 44.9828 19.5325 46.9305C22.5544 48.8453 26.6275 49.75 31 49.75C35.3725 49.75 39.4456 48.8453 42.4675 46.9305C45.5365 44.9852 47.5 41.9922 47.5 38.0312C47.5 36.788 47.0033 35.5958 46.1192 34.7167C45.2351 33.8376 44.036 33.3438 42.7857 33.3438H19.2355Z" fill="#9E9E9E"/>
</g>
<rect x="0.5" y="0.5" width="61" height="61" rx="30.5" stroke="#9E9E9E"/>
<defs>
<clipPath id="clip0_81_33194">
<rect x="1" y="1" width="60" height="60" rx="30" fill="white"/>
</clipPath>
</defs>
</svg>
