<svg width="60" height="60" viewBox="0 0 60 60" fill="none" xmlns="http://www.w3.org/2000/svg">
<rect width="60" height="60" fill="#F9FAFC"/>
<path d="M30 11.25C27.4994 11.25 25.1012 12.2377 23.333 13.9959C21.5648 15.754 20.5714 18.1386 20.5714 20.625C20.5714 23.1114 21.5648 25.496 23.333 27.2541C25.1012 29.0123 27.4994 30 30 30C32.5006 30 34.8988 29.0123 36.667 27.2541C38.4352 25.496 39.4286 23.1114 39.4286 20.625C39.4286 18.1386 38.4352 15.754 36.667 13.9959C34.8988 12.2377 32.5006 11.25 30 11.25ZM18.2355 32.3438C17.6146 32.341 16.9993 32.4602 16.4249 32.6945C15.8505 32.9288 15.3283 33.2737 14.8883 33.7092C14.4483 34.1448 14.0991 34.6624 13.8609 35.2325C13.6226 35.8026 13.5 36.4139 13.5 37.0312C13.5 40.9945 15.4635 43.9828 18.5325 45.9305C21.5544 47.8453 25.6275 48.75 30 48.75C34.3725 48.75 38.4456 47.8453 41.4675 45.9305C44.5365 43.9852 46.5 40.9922 46.5 37.0312C46.5 35.788 46.0033 34.5958 45.1192 33.7167C44.2351 32.8376 43.036 32.3438 41.7857 32.3438H18.2355Z" fill="#9E9E9E"/>
</svg>
