<svg width="24" height="24" viewBox="0 0 24 24" fill="none" xmlns="http://www.w3.org/2000/svg">
<g filter="url(#filter0_d_205_2679)">
<path fill-rule="evenodd" clip-rule="evenodd" d="M18.95 5.684L12.637 10.912C12.4576 11.0606 12.232 11.142 11.999 11.142C11.766 11.142 11.5404 11.0606 11.361 10.912L5.051 5.684C5.01714 5.78591 4.99992 5.89261 5 6V14C5 14.2652 5.10536 14.5196 5.29289 14.7071C5.48043 14.8946 5.73478 15 6 15H18C18.2652 15 18.5196 14.8946 18.7071 14.7071C18.8946 14.5196 19 14.2652 19 14V6C19.0004 5.89267 18.9835 5.78597 18.95 5.684ZM6 4H18C18.5304 4 19.0391 4.21071 19.4142 4.58579C19.7893 4.96086 20 5.46957 20 6V14C20 14.5304 19.7893 15.0391 19.4142 15.4142C19.0391 15.7893 18.5304 16 18 16H6C5.46957 16 4.96086 15.7893 4.58579 15.4142C4.21071 15.0391 4 14.5304 4 14V6C4 5.46957 4.21071 4.96086 4.58579 4.58579C4.96086 4.21071 5.46957 4 6 4ZM5.79 5L11.366 9.603C11.5446 9.7505 11.7688 9.83144 12.0005 9.83199C12.2321 9.83254 12.4567 9.75266 12.636 9.606L18.268 5H5.79Z" fill="black"/>
</g>
<defs>
<filter id="filter0_d_205_2679" x="-2" y="0" width="28" height="28" filterUnits="userSpaceOnUse" color-interpolation-filters="sRGB">
<feFlood flood-opacity="0" result="BackgroundImageFix"/>
<feColorMatrix in="SourceAlpha" type="matrix" values="0 0 0 0 0 0 0 0 0 0 0 0 0 0 0 0 0 0 127 0" result="hardAlpha"/>
<feOffset dy="4"/>
<feGaussianBlur stdDeviation="2"/>
<feComposite in2="hardAlpha" operator="out"/>
<feColorMatrix type="matrix" values="0 0 0 0 0 0 0 0 0 0 0 0 0 0 0 0 0 0 0.25 0"/>
<feBlend mode="normal" in2="BackgroundImageFix" result="effect1_dropShadow_205_2679"/>
<feBlend mode="normal" in="SourceGraphic" in2="effect1_dropShadow_205_2679" result="shape"/>
</filter>
</defs>
</svg>
