<svg width="51" height="51" viewBox="0 0 51 51" fill="none" xmlns="http://www.w3.org/2000/svg">
<path fill-rule="evenodd" clip-rule="evenodd" d="M20.4445 13.4282C20.4445 13.4282 16.2618 14.0165 12.9013 16.6034C12.9013 16.6034 11.6636 17.3269 11.9269 20.6858C11.9269 20.6858 18.521 18.0452 20.9485 16.7546L20.4445 13.4282Z" fill="#CCE9FF"/>
<path fill-rule="evenodd" clip-rule="evenodd" d="M16.9899 16.601C14.8853 17.3584 13.4489 17.7649 12.9653 19.2654C12.4817 20.766 19.6553 17.0627 19.6553 17.0627C19.6553 17.0627 19.0944 15.8436 16.9899 16.601Z" fill="#2A94F4"/>
<path fill-rule="evenodd" clip-rule="evenodd" d="M21.0652 16.5029C21.0652 16.5029 12.1494 18.6706 10.2964 21.8957C10.2964 21.8957 19.9732 20.0913 21.334 18.0821L21.0652 16.5029Z" fill="#B5D5EA"/>
<path fill-rule="evenodd" clip-rule="evenodd" d="M21.4016 17.978C21.4016 17.978 8.63721 21.4672 7.96157 23.2532C7.96157 23.2532 7.65315 24.5096 7.92797 25.3868C8.20279 26.2641 22.4264 21.422 22.4264 21.422L21.4016 17.978Z" fill="#CCE9FF"/>
<path fill-rule="evenodd" clip-rule="evenodd" d="M14.4945 21.5953C11.8133 22.5595 9.98328 23.077 9.36721 24.9872C8.75107 26.8975 17.8903 22.183 17.8903 22.183C17.8903 22.183 17.1757 20.6311 14.4945 21.5953ZM19.4275 20.2783C19.0332 20.2783 18.7135 20.598 18.7135 20.9923C18.7135 21.3866 19.0332 21.7063 19.4275 21.7063C19.8218 21.7063 20.1415 21.3866 20.1415 20.9923C20.1415 20.598 19.8218 20.2783 19.4275 20.2783Z" fill="#2A94F4"/>
<path fill-rule="evenodd" clip-rule="evenodd" d="M30.2721 13.8693C25.9688 11.6288 19.8389 13.5944 19.8389 13.5944L22.1741 20.8856L32.0525 19.7264L30.2721 13.8693Z" fill="#F2F2F2"/>
<path fill-rule="evenodd" clip-rule="evenodd" d="M24.8339 18.8111C23.4678 19.074 23.5986 20.1639 23.5986 20.1639L31.0278 18.8117C30.3632 17.3583 26.2001 18.5481 24.8339 18.8111Z" fill="#2A94F4"/>
<path fill-rule="evenodd" clip-rule="evenodd" d="M6.33252 25.1024L6.39972 32.948C6.39972 32.948 23.3395 32.0089 39.1093 34.4096C39.1093 34.4096 44.2659 21.2374 47.3245 16.2656C32.2809 16.4861 12.0928 23.1216 6.33252 25.1024Z" fill="#F7F7F7"/>
<path fill-rule="evenodd" clip-rule="evenodd" d="M23.6619 15.2884C22.2783 15.4342 22.3159 16.5312 22.3159 16.5312L29.8333 15.8159C29.2947 14.3112 25.0454 15.1425 23.6619 15.2884ZM36.5292 19.2905C29.8607 20.9544 10.4549 25.633 6.33648 26.6192C6.33221 26.6995 6.34264 26.9819 6.34264 26.9819L36.7071 20.0374C36.7071 20.0374 42.6603 18.641 45.4859 19.7228C45.8465 19.0394 46.0695 18.6063 46.1817 18.3502C44.3201 18.1689 41.0521 18.1619 36.5292 19.2905Z" fill="#2A94F4"/>
<path fill-rule="evenodd" clip-rule="evenodd" d="M30.8268 15.7095C30.8268 15.7095 25.7603 15.9459 20.814 16.5831L21.2508 18.0111C21.2508 18.0111 26.3884 17.2332 31.2132 16.9863L30.8268 15.7095Z" fill="#CCE9FF"/>
<path fill-rule="evenodd" clip-rule="evenodd" d="M41.1614 26.3169C39.5302 27.8862 37.3517 29.912 35.3997 28.4826C33.4478 27.0532 32.7446 27.5322 31.4355 28.6001C30.1264 29.668 28.1585 31.4155 25.9259 29.8257C23.6932 28.2358 22.831 29.9513 21.0545 31.2024C19.278 32.4534 18.0338 32.0309 15.8472 30.3797C13.6606 28.7285 12.8238 30.8708 10.4216 31.9075C8.01931 32.9442 8.72281 31.2238 7.26359 30.5308C5.80437 29.8378 3.78648 32.5455 3.78648 32.5455C2.78765 34.2178 3.36655 35.2316 3.36655 35.2316H40.4391C40.4391 35.2316 43.28 30.2193 43.6979 27.1394C44.1157 24.0597 42.7926 24.7475 41.1614 26.3169Z" fill="#0B4870"/>
<path d="M34.1578 24.5846C34.9604 24.5846 35.611 23.934 35.611 23.1314C35.611 22.3288 34.9604 21.6782 34.1578 21.6782C33.3552 21.6782 32.7046 22.3288 32.7046 23.1314C32.7046 23.934 33.3552 24.5846 34.1578 24.5846Z" fill="#CCE9FF"/>
<path fill-rule="evenodd" clip-rule="evenodd" d="M25.9533 24.1279C25.7939 24.0956 25.6282 24.128 25.4927 24.2179C25.3571 24.3077 25.2628 24.4478 25.2305 24.6072C25.1982 24.7665 25.2306 24.9322 25.3205 25.0678C25.4103 25.2033 25.5504 25.2976 25.7098 25.3299C25.8692 25.3622 26.0348 25.3299 26.1704 25.24C26.3059 25.1501 26.4002 25.0101 26.4325 24.8507C26.4648 24.6913 26.4325 24.5256 26.3426 24.3901C26.2527 24.2545 26.1127 24.1602 25.9533 24.1279ZM23.3687 24.7519C23.2629 24.7305 23.1531 24.7409 23.0532 24.7818C22.9532 24.8228 22.8677 24.8925 22.8074 24.982C22.7471 25.0716 22.7147 25.1771 22.7143 25.2851C22.7139 25.3931 22.7455 25.4987 22.8052 25.5887C22.8649 25.6787 22.9499 25.749 23.0495 25.7907C23.1492 25.8324 23.2589 25.8436 23.3649 25.8229C23.4709 25.8022 23.5684 25.7506 23.645 25.6745C23.7216 25.5984 23.774 25.5013 23.7954 25.3954C23.8097 25.3252 23.8099 25.2528 23.7962 25.1824C23.7825 25.112 23.755 25.045 23.7154 24.9853C23.6758 24.9255 23.6248 24.8742 23.5653 24.8341C23.5058 24.7941 23.439 24.7661 23.3687 24.7519ZM20.7073 25.4206C20.5831 25.3954 20.4539 25.4206 20.3483 25.4907C20.2426 25.5607 20.1692 25.6698 20.144 25.7941C20.1188 25.9183 20.144 26.0474 20.2141 26.1531C20.2841 26.2587 20.3933 26.3322 20.5175 26.3574C20.579 26.3698 20.6424 26.37 20.704 26.358C20.7656 26.346 20.8242 26.322 20.8765 26.2873C20.9288 26.2526 20.9738 26.2079 21.0088 26.1559C21.0439 26.1038 21.0683 26.0454 21.0808 25.9838C21.0933 25.9223 21.0935 25.859 21.0815 25.7974C21.0694 25.7358 21.0454 25.6771 21.0107 25.6248C20.976 25.5725 20.9314 25.5276 20.8793 25.4925C20.8272 25.4575 20.7688 25.433 20.7073 25.4206ZM18.088 26.0841C18.036 26.0728 17.9824 26.0719 17.9301 26.0816C17.8779 26.0912 17.8281 26.1111 17.7836 26.1401C17.7391 26.1692 17.7008 26.2068 17.671 26.2508C17.6412 26.2947 17.6204 26.3442 17.6098 26.3963C17.5993 26.4483 17.5992 26.502 17.6096 26.5541C17.62 26.6062 17.6406 26.6557 17.6703 26.6998C17.6999 26.7438 17.7381 26.7816 17.7825 26.8108C17.8269 26.84 17.8766 26.86 17.9288 26.8698C18.0324 26.8893 18.1394 26.8672 18.2267 26.8083C18.3141 26.7495 18.3748 26.6586 18.3957 26.5554C18.4166 26.4522 18.396 26.3448 18.3384 26.2566C18.2808 26.1685 18.1909 26.1065 18.088 26.0841ZM15.7367 26.5671C15.6901 26.5576 15.6421 26.5575 15.5954 26.5666C15.5487 26.5757 15.5042 26.5939 15.4646 26.6202C15.4249 26.6465 15.3908 26.6804 15.3643 26.7198C15.3377 26.7593 15.3192 26.8036 15.3097 26.8502C15.3003 26.8969 15.3001 26.9449 15.3092 26.9916C15.3183 27.0383 15.3366 27.0827 15.3628 27.1224C15.3891 27.162 15.423 27.1961 15.4625 27.2227C15.5019 27.2493 15.5462 27.2678 15.5929 27.2772C15.6865 27.2949 15.7832 27.2749 15.8622 27.2218C15.9413 27.1686 15.9962 27.0865 16.0151 26.9931C16.034 26.8998 16.0154 26.8027 15.9633 26.723C15.9112 26.6433 15.8298 26.5873 15.7367 26.5671ZM13.3152 27.1323C13.2755 27.1243 13.2346 27.1241 13.1949 27.1319C13.1551 27.1397 13.1173 27.1552 13.0836 27.1775C13.0498 27.1999 13.0208 27.2287 12.9982 27.2623C12.9756 27.2959 12.9598 27.3336 12.9517 27.3733C12.9437 27.413 12.9435 27.4539 12.9513 27.4936C12.9591 27.5334 12.9746 27.5712 12.9969 27.605C13.0193 27.6387 13.0481 27.6677 13.0817 27.6903C13.1153 27.713 13.153 27.7287 13.1927 27.7368C13.2729 27.753 13.3562 27.7368 13.4244 27.6916C13.4925 27.6464 13.5399 27.576 13.5562 27.4958C13.5724 27.4157 13.5562 27.3323 13.511 27.2642C13.4658 27.196 13.3954 27.1486 13.3152 27.1323ZM11.1594 27.6287C11.0973 27.6161 11.0328 27.6287 10.9799 27.6637C10.9271 27.6987 10.8904 27.7533 10.8778 27.8154C10.8652 27.8775 10.8778 27.9421 10.9128 27.9949C10.9478 28.0477 11.0024 28.0844 11.0645 28.097C11.0952 28.1032 11.1269 28.1034 11.1577 28.0973C11.1885 28.0913 11.2178 28.0793 11.244 28.062C11.2701 28.0446 11.2926 28.0223 11.3101 27.9963C11.3276 27.9703 11.3399 27.9411 11.3461 27.9103C11.3523 27.8796 11.3525 27.8479 11.3464 27.8171C11.3404 27.7863 11.3284 27.757 11.3111 27.7308C11.2938 27.7047 11.2714 27.6822 11.2454 27.6647C11.2194 27.6472 11.1902 27.6349 11.1594 27.6287Z" fill="#2A94F4"/>
<g opacity="0.15" filter="url(#filter0_f_28_4318)">
<path d="M22.8003 40.7967C32.7414 40.7967 40.8003 40.0803 40.8003 39.1967C40.8003 38.313 32.7414 37.5967 22.8003 37.5967C12.8592 37.5967 4.80029 38.313 4.80029 39.1967C4.80029 40.0803 12.8592 40.7967 22.8003 40.7967Z" fill="#0B4870" fill-opacity="0.8"/>
</g>
<defs>
<filter id="filter0_f_28_4318" x="1.60029" y="34.3967" width="42.4" height="9.6002" filterUnits="userSpaceOnUse" color-interpolation-filters="sRGB">
<feFlood flood-opacity="0" result="BackgroundImageFix"/>
<feBlend mode="normal" in="SourceGraphic" in2="BackgroundImageFix" result="shape"/>
<feGaussianBlur stdDeviation="1.6" result="effect1_foregroundBlur_28_4318"/>
</filter>
</defs>
</svg>
