<svg width="11" height="10" viewBox="0 0 11 10" fill="none" xmlns="http://www.w3.org/2000/svg">
<path d="M9.25009 8.75009L7.4405 6.9405M7.4405 6.9405C7.75004 6.63097 7.99558 6.26349 8.1631 5.85906C8.33062 5.45463 8.41684 5.02117 8.41684 4.58342C8.41684 4.14567 8.33062 3.7122 8.1631 3.30777C7.99558 2.90335 7.75004 2.53587 7.4405 2.22634C7.13097 1.9168 6.76349 1.67126 6.35906 1.50374C5.95463 1.33622 5.52117 1.25 5.08342 1.25C4.64567 1.25 4.2122 1.33622 3.80777 1.50374C3.40335 1.67126 3.03587 1.9168 2.72634 2.22634C2.1012 2.85147 1.75 3.69934 1.75 4.58342C1.75 5.4675 2.1012 6.31536 2.72634 6.9405C3.35147 7.56564 4.19934 7.91684 5.08342 7.91684C5.9675 7.91684 6.81536 7.56564 7.4405 6.9405ZM5.08342 3.33342V5.83342M3.83342 4.58342H6.33342" stroke="white" stroke-linecap="round" stroke-linejoin="round"/>
</svg>
