<svg width="20" height="21" viewBox="0 0 20 21" fill="none" xmlns="http://www.w3.org/2000/svg">
<path d="M5 5C5 4.60218 5.15804 4.22064 5.43934 3.93934C5.72064 3.65804 6.10218 3.5 6.5 3.5H13.5C13.8978 3.5 14.2794 3.65804 14.5607 3.93934C14.842 4.22064 15 4.60218 15 5V7.5H14V5C14 4.86739 13.9473 4.74021 13.8536 4.64645C13.7598 4.55268 13.6326 4.5 13.5 4.5H6.5C6.36739 4.5 6.24021 4.55268 6.14645 4.64645C6.05268 4.74021 6 4.86739 6 5V8.5H11.5C11.2778 8.79592 11.1241 9.13747 11.05 9.5H5C4.73478 9.5 4.48043 9.60536 4.29289 9.79289C4.10536 9.98043 4 10.2348 4 10.5V16C4 16.1326 4.05268 16.2598 4.14645 16.3536C4.24021 16.4473 4.36739 16.5 4.5 16.5H11.05C11.125 16.87 11.281 17.21 11.5 17.5H4.5C4.10218 17.5 3.72064 17.342 3.43934 17.0607C3.15804 16.7794 3 16.3978 3 16V10.5C3 9.96957 3.21071 9.46086 3.58579 9.08579C3.96086 8.71071 4.46957 8.5 5 8.5V5ZM12 10C12 9.60218 12.158 9.22064 12.4393 8.93934C12.7206 8.65804 13.1022 8.5 13.5 8.5H15.5C15.8978 8.5 16.2794 8.65804 16.5607 8.93934C16.842 9.22064 17 9.60218 17 10V16C17 16.3978 16.842 16.7794 16.5607 17.0607C16.2794 17.342 15.8978 17.5 15.5 17.5H13.5C13.1022 17.5 12.7206 17.342 12.4393 17.0607C12.158 16.7794 12 16.3978 12 16V10ZM13.5 9.5C13.3674 9.5 13.2402 9.55268 13.1464 9.64645C13.0527 9.74021 13 9.86739 13 10V16C13 16.1326 13.0527 16.2598 13.1464 16.3536C13.2402 16.4473 13.3674 16.5 13.5 16.5H15.5C15.6326 16.5 15.7598 16.4473 15.8536 16.3536C15.9473 16.2598 16 16.1326 16 16V10C16 9.86739 15.9473 9.74021 15.8536 9.64645C15.7598 9.55268 15.6326 9.5 15.5 9.5H13.5ZM5.625 10.5C5.79076 10.5 5.94973 10.5658 6.06694 10.6831C6.18415 10.8003 6.25 10.9592 6.25 11.125C6.25 11.2908 6.18415 11.4497 6.06694 11.5669C5.94973 11.6842 5.79076 11.75 5.625 11.75C5.45924 11.75 5.30027 11.6842 5.18306 11.5669C5.06585 11.4497 5 11.2908 5 11.125C5 10.9592 5.06585 10.8003 5.18306 10.6831C5.30027 10.5658 5.45924 10.5 5.625 10.5ZM5.625 12.75C5.79076 12.75 5.94973 12.8158 6.06694 12.9331C6.18415 13.0503 6.25 13.2092 6.25 13.375C6.25 13.5408 6.18415 13.6997 6.06694 13.8169C5.94973 13.9342 5.79076 14 5.625 14C5.45924 14 5.30027 13.9342 5.18306 13.8169C5.06585 13.6997 5 13.5408 5 13.375C5 13.2092 5.06585 13.0503 5.18306 12.9331C5.30027 12.8158 5.45924 12.75 5.625 12.75ZM8.5 13.5C8.5 13.3342 8.43415 13.1753 8.31694 13.0581C8.19973 12.9408 8.04076 12.875 7.875 12.875C7.70924 12.875 7.55027 12.9408 7.43306 13.0581C7.31585 13.1753 7.25 13.3342 7.25 13.5C7.25 13.6658 7.31585 13.8247 7.43306 13.9419C7.55027 14.0592 7.70924 14.125 7.875 14.125C8.04076 14.125 8.19973 14.0592 8.31694 13.9419C8.43415 13.8247 8.5 13.6658 8.5 13.5ZM7.875 10.5C8.04076 10.5 8.19973 10.5658 8.31694 10.6831C8.43415 10.8003 8.5 10.9592 8.5 11.125C8.5 11.2908 8.43415 11.4497 8.31694 11.5669C8.19973 11.6842 8.04076 11.75 7.875 11.75C7.70924 11.75 7.55027 11.6842 7.43306 11.5669C7.31585 11.4497 7.25 11.2908 7.25 11.125C7.25 10.9592 7.31585 10.8003 7.43306 10.6831C7.55027 10.5658 7.70924 10.5 7.875 10.5Z" fill="black"/>
</svg>
