<svg width="48" height="47" viewBox="0 0 48 47" fill="none" xmlns="http://www.w3.org/2000/svg">
<path d="M25.3508 46.453C37.5287 46.453 47.4008 36.5809 47.4008 24.403C47.4008 12.2251 37.5287 2.35303 25.3508 2.35303C13.1729 2.35303 3.30078 12.2251 3.30078 24.403C3.30078 36.5809 13.1729 46.453 25.3508 46.453Z" fill="#8B9FFF"/>
<path d="M23.1006 45.5532C35.527 45.5532 45.6006 35.4796 45.6006 23.0532C45.6006 10.6268 35.527 0.553223 23.1006 0.553223C10.6742 0.553223 0.600586 10.6268 0.600586 23.0532C0.600586 35.4796 10.6742 45.5532 23.1006 45.5532Z" fill="#4D67DF"/>
<path d="M32.7147 29.6014C31.3238 28.456 29.6465 26.5128 29.6465 18.1469C29.6465 18.1469 29.6465 17.4105 29.266 16.5105C28.6688 15.0828 27.1142 13.2378 23.101 13.2378C19.0878 13.2378 17.5333 15.0828 16.936 16.5105C16.5556 17.4105 16.5556 18.1469 16.5556 18.1469C16.5556 26.5128 14.8783 28.456 13.4874 29.6014C12.4933 30.4196 11.6465 30.8328 11.6465 32.8742H34.5556C34.5556 30.8328 33.7088 30.4196 32.7147 29.6014Z" fill="#FACB1B"/>
<path d="M23.101 32.8742H11.6465C11.6465 30.8328 12.4933 30.4196 13.4874 29.6014C14.8783 28.456 16.5556 26.5128 16.5556 18.1469C16.5556 18.1469 16.5556 17.4105 16.936 16.5105C17.5333 15.0828 19.0878 13.2378 23.101 13.2378V32.8742Z" fill="#FBEC9A"/>
<path d="M23.1002 13.2337C24.004 13.2337 24.7366 12.501 24.7366 11.5973C24.7366 10.6936 24.004 9.96094 23.1002 9.96094C22.1965 9.96094 21.4639 10.6936 21.4639 11.5973C21.4639 12.501 22.1965 13.2337 23.1002 13.2337Z" fill="#FBE158"/>
<path d="M16.5608 18.0148C16.5899 17.6057 16.7097 17.0408 16.9351 16.5073H23.1001V18.1437H16.5547C16.5547 18.1437 16.5547 18.0979 16.5608 18.0148Z" fill="#FACB1B"/>
<path d="M29.6399 18.0148C29.6109 17.6057 29.491 17.0408 29.2656 16.5073H23.1006V18.1437H29.646C29.646 18.1437 29.646 18.0979 29.6399 18.0148Z" fill="#F3B607"/>
<path d="M32.7142 29.5991H23.1006V32.8718H34.5551C34.5551 30.8305 33.7083 30.4173 32.7142 29.5991Z" fill="#F3B607"/>
<path d="M13.4874 29.5991H23.101V32.8718H11.6465C11.6465 30.8305 12.4933 30.4173 13.4874 29.5991Z" fill="#FACB1B"/>
<path d="M23.1004 36.1414C23.9683 36.1414 24.8008 35.7966 25.4145 35.1828C26.0283 34.5691 26.3731 33.7366 26.3731 32.8687H19.8276C19.8276 33.7366 20.1724 34.5691 20.7862 35.1828C21.4 35.7966 22.2324 36.1414 23.1004 36.1414Z" fill="#FBE158"/>
</svg>
