<svg width="16" height="16" viewBox="0 0 16 16" fill="none" xmlns="http://www.w3.org/2000/svg">
<path d="M13.3334 6L12.0034 13.564C11.9492 13.8729 11.7877 14.1528 11.5475 14.3545C11.3073 14.5561 11.0037 14.6667 10.6901 14.6667H5.31008C4.99644 14.6667 4.69283 14.5561 4.45263 14.3545C4.21243 14.1528 4.05101 13.8729 3.99675 13.564L2.66675 6" fill="#FF0000"/>
<path d="M14 4.00065H10.25M10.25 4.00065V2.66732C10.25 2.3137 10.1095 1.97456 9.85948 1.72451C9.60943 1.47446 9.27029 1.33398 8.91667 1.33398H7.08333C6.72971 1.33398 6.39057 1.47446 6.14052 1.72451C5.89048 1.97456 5.75 2.3137 5.75 2.66732V4.00065M10.25 4.00065H5.75M2 4.00065H5.75M13.3333 6.00065L12.0033 13.5647C11.9491 13.8736 11.7877 14.1535 11.5475 14.3551C11.3072 14.5568 11.0036 14.6673 10.69 14.6673H5.31C4.99636 14.6673 4.69275 14.5568 4.45255 14.3551C4.21235 14.1535 4.05093 13.8736 3.99667 13.5647L2.66667 6.00065H13.3333Z" stroke="#FF0000" stroke-width="1.25" stroke-linecap="round" stroke-linejoin="round"/>
</svg>
