<svg width="16" height="16" viewBox="0 0 16 16" fill="none" xmlns="http://www.w3.org/2000/svg">
<path d="M14.5001 13.7913L10.7241 10.0153C11.6315 8.926 12.0839 7.52877 11.9874 6.1143C11.8908 4.69983 11.2527 3.37704 10.2057 2.42111C9.15867 1.46517 7.78343 0.949686 6.36604 0.981892C4.94864 1.0141 3.59823 1.59151 2.59573 2.59402C1.59322 3.59652 1.01581 4.94694 0.983601 6.36433C0.951395 7.78172 1.46688 9.15696 2.42282 10.204C3.37875 11.251 4.70154 11.8891 6.11601 11.9857C7.53048 12.0822 8.92771 11.6297 10.0171 10.7223L13.7931 14.4983L14.5001 13.7913ZM2.00006 6.49835C2.00006 5.60833 2.26398 4.7383 2.75844 3.99828C3.25291 3.25826 3.95571 2.68149 4.77798 2.34089C5.60025 2.0003 6.50505 1.91118 7.37796 2.08482C8.25088 2.25845 9.0527 2.68703 9.68204 3.31637C10.3114 3.9457 10.74 4.74753 10.9136 5.62044C11.0872 6.49336 10.9981 7.39816 10.6575 8.22042C10.3169 9.04269 9.74014 9.7455 9.00012 10.24C8.2601 10.7344 7.39007 10.9983 6.50006 10.9983C5.30699 10.997 4.16317 10.5225 3.31954 9.67887C2.47591 8.83524 2.00138 7.69142 2.00006 6.49835Z" fill="black"/>
</svg>
