<svg width="51" height="51" viewBox="0 0 51 51" fill="none" xmlns="http://www.w3.org/2000/svg">
<g opacity="0.15" filter="url(#filter0_f_28_4407)">
<path d="M25.1999 45.6014C33.3737 45.6014 39.9999 44.885 39.9999 44.0014C39.9999 43.1177 33.3737 42.4014 25.1999 42.4014C17.0261 42.4014 10.3999 43.1177 10.3999 44.0014C10.3999 44.885 17.0261 45.6014 25.1999 45.6014Z" fill="#C8933E"/>
</g>
<path d="M37.9274 32.0029C36.0573 30.4628 33.8021 27.8501 33.8021 16.6019C33.8021 16.6019 33.8021 15.6118 33.2906 14.4017C32.4875 12.4821 30.3974 10.0015 25.0016 10.0015C19.6057 10.0015 17.5156 12.4821 16.7125 14.4017C16.201 15.6118 16.201 16.6019 16.201 16.6019C16.201 27.8501 13.9459 30.4628 12.0757 32.0029C10.7392 33.1029 9.60059 33.6585 9.60059 36.4032H40.4025C40.4025 33.6585 39.264 33.1029 37.9274 32.0029Z" fill="#FACB1B"/>
<path d="M25.0016 36.4032H9.60059C9.60059 33.6585 10.7392 33.1029 12.0757 32.0029C13.9459 30.4628 16.201 27.8501 16.201 16.6019C16.201 16.6019 16.201 15.6118 16.7125 14.4017C17.5156 12.4821 19.6057 10.0015 25.0016 10.0015V36.4032Z" fill="#FBEC9A"/>
<path d="M25.0039 10.0018C26.219 10.0018 27.204 9.01681 27.204 7.8017C27.204 6.5866 26.219 5.60156 25.0039 5.60156C23.7887 5.60156 22.8037 6.5866 22.8037 7.8017C22.8037 9.01681 23.7887 10.0018 25.0039 10.0018Z" fill="#FBE158"/>
<path d="M16.2089 16.4282C16.248 15.8782 16.4091 15.1186 16.7122 14.4014H25.0012V16.6015H16.2007C16.2007 16.6015 16.2007 16.5399 16.2089 16.4282Z" fill="#FACB1B"/>
<path d="M33.7913 16.4282C33.7523 15.8782 33.5911 15.1186 33.2881 14.4014H24.999V16.6015H33.7996C33.7996 16.6015 33.7996 16.5399 33.7913 16.4282Z" fill="#F3B607"/>
<path d="M37.9248 32.0078H24.999V36.4081H40.4C40.4 33.6634 39.2614 33.1079 37.9248 32.0078Z" fill="#F3B607"/>
<path d="M12.0757 32.0078H25.0016V36.4081H9.60059C9.60059 33.6634 10.7392 33.1079 12.0757 32.0078Z" fill="#FACB1B"/>
<path d="M25.0009 40.8016C26.1679 40.8016 27.2871 40.338 28.1123 39.5128C28.9375 38.6876 29.4011 37.5684 29.4011 36.4014H20.6006C20.6006 37.5684 21.0642 38.6876 21.8894 39.5128C22.7146 40.338 23.8338 40.8016 25.0009 40.8016Z" fill="#FBE158"/>
<defs>
<filter id="filter0_f_28_4407" x="7.1999" y="39.2014" width="36.0001" height="9.6002" filterUnits="userSpaceOnUse" color-interpolation-filters="sRGB">
<feFlood flood-opacity="0" result="BackgroundImageFix"/>
<feBlend mode="normal" in="SourceGraphic" in2="BackgroundImageFix" result="shape"/>
<feGaussianBlur stdDeviation="1.6" result="effect1_foregroundBlur_28_4407"/>
</filter>
</defs>
</svg>
