<svg width="51" height="51" viewBox="0 0 51 51" fill="none" xmlns="http://www.w3.org/2000/svg">
<g opacity="0.15" filter="url(#filter0_f_28_4374)">
<path d="M24.8 44.8016C32.9738 44.8016 39.6 44.0852 39.6 43.2016C39.6 42.3179 32.9738 41.6016 24.8 41.6016C16.6262 41.6016 10 42.3179 10 43.2016C10 44.0852 16.6262 44.8016 24.8 44.8016Z" fill="#6FABE6"/>
</g>
<g clip-path="url(#clip0_28_4374)">
<path d="M38.781 26.8663L39.8077 31.6623L35.1363 33.129L33.6697 37.8003L28.8663 36.781L25.1997 40.0663L21.533 36.781L16.737 37.8077L15.2337 33.1363L10.5623 31.6697L11.6183 26.8663L8.33301 23.1997L11.6183 19.533L10.5917 14.7663C15.9377 13.043 15.2263 13.3877 15.3583 12.9623L16.7663 8.56234L21.533 9.61834L25.1997 6.33301L28.8663 9.61834L33.6623 8.59167L35.129 13.263L39.8003 14.7663L38.781 19.533L42.0663 23.1997L38.781 26.8663Z" fill="#82BCF4"/>
<path d="M36.1997 32.7307C36.1997 32.8114 36.3537 32.7307 35.1363 33.134L33.6697 37.8054L28.8663 36.7787L25.1997 40.064L21.533 36.7787L16.737 37.8054L15.2337 33.134L10.5623 31.6674L11.6183 26.864L8.33301 23.1974L11.6183 19.5307L10.5917 14.764C15.9377 13.0407 15.2263 13.3854 15.3583 12.96C18.0423 12.8187 20.727 13.2252 23.2488 14.1549C25.7705 15.0847 28.0766 16.518 30.0265 18.3678C31.9765 20.2175 33.5294 22.4449 34.5907 24.9142C35.652 27.3835 36.1994 30.043 36.1997 32.7307Z" fill="#6FABE6"/>
<path d="M36.2002 23.2007C36.1992 24.921 35.7947 26.617 35.0192 28.1526C34.2437 29.6882 33.1189 31.0205 31.7351 32.0425C30.3513 33.0645 28.7471 33.7476 27.0514 34.0371C25.3557 34.3267 23.6157 34.2144 21.9712 33.7094C20.3267 33.2045 18.8236 32.3208 17.5826 31.1295C16.3415 29.9382 15.3972 28.4724 14.8255 26.8499C14.2538 25.2274 14.0705 23.4935 14.2905 21.7873C14.5105 20.0812 15.1276 18.4504 16.0922 17.026C22.2009 8.07937 36.2002 12.406 36.2002 23.2007Z" fill="#EDEBF2"/>
<path d="M33.2668 26.131C33.2681 28.3321 32.609 30.4831 31.3748 32.3056C29.2576 33.7465 26.704 34.4034 24.1544 34.1632C21.6047 33.923 19.2187 32.8008 17.4079 30.9899C15.597 29.179 14.4747 26.7931 14.2345 24.2434C13.9943 21.6937 14.6513 19.1402 16.0921 17.023C17.7463 15.901 19.675 15.2509 21.6709 15.1426C23.6668 15.0343 25.6545 15.472 27.4204 16.4084C29.1863 17.3449 30.6637 18.7449 31.6937 20.4579C32.7238 22.1709 33.2676 24.1321 33.2668 26.131Z" fill="#DAD7E5"/>
<path d="M31.4335 20.7699L24.5549 27.6486C24.1424 28.0605 23.5832 28.292 23.0002 28.292C22.4172 28.292 21.858 28.0605 21.4455 27.6486L18.9669 25.1699C18.6751 24.8782 18.5112 24.4825 18.5112 24.0699C18.5112 23.6573 18.6751 23.2616 18.9669 22.9699C19.2586 22.6782 19.6543 22.5143 20.0669 22.5143C20.4794 22.5143 20.8751 22.6782 21.1669 22.9699L23.0002 24.8032C31.3382 16.4652 28.6835 19.1272 29.2335 18.5699C29.5253 18.2782 29.921 18.1143 30.3335 18.1143C30.7461 18.1143 31.1418 18.2782 31.4335 18.5699C31.7253 18.8616 31.8892 19.2573 31.8892 19.6699C31.8892 20.0825 31.7253 20.4782 31.4335 20.7699Z" fill="#82BCF4"/>
<path d="M30.7003 21.4992L24.555 27.6445C24.1425 28.0565 23.5833 28.2879 23.0003 28.2879C22.4173 28.2879 21.8581 28.0565 21.4456 27.6445L18.967 25.1659C18.7396 24.9389 18.5885 24.6469 18.5346 24.3302C18.4807 24.0135 18.5268 23.6879 18.6663 23.3985C18.9557 23.259 19.2813 23.213 19.5979 23.2668C19.9146 23.3207 20.2067 23.4718 20.4336 23.6992L22.267 25.5325C30.935 16.8645 27.987 19.8199 28.6176 19.1892C28.924 18.913 29.3275 18.7698 29.7393 18.7911C30.1512 18.8125 30.5378 18.9965 30.814 19.3029C31.0901 19.6092 31.2333 20.0127 31.212 20.4246C31.1907 20.8365 31.0066 21.223 30.7003 21.4992Z" fill="#6FABE6"/>
</g>
<defs>
<filter id="filter0_f_28_4374" x="6.8" y="38.4016" width="36.0001" height="9.6002" filterUnits="userSpaceOnUse" color-interpolation-filters="sRGB">
<feFlood flood-opacity="0" result="BackgroundImageFix"/>
<feBlend mode="normal" in="SourceGraphic" in2="BackgroundImageFix" result="shape"/>
<feGaussianBlur stdDeviation="1.6" result="effect1_foregroundBlur_28_4374"/>
</filter>
<clipPath id="clip0_28_4374">
<rect width="35.2" height="35.2" fill="white" transform="translate(7.6001 5.60156)"/>
</clipPath>
</defs>
</svg>
