<svg width="30" height="31" viewBox="0 0 30 31" fill="none" xmlns="http://www.w3.org/2000/svg">
<path d="M15 15.5C16.4918 15.5 17.9226 14.9074 18.9775 13.8525C20.0324 12.7976 20.625 11.3668 20.625 9.875C20.625 8.38316 20.0324 6.95242 18.9775 5.89752C17.9226 4.84263 16.4918 4.25 15 4.25C13.5082 4.25 12.0774 4.84263 11.0225 5.89752C9.96763 6.95242 9.375 8.38316 9.375 9.875C9.375 11.3668 9.96763 12.7976 11.0225 13.8525C12.0774 14.9074 13.5082 15.5 15 15.5ZM18.75 9.875C18.75 10.8696 18.3549 11.8234 17.6516 12.5267C16.9484 13.2299 15.9946 13.625 15 13.625C14.0054 13.625 13.0516 13.2299 12.3483 12.5267C11.6451 11.8234 11.25 10.8696 11.25 9.875C11.25 8.88044 11.6451 7.92661 12.3483 7.22335C13.0516 6.52009 14.0054 6.125 15 6.125C15.9946 6.125 16.9484 6.52009 17.6516 7.22335C18.3549 7.92661 18.75 8.88044 18.75 9.875ZM26.25 24.875C26.25 26.75 24.375 26.75 24.375 26.75H5.625C5.625 26.75 3.75 26.75 3.75 24.875C3.75 23 5.625 17.375 15 17.375C24.375 17.375 26.25 23 26.25 24.875ZM24.375 24.8675C24.3731 24.4062 24.0863 23.0187 22.815 21.7475C21.5925 20.525 19.2919 19.25 15 19.25C10.7081 19.25 8.4075 20.525 7.185 21.7475C5.91375 23.0187 5.62875 24.4062 5.625 24.8675H24.375Z" fill="black"/>
</svg>
