<svg width="80" height="80" viewBox="0 0 80 80" fill="none" xmlns="http://www.w3.org/2000/svg">
<g clip-path="url(#clip0_128_992)">
<rect width="80" height="80" rx="40" fill="white"/>
<rect width="80" height="80" fill="#F9FAFC"/>
<path d="M40 15C36.6658 15 33.4683 16.317 31.1107 18.6612C28.7531 21.0054 27.4286 24.1848 27.4286 27.5C27.4286 30.8152 28.7531 33.9946 31.1107 36.3388C33.4683 38.683 36.6658 40 40 40C43.3342 40 46.5317 38.683 48.8893 36.3388C51.2469 33.9946 52.5714 30.8152 52.5714 27.5C52.5714 24.1848 51.2469 21.0054 48.8893 18.6612C46.5317 16.317 43.3342 15 40 15ZM24.314 43.125C23.4862 43.1213 22.6658 43.2802 21.8999 43.5927C21.134 43.9051 20.4377 44.3649 19.851 44.9456C19.2644 45.5263 18.7988 46.2166 18.4812 46.9767C18.1635 47.7368 18 48.5519 18 49.375C18 54.6594 20.618 58.6438 24.71 61.2406C28.7391 63.7938 34.17 65 40 65C45.83 65 51.2609 63.7938 55.29 61.2406C59.382 58.6469 62 54.6562 62 49.375C62 47.7174 61.3378 46.1277 60.159 44.9556C58.9802 43.7835 57.3814 43.125 55.7143 43.125H24.314Z" fill="#9E9E9E"/>
</g>
<defs>
<clipPath id="clip0_128_992">
<rect width="80" height="80" rx="40" fill="white"/>
</clipPath>
</defs>
</svg>
