<svg width="44" height="50" viewBox="0 0 44 50" fill="none" xmlns="http://www.w3.org/2000/svg">
<path opacity="0.18" d="M6.47346 39.4642C5.91415 36.7251 7.05956 33.7541 6.0657 31.1415C5.24599 28.9917 3.16198 27.5987 1.93871 25.6499C0.371306 23.1536 0.41317 19.7414 2.04086 17.2845C3.76232 14.6894 6.83516 13.3893 9.25325 11.4246C10.8299 10.1421 12.1452 8.5549 13.7746 7.3419C15.404 6.1289 17.5156 5.30516 19.4682 5.86855C20.7199 6.23019 21.7531 7.11336 22.9546 7.61648C25.6666 8.7533 28.7403 7.82157 31.6733 7.59387C34.2337 7.39684 36.8065 7.75404 39.2164 8.64112C40.7428 9.20367 42.2532 10.0324 43.1424 11.3944C44.0777 12.8276 44.1907 14.6869 43.7587 16.3427C43.3266 17.9985 42.4014 19.4828 41.3774 20.854C39.7866 22.9786 37.8106 25.4624 38.6671 27.9696C39.2097 29.5601 40.7503 30.5647 41.7752 31.894C43.994 34.7788 43.3333 39.4399 40.4028 41.5938C39.2131 42.4678 37.7235 42.9759 36.7958 44.1245C36.2826 44.7599 35.9828 45.5476 35.4561 46.1746C34.0964 47.8062 31.6783 47.9326 29.5549 47.9158C26.9778 47.8957 24.4012 47.8556 21.8251 47.7953C19.5569 47.7425 16.4255 48.1921 14.2611 47.5115C11.0568 46.5019 7.15249 42.7867 6.47346 39.4642Z" fill="#68E1FD"/>
<path opacity="0.19" d="M10.4961 45.3492C9.24017 45.7159 7.74897 46.5045 7.85279 47.8087C7.95913 49.1431 9.6203 49.6671 10.9508 49.791C13.4844 50.0254 16.0348 50.0045 18.5793 49.9827L29.2237 49.8932C31.6811 49.8722 34.1553 49.8496 36.5659 49.3741C37.3295 49.2235 38.1241 49.0058 38.6758 48.4533C39.2276 47.9008 39.4244 46.9272 38.9002 46.3513C38.4121 45.8155 37.5656 45.8398 36.9259 45.4982C36.2109 45.1165 35.8291 44.3263 35.2513 43.7579C33.9828 42.5214 31.9901 42.5214 30.2176 42.5976L18.6103 43.1074C17.1684 43.1702 15.1774 42.8898 13.8218 43.4423C12.6664 43.9044 11.9371 45.3492 10.4961 45.3492Z" fill="url(#paint0_linear_28_24742)"/>
<path d="M31.7837 12.4609H14.9459C13.8518 12.4609 12.9648 13.3477 12.9648 14.4416V46.5597C12.9648 47.6536 13.8518 48.5403 14.9459 48.5403H31.7837C32.8778 48.5403 33.7647 47.6536 33.7647 46.5597V14.4416C33.7647 13.3477 32.8778 12.4609 31.7837 12.4609Z" fill="url(#paint1_linear_28_24742)"/>
<path d="M32.5611 12.4609H15.7232C14.6291 12.4609 13.7422 13.3477 13.7422 14.4416V46.5597C13.7422 47.6536 14.6291 48.5403 15.7232 48.5403H32.5611C33.6551 48.5403 34.5421 47.6536 34.5421 46.5597V14.4416C34.5421 13.3477 33.6551 12.4609 32.5611 12.4609Z" fill="#68E1FD"/>
<path d="M33.5451 15.2981V42.1901C33.5451 42.6483 33.3631 43.0878 33.039 43.4118C32.7149 43.7358 32.2753 43.9179 31.817 43.9179H16.4645C16.0062 43.9177 15.5668 43.7356 15.2427 43.4116C14.9187 43.0876 14.7365 42.6482 14.7363 42.1901V15.2981C14.7365 14.84 14.9187 14.4006 15.2427 14.0766C15.5668 13.7526 16.0062 13.5705 16.4645 13.5703H20.5881V14.1463C20.5881 14.2658 20.6117 14.3841 20.6574 14.4945C20.7031 14.6049 20.7702 14.7052 20.8547 14.7897C20.9392 14.8742 21.0395 14.9412 21.15 14.9869C21.2604 15.0327 21.3787 15.0562 21.4983 15.0562H27.6247C27.8661 15.0562 28.0976 14.9603 28.2682 14.7897C28.4389 14.619 28.5348 14.3876 28.5348 14.1463V13.5737H31.817C32.2747 13.5737 32.7138 13.7552 33.0378 14.0785C33.3618 14.4019 33.5443 14.8405 33.5451 15.2981Z" fill="url(#paint2_linear_28_24742)"/>
<path opacity="0.19" d="M27.6758 14.0254C27.4204 14.2665 27.0437 14.4088 26.9172 14.737C26.8126 15.0082 26.9214 15.3096 26.9591 15.5976C27.0428 16.2447 26.769 16.875 26.5873 17.502C26.4079 18.1217 26.3179 18.7639 26.3203 19.409C26.3203 19.7254 26.3395 20.0645 26.1729 20.3298C26.0063 20.5952 25.5633 20.7133 25.3791 20.4563C25.3412 20.3994 25.3129 20.3366 25.2954 20.2704C24.9965 19.3119 25.1765 18.2764 25.164 17.2693C25.1514 16.2622 24.8374 15.1304 23.9432 14.6675C23.7472 16.418 23.4367 18.1537 23.0138 19.8636C22.9234 20.2319 22.7258 20.6798 22.344 20.6714C22.2736 20.1289 22.246 19.5831 22.2184 19.0356L21.9052 12.8082C21.8969 12.6408 21.8902 12.455 21.968 12.306C22.0844 12.0749 22.3549 11.9711 22.6035 11.8991C23.548 11.6184 24.5243 11.4589 25.5089 11.4245C26.1679 11.401 27.1391 11.53 27.6122 12.0624C28.0534 12.5563 28.1857 13.5432 27.6758 14.0254Z" fill="url(#paint3_linear_28_24742)"/>
<path d="M26.0498 47.1891H22.6638C22.3893 47.1891 22.1261 47.0801 21.932 46.886C21.7379 46.692 21.6289 46.4288 21.6289 46.1544C21.6285 46.0183 21.6549 45.8834 21.7067 45.7575C21.7586 45.6317 21.8347 45.5173 21.9309 45.4209C22.027 45.3245 22.1413 45.2481 22.2671 45.196C22.3928 45.1438 22.5277 45.1171 22.6638 45.1172H26.0498C26.1856 45.1172 26.32 45.1439 26.4455 45.1959C26.571 45.2478 26.685 45.324 26.781 45.42C26.877 45.516 26.9532 45.63 27.0051 45.7554C27.0571 45.8808 27.0838 46.0153 27.0838 46.151C27.0844 46.2872 27.058 46.422 27.0063 46.548C26.9546 46.6739 26.8785 46.7883 26.7825 46.8848C26.6864 46.9812 26.5722 47.0578 26.4465 47.11C26.3207 47.1622 26.1859 47.1891 26.0498 47.1891Z" fill="url(#paint4_linear_28_24742)"/>
<path d="M22.6302 6.8393C22.4971 6.61998 21.9897 5.42456 21.8038 4.99762L21.1474 3.5C21.1141 3.56892 21.0968 3.64447 21.0968 3.721C21.0968 3.79754 21.1141 3.87309 21.1474 3.942C20.7109 3.96287 20.2763 4.01236 19.8463 4.09018C19.6981 4.11696 19.5172 4.18226 19.5047 4.33211C19.4954 4.43424 19.5733 4.5213 19.6503 4.5891C19.9118 4.81628 20.2243 4.97684 20.5613 5.05706C20.748 5.10143 20.9624 5.13324 21.0729 5.28978C21.1273 5.38211 21.1594 5.48588 21.1667 5.59282C21.2686 6.28035 21.4098 6.96149 21.5895 7.6329C21.6531 7.87232 21.7528 8.14355 21.988 8.21889C22.1388 8.26828 22.302 8.21889 22.4519 8.16866C22.9074 8.01547 23.3637 7.83381 23.7355 7.52994C24.1817 7.16327 25.745 5.18598 24.9713 4.72053C24.5928 4.492 23.568 5.71169 23.3671 5.96032C23.0614 6.34205 23.002 6.51701 22.6302 6.8393Z" fill="url(#paint5_linear_28_24742)"/>
<path d="M31.6386 9.40497C31.4781 9.49338 31.3005 9.54647 31.1178 9.56068C31.0006 9.57658 30.8809 9.58663 30.762 9.59165C30.0478 9.62095 29.3168 9.45688 28.7659 9.01069C28.4728 8.77294 28.2359 8.46237 27.9093 8.27234C27.6588 8.1394 27.3845 8.05719 27.1022 8.03041C26.8728 7.99944 26.6383 7.9852 26.4097 7.95758C25.899 7.89647 25.338 7.719 25.1011 7.26193C24.9336 6.94716 24.9663 6.56962 25.0173 6.21803C25.1145 5.54832 25.2744 4.87862 25.3029 4.19636C25.3188 3.82802 25.2911 3.44295 25.0935 3.1307C24.9612 2.92309 24.7636 2.76738 24.6087 2.57652C24.175 2.04076 24.4748 1.19191 25.045 0.872962C25.1533 0.823708 25.2563 0.763394 25.3522 0.692979C25.4686 0.59085 25.5323 0.441841 25.6344 0.324643C25.9199 -0.00518565 26.4223 -0.0127198 26.8535 0.00569701L27.5945 0.0375079C27.834 0.0475534 28.1103 0.0785272 28.2375 0.281112C28.3355 0.436818 28.3171 0.662843 28.4611 0.777529C28.5121 0.814102 28.5687 0.842356 28.6286 0.861242C28.8984 0.961989 29.1416 1.12304 29.3397 1.3321C29.5378 1.54117 29.6854 1.79272 29.7715 2.06754C29.985 2.77575 29.7656 3.56014 29.9783 4.26752C29.9938 4.33346 30.0251 4.39465 30.0695 4.44583C30.1326 4.49515 30.2041 4.5326 30.2805 4.55633C30.7461 4.76142 30.8901 5.35746 30.8524 5.86392C30.8315 6.14938 30.7737 6.44991 30.8792 6.71277C30.9554 6.90363 31.1078 7.05264 31.2526 7.1983C31.5582 7.50386 31.8596 7.83787 31.9852 8.25141C32.1108 8.66495 32.0062 9.17811 31.6386 9.40497Z" fill="#3F3D56"/>
<path d="M30.7611 9.59188C30.0469 9.62118 29.3159 9.45711 28.765 9.01092C28.472 8.77317 28.235 8.4626 27.9085 8.27257C27.6579 8.13963 27.3837 8.05742 27.1013 8.03064C26.8007 7.69579 26.5035 7.35508 26.2155 7.00851C25.9927 6.74062 25.7734 6.46354 25.6402 6.14124C25.5071 5.81895 25.4728 5.49163 25.4301 5.15678C25.3171 4.22338 25.2074 3.25566 25.4996 2.36244C25.5364 2.23396 25.5928 2.11196 25.667 2.0008C26.1694 1.30599 27.5024 1.41481 27.9403 2.11298C28.0524 2.31262 28.1302 2.52966 28.1705 2.75506C28.2505 3.1198 28.3031 3.49 28.3279 3.86258C28.348 4.17315 28.3598 4.51219 28.5632 4.74742C28.6905 4.89392 28.8772 4.97847 29.0145 5.1166C29.5403 5.64315 29.1242 6.62343 29.5487 7.2362C29.6581 7.37768 29.7896 7.50063 29.938 7.60035C30.2771 7.85149 30.6414 8.09761 30.8524 8.46343C31.0634 8.82926 31.0659 9.32568 30.7611 9.59188Z" fill="#25233A"/>
<path d="M23.8852 10.0542C23.8852 10.0542 20.7797 10.6226 20.6901 11.4538C20.6005 12.2851 21.2527 19.1688 21.2527 19.1688H21.9636C21.9636 19.1688 23.2405 15.4017 23.0203 14.2942C22.8001 13.1867 22.5765 12.8786 22.5765 12.8786C22.5765 12.8786 23.8701 13.5174 25.0934 12.1085C26.3167 10.6996 25.7707 9.75781 25.7707 9.75781L23.8852 10.0542Z" fill="#3F3D56"/>
<path d="M25.6313 9.88694C25.6313 9.88694 22.6698 10.9802 22.7234 11.8123C22.777 12.6444 24.5997 19.3147 24.5997 19.3147L25.3005 19.1925C25.3005 19.1925 25.9126 15.2646 25.5057 14.2082C25.0988 13.1517 24.8292 12.8922 24.8292 12.8922C24.8292 12.8922 26.5422 13.6791 27.5487 12.1078C28.401 10.7751 26.9894 9.42401 26.1202 9.72119L25.6313 9.88694Z" fill="#25233A"/>
<path d="M23.8854 10.0563V8.30753C23.8854 8.30753 23.3713 7.3532 23.2876 6.8618C23.2391 6.57718 23.5983 5.70406 24.0119 5.36669C24.2999 5.1323 24.5142 4.71457 24.8827 4.70285L26.6904 4.64844L27.5762 7.15982L27.2639 10.0714C27.2639 10.0714 26.5045 9.6779 23.8854 10.0563Z" fill="#68E1FD"/>
<path d="M25.7446 9.65929C25.7237 9.69361 25.6215 9.85183 25.6316 9.89034C25.6416 9.92884 26.113 9.9414 26.2821 9.95814C26.5702 9.98661 26.9754 10.0419 27.2634 10.0737C27.4585 9.11683 27.3614 8.51159 27.5037 7.99508C27.5302 7.93437 27.5436 7.86877 27.5431 7.80254C27.5263 7.68702 27.1136 7.09349 27.0106 7.04912C26.6756 6.9043 26.6757 7.41076 26.6371 7.59828C26.4965 8.33914 26.1356 9.02307 25.7446 9.65929Z" fill="url(#paint6_linear_28_24742)"/>
<path d="M24.5098 1.7393C24.5098 1.7393 24.0912 3.13479 24.3775 3.37421C24.6639 3.61363 24.9134 3.64711 24.972 3.76598C25.0306 3.88486 25.178 4.38964 24.972 4.72115C24.766 5.05265 24.864 5.52395 25.1646 5.3649C25.4651 5.20584 26.1333 4.7178 26.1333 4.7178L26.5185 3.31728C26.5185 3.31728 27.1347 1.84896 27.0392 1.5275C26.9438 1.20604 25.4425 0.34464 24.5098 1.7393Z" fill="url(#paint7_linear_28_24742)"/>
<path d="M26.3241 2.09904C26.3693 2.27484 26.289 2.4657 26.3384 2.64066C26.3995 2.85664 26.6339 2.97551 26.8525 3.0249C27.071 3.07429 27.3079 3.09187 27.4947 3.21828C27.7057 3.36059 27.8346 3.63684 28.0808 3.69126C28.2041 3.70917 28.3298 3.69711 28.4475 3.6561C28.7188 3.58578 29.011 3.50207 29.1818 3.27939C29.2704 3.15664 29.3235 3.01179 29.335 2.86083C29.3953 2.26981 28.9901 1.71229 28.4852 1.39836C27.9803 1.08444 27.3841 0.96222 26.8106 0.812374C26.4924 0.728661 25.7389 0.492591 25.563 0.921201C25.4383 1.22508 25.723 1.77758 26.0788 1.49045C26.0445 1.72652 26.2697 1.88474 26.3241 2.09904Z" fill="#3F3D56"/>
<path d="M20.7914 19.9637C20.7779 19.9894 20.7718 20.0184 20.7738 20.0474C20.7791 20.0667 20.7898 20.0842 20.8046 20.0977C20.8194 20.1112 20.8378 20.1201 20.8575 20.1236C20.8972 20.1296 20.9376 20.1276 20.9764 20.1177C21.2333 20.0784 21.4763 19.9754 21.6831 19.818C21.7857 19.7385 21.8675 19.6354 21.9216 19.5175C21.9756 19.3996 22.0004 19.2703 21.9937 19.1408C21.9937 19.1199 21.2929 19.1408 21.2159 19.196C21.0175 19.3358 20.8818 19.746 20.7914 19.9637Z" fill="url(#paint8_linear_28_24742)"/>
<path d="M20.4899 20.4334L20.7922 19.9688C20.7922 19.9688 21.4871 20.3112 21.889 19.5863C22.095 19.2137 21.9945 19.1484 21.9945 19.1484C21.9945 19.1484 22.2382 19.2029 22.2775 19.6432C22.3009 19.9061 22.3009 20.1705 22.2775 20.4334L22.0959 20.5339L21.9979 20.1354C21.9979 20.1354 21.534 20.7666 21.3925 20.9776C21.3188 21.0872 20.9739 21.1701 20.6633 21.2245C20.6046 21.2344 20.5444 21.228 20.4891 21.206C20.4339 21.184 20.3858 21.1472 20.3501 21.0996C20.3144 21.0521 20.2924 20.9956 20.2867 20.9364C20.2809 20.8773 20.2916 20.8176 20.3175 20.7641C20.3635 20.6687 20.4204 20.5598 20.4899 20.4334Z" fill="url(#paint9_linear_28_24742)"/>
<path d="M24.2454 20.0088C24.2334 20.0349 24.2296 20.0641 24.2345 20.0925C24.2408 20.1103 24.252 20.126 24.2668 20.1377C24.2816 20.1494 24.2995 20.1566 24.3182 20.1586C24.3558 20.1624 24.3938 20.1581 24.4296 20.146C24.6688 20.094 24.8911 19.9826 25.076 19.8221C25.1674 19.7412 25.238 19.6394 25.2817 19.5255C25.3254 19.4115 25.341 19.2887 25.3272 19.1674C25.323 19.149 24.6682 19.2093 24.5987 19.2654C24.4129 19.4119 24.3132 19.8011 24.2454 20.0088Z" fill="url(#paint10_linear_28_24742)"/>
<path d="M23.9841 20.4633L24.2445 20.0062C24.2445 20.0062 24.9143 20.2875 25.2492 19.5826C25.4208 19.2202 25.3229 19.1641 25.3229 19.1641C25.3229 19.1641 25.5548 19.2017 25.6176 19.6128C25.6549 19.8584 25.6703 20.1069 25.6637 20.3553L25.4962 20.4608L25.3807 20.0916C25.3807 20.0916 24.9821 20.7127 24.8607 20.9187C24.7979 21.0258 24.4806 21.1246 24.1909 21.1941C24.1356 21.2079 24.0775 21.2058 24.0233 21.1883C23.9691 21.1707 23.9208 21.1383 23.8841 21.0947C23.8474 21.0511 23.8237 20.9981 23.8156 20.9416C23.8075 20.8852 23.8154 20.8277 23.8384 20.7755C23.8786 20.6918 23.9263 20.5863 23.9841 20.4633Z" fill="url(#paint11_linear_28_24742)"/>
<path d="M26.2313 5.26132C26.2313 5.26132 25.8807 9.43675 27.8723 8.67298C28.2582 8.52505 28.8529 4.18786 28.8349 4.07338C28.8168 3.95889 29.2105 3.41493 29.1249 3.24573C29.058 3.12115 28.9744 3.00623 28.8766 2.90413C28.8766 2.90413 28.2447 2.56837 28.1962 2.6997C28.1476 2.83103 28.3394 3.14901 28.2618 3.22309C28.1842 3.29718 27.8634 3.48872 27.8459 3.61794C27.834 3.76763 27.8397 3.9182 27.8628 4.06659C27.8791 4.10917 27.3896 6.61061 27.3896 6.61061C27.3896 6.61061 27.6747 4.65193 27.059 4.55285C26.4433 4.45378 26.2313 5.26132 26.2313 5.26132Z" fill="url(#paint12_linear_28_24742)"/>
<path d="M10.8965 41.9023C16.4765 41.9023 21 37.3788 21 31.7988C21 26.2188 16.4765 21.6953 10.8965 21.6953C5.31647 21.6953 0.792969 26.2188 0.792969 31.7988C0.792969 37.3788 5.31647 41.9023 10.8965 41.9023Z" fill="#E04F5F"/>
<path d="M15.213 34.7372C14.5884 34.2228 13.8353 33.3502 13.8353 29.5936C13.8353 29.5936 13.8353 29.2629 13.6644 28.8588C13.3962 28.2176 12.6981 27.3892 10.896 27.3892C9.09395 27.3892 8.39589 28.2176 8.12769 28.8588C7.95684 29.2629 7.95684 29.5936 7.95684 29.5936C7.95684 33.3502 7.20367 34.2228 6.57909 34.7372C6.1327 35.1046 5.75244 35.2901 5.75244 36.2068H16.0397C16.0397 35.2901 15.6594 35.1046 15.213 34.7372Z" fill="#FACB1B"/>
<path d="M10.896 36.2068H5.75244C5.75244 35.2901 6.1327 35.1046 6.57909 34.7372C7.20367 34.2228 7.95684 33.3502 7.95684 29.5936C7.95684 29.5936 7.95684 29.2629 8.12769 28.8588C8.39589 28.2176 9.09395 27.3892 10.896 27.3892V36.2068Z" fill="#FBEC9A"/>
<path d="M10.8974 27.3851C11.3032 27.3851 11.6322 27.0561 11.6322 26.6503C11.6322 26.2445 11.3032 25.9155 10.8974 25.9155C10.4916 25.9155 10.1626 26.2445 10.1626 26.6503C10.1626 27.0561 10.4916 27.3851 10.8974 27.3851Z" fill="#FBE158"/>
<path d="M7.96027 29.5392C7.97332 29.3555 8.02714 29.1018 8.12836 28.8623H10.8967V29.5971H7.95752C7.95752 29.5971 7.95752 29.5765 7.96027 29.5392Z" fill="#FACB1B"/>
<path d="M13.8329 29.5392C13.8199 29.3555 13.7661 29.1018 13.6648 28.8623H10.8965V29.5971H13.8357C13.8357 29.5971 13.8357 29.5765 13.8329 29.5392Z" fill="#F3B607"/>
<path d="M15.2134 34.7354H10.8965V36.205H16.0401C16.0401 35.2883 15.6598 35.1028 15.2134 34.7354Z" fill="#F3B607"/>
<path d="M6.57909 34.7354H10.896V36.205H5.75244C5.75244 35.2883 6.1327 35.1028 6.57909 34.7354Z" fill="#FACB1B"/>
<path d="M10.8954 37.6781C11.2851 37.6781 11.6589 37.5233 11.9345 37.2477C12.2102 36.9721 12.365 36.5983 12.365 36.2085H9.42578C9.42578 36.5983 9.58061 36.9721 9.85622 37.2477C10.1318 37.5233 10.5056 37.6781 10.8954 37.6781Z" fill="#FBE158"/>
<defs>
<linearGradient id="paint0_linear_28_24742" x1="7.84777" y1="46.2826" x2="39.2092" y2="46.2826" gradientUnits="userSpaceOnUse">
<stop stop-color="#183866"/>
<stop offset="1" stop-color="#1A7FC1"/>
</linearGradient>
<linearGradient id="paint1_linear_28_24742" x1="24.1108" y1="30.4584" x2="64.087" y2="28.1847" gradientUnits="userSpaceOnUse">
<stop stop-color="#68E1FD"/>
<stop offset="0.3" stop-color="#58A0BA"/>
<stop offset="0.55" stop-color="#4C718A"/>
<stop offset="0.68" stop-color="#485F77"/>
<stop offset="0.69" stop-color="#475C74"/>
<stop offset="0.87" stop-color="#41455E"/>
<stop offset="0.99" stop-color="#3F3D56"/>
</linearGradient>
<linearGradient id="paint2_linear_28_24742" x1="23.532" y1="57.5003" x2="24.7247" y2="1.17411" gradientUnits="userSpaceOnUse">
<stop offset="0.01" stop-opacity="0"/>
<stop offset="0.93" stop-opacity="0.89"/>
<stop offset="0.98"/>
</linearGradient>
<linearGradient id="paint3_linear_28_24742" x1="23.8544" y1="16.0446" x2="29.9591" y2="16.0446" gradientUnits="userSpaceOnUse">
<stop stop-color="#183866"/>
<stop offset="1" stop-color="#1A7FC1"/>
</linearGradient>
<linearGradient id="paint4_linear_28_24742" x1="24.1994" y1="37.7186" x2="24.6555" y2="62.2699" gradientUnits="userSpaceOnUse">
<stop offset="0.01" stop-opacity="0"/>
<stop offset="0.93" stop-opacity="0.89"/>
<stop offset="0.98"/>
</linearGradient>
<linearGradient id="paint5_linear_28_24742" x1="19.508" y1="5.86991" x2="25.1865" y2="5.86991" gradientUnits="userSpaceOnUse">
<stop stop-color="#ECC4D7"/>
<stop offset="0.42" stop-color="#EFD4D1"/>
<stop offset="1" stop-color="#F2EAC9"/>
</linearGradient>
<linearGradient id="paint6_linear_28_24742" x1="23.2788" y1="7.71883" x2="30.6451" y2="9.5394" gradientUnits="userSpaceOnUse">
<stop offset="0.01" stop-opacity="0"/>
<stop offset="0.93" stop-opacity="0.89"/>
<stop offset="0.98"/>
</linearGradient>
<linearGradient id="paint7_linear_28_24742" x1="24.2762" y1="3.18334" x2="27.0518" y2="3.18334" gradientUnits="userSpaceOnUse">
<stop stop-color="#ECC4D7"/>
<stop offset="0.42" stop-color="#EFD4D1"/>
<stop offset="1" stop-color="#F2EAC9"/>
</linearGradient>
<linearGradient id="paint8_linear_28_24742" x1="20.7721" y1="19.633" x2="21.9971" y2="19.633" gradientUnits="userSpaceOnUse">
<stop stop-color="#ECC4D7"/>
<stop offset="0.42" stop-color="#EFD4D1"/>
<stop offset="1" stop-color="#F2EAC9"/>
</linearGradient>
<linearGradient id="paint9_linear_28_24742" x1="20.7185" y1="19.6884" x2="21.8252" y2="20.7174" gradientUnits="userSpaceOnUse">
<stop stop-color="#68E1FD"/>
<stop offset="0.3" stop-color="#58A0BA"/>
<stop offset="0.55" stop-color="#4C718A"/>
<stop offset="0.68" stop-color="#485F77"/>
<stop offset="0.69" stop-color="#475C74"/>
<stop offset="0.87" stop-color="#41455E"/>
<stop offset="0.99" stop-color="#3F3D56"/>
</linearGradient>
<linearGradient id="paint10_linear_28_24742" x1="24.2278" y1="19.6639" x2="25.3305" y2="19.6639" gradientUnits="userSpaceOnUse">
<stop stop-color="#ECC4D7"/>
<stop offset="0.42" stop-color="#EFD4D1"/>
<stop offset="1" stop-color="#F2EAC9"/>
</linearGradient>
<linearGradient id="paint11_linear_28_24742" x1="24.2352" y1="19.8078" x2="25.1971" y2="20.6141" gradientUnits="userSpaceOnUse">
<stop stop-color="#68E1FD"/>
<stop offset="0.3" stop-color="#58A0BA"/>
<stop offset="0.55" stop-color="#4C718A"/>
<stop offset="0.68" stop-color="#485F77"/>
<stop offset="0.69" stop-color="#475C74"/>
<stop offset="0.87" stop-color="#41455E"/>
<stop offset="0.99" stop-color="#3F3D56"/>
</linearGradient>
<linearGradient id="paint12_linear_28_24742" x1="26.3018" y1="5.07062" x2="28.9806" y2="6.22769" gradientUnits="userSpaceOnUse">
<stop stop-color="#ECC4D7"/>
<stop offset="0.42" stop-color="#EFD4D1"/>
<stop offset="1" stop-color="#F2EAC9"/>
</linearGradient>
</defs>
</svg>
