<svg width="31" height="30" viewBox="0 0 31 30" fill="none" xmlns="http://www.w3.org/2000/svg">
<g clip-path="url(#clip0_81_29043)">
<path d="M27.9997 5.33245L24.9163 2.24912C24.6513 1.99643 24.2992 1.85547 23.933 1.85547C23.5668 1.85547 23.2147 1.99643 22.9497 2.24912L20.208 4.99912H5.49967C5.05765 4.99912 4.63372 5.17471 4.32116 5.48728C4.0086 5.79984 3.83301 6.22376 3.83301 6.66579V24.9991C3.83301 25.4411 4.0086 25.8651 4.32116 26.1776C4.63372 26.4902 5.05765 26.6658 5.49967 26.6658H23.833C24.275 26.6658 24.699 26.4902 25.0115 26.1776C25.3241 25.8651 25.4997 25.4411 25.4997 24.9991V9.79912L27.9997 7.29912C28.2602 7.03819 28.4066 6.68453 28.4066 6.31579C28.4066 5.94705 28.2602 5.59338 27.9997 5.33245ZM16.1913 16.7741L12.6997 17.5491L13.533 14.0908L21.4913 6.11579L24.183 8.80745L16.1913 16.7741ZM25.083 7.85745L22.3913 5.16579L23.933 3.62412L26.6247 6.31579L25.083 7.85745Z" fill="black"/>
</g>
<defs>
<clipPath id="clip0_81_29043">
<rect width="30" height="30" fill="white" transform="translate(0.5)"/>
</clipPath>
</defs>
</svg>
