<svg width="51" height="51" viewBox="0 0 51 51" fill="none" xmlns="http://www.w3.org/2000/svg">
<g clip-path="url(#clip0_28_4390)">
<g opacity="0.15" filter="url(#filter0_f_28_4390)">
<path d="M25.2004 47.2015C33.3742 47.2015 40.0004 46.4851 40.0004 45.6015C40.0004 44.7178 33.3742 44.0015 25.2004 44.0015C17.0266 44.0015 10.4004 44.7178 10.4004 45.6015C10.4004 46.4851 17.0266 47.2015 25.2004 47.2015Z" fill="#A7A7A7"/>
</g>
<path d="M11.9132 9.0874C10.3567 9.0874 9.09033 10.3538 9.09033 11.9103C9.09033 13.4668 10.3567 14.7332 11.9132 14.7332C13.4697 14.7332 14.7361 13.4668 14.7361 11.9103C14.7361 10.3538 13.4697 9.0874 11.9132 9.0874Z" fill="url(#paint0_linear_28_4390)"/>
<path d="M37.6866 9.0874C36.1301 9.0874 34.8638 10.3538 34.8638 11.9103C34.8638 13.4668 36.1301 14.7332 37.6866 14.7332C39.2431 14.7332 40.5095 13.4668 40.5095 11.9103C40.5095 10.3538 39.2431 9.0874 37.6866 9.0874Z" fill="url(#paint1_linear_28_4390)"/>
<path d="M37.6866 34.8628C36.1301 34.8628 34.8638 36.1292 34.8638 37.6857C34.8638 39.2422 36.1301 40.5085 37.6866 40.5085C39.2431 40.5085 40.5095 39.2422 40.5095 37.6857C40.5095 36.1292 39.2431 34.8628 37.6866 34.8628Z" fill="url(#paint2_linear_28_4390)"/>
<path d="M11.9127 34.8594C10.3562 34.8594 9.08984 36.1257 9.08984 37.6822C9.08984 39.2387 10.3562 40.5051 11.9127 40.5051C13.4692 40.5051 14.7356 39.2387 14.7356 37.6822C14.7356 36.1257 13.4692 34.8594 11.9127 34.8594Z" fill="url(#paint3_linear_28_4390)"/>
<path d="M23.1311 10.8242C22.6897 10.4709 22.1218 10.3395 21.5711 10.4626C16.0581 11.6987 11.6973 16.0595 10.4611 21.5726C10.3381 22.1226 10.4694 22.6912 10.8228 23.1325C11.1775 23.5753 11.7062 23.8297 12.2734 23.8297H14.527C15.3596 23.8297 16.0952 23.268 16.3166 22.4636C17.134 19.4902 19.4887 17.1355 22.4621 16.318C23.2665 16.0974 23.8282 15.361 23.8282 14.5285V12.2749C23.8282 11.7077 23.5738 11.179 23.1311 10.8242Z" fill="url(#paint4_linear_28_4390)"/>
<path d="M39.1376 21.5726C37.9014 16.0595 33.5406 11.6987 28.0276 10.4626C27.4769 10.3395 26.909 10.4709 26.4676 10.8242C26.0249 11.179 25.7705 11.7077 25.7705 12.2749V14.5285C25.7705 15.361 26.3322 16.0967 27.1366 16.318C30.11 17.1355 32.4647 19.4902 33.2821 22.4636C33.5035 23.268 34.2391 23.8297 35.0717 23.8297H37.3253C37.8925 23.8297 38.4212 23.5753 38.7759 23.1325C39.1293 22.6912 39.2606 22.1226 39.1376 21.5726Z" fill="url(#paint5_linear_28_4390)"/>
<path d="M38.7759 26.471C38.4212 26.0283 37.8925 25.7739 37.3253 25.7739H35.0717C34.2391 25.7739 33.5035 26.3356 33.2821 27.14C32.4647 30.1134 30.11 32.4681 27.1366 33.2856C26.3322 33.5062 25.7705 34.2426 25.7705 35.0751V37.3287C25.7705 37.8959 26.0249 38.4246 26.4676 38.7794C26.8004 39.0454 27.2053 39.1864 27.6206 39.1864C27.756 39.1864 27.8921 39.1712 28.0276 39.141C33.5406 37.9049 37.9014 33.5441 39.1376 28.031C39.2606 27.481 39.1293 26.9124 38.7759 26.471Z" fill="url(#paint6_linear_28_4390)"/>
<path d="M22.4621 33.2856C19.4887 32.4681 17.134 30.1134 16.3166 27.14C16.0952 26.3356 15.3596 25.7739 14.527 25.7739H12.2734C11.7062 25.7739 11.1775 26.0283 10.8228 26.471C10.4694 26.9124 10.3381 27.481 10.4611 28.031C11.6973 33.5441 16.0581 37.9049 21.5711 39.141C21.7066 39.1712 21.8427 39.1864 21.9781 39.1864C22.3934 39.1864 22.7983 39.0461 23.1311 38.7794C23.5738 38.4246 23.8282 37.8959 23.8282 37.3287V35.0751C23.8282 34.2426 23.2665 33.5069 22.4621 33.2856Z" fill="url(#paint7_linear_28_4390)"/>
<path d="M30.7922 25.5884L30.3645 25.3416C30.3817 25.1615 30.3907 24.9807 30.3907 24.7998C30.3907 24.619 30.3817 24.4382 30.3645 24.2581L30.7922 24.0113C31.6838 23.4963 31.9905 22.3523 31.4755 21.4607L31.0307 20.69C30.7812 20.2582 30.379 19.9488 29.897 19.8203C29.4151 19.6917 28.9118 19.7577 28.4801 20.0066L28.0532 20.2534C27.7582 20.0417 27.444 19.8602 27.1133 19.7103V19.2173C27.1133 18.1875 26.276 17.3501 25.2461 17.3501H24.3558C23.3259 17.3501 22.4885 18.1875 22.4885 19.2173V19.7103C22.1578 19.8602 21.8443 20.0417 21.5487 20.2534L21.1218 20.0066C20.69 19.757 20.1868 19.691 19.7049 19.8203C19.2229 19.9495 18.8207 20.2582 18.5712 20.69L18.1263 21.4607C17.6114 22.3523 17.918 23.4963 18.8097 24.0113L19.2374 24.2581C19.2202 24.4382 19.2112 24.619 19.2112 24.7998C19.2112 24.9807 19.2202 25.1615 19.2374 25.3416L18.8097 25.5884C17.918 26.1033 17.6114 27.2473 18.1263 28.139L18.5712 28.9097C19.0861 29.8014 20.2301 30.108 21.1218 29.5931L21.5487 29.3463C21.8437 29.558 22.1578 29.7395 22.4885 29.8894V30.3823C22.4885 31.4122 23.3259 32.2496 24.3558 32.2496H25.2461C26.276 32.2496 27.1133 31.4122 27.1133 30.3823V29.8894C27.444 29.7395 27.7575 29.558 28.0532 29.3463L28.4801 29.5931C29.3718 30.108 30.5158 29.8014 31.0307 28.9097L31.4755 28.139C31.9905 27.2473 31.6838 26.1033 30.7922 25.5884ZM25.8367 24.7992C25.8367 25.3705 25.3719 25.8345 24.8013 25.8345C24.2307 25.8345 23.7659 25.3698 23.7659 24.7992C23.7659 24.2285 24.2307 23.7638 24.8013 23.7638C25.3719 23.7638 25.8367 24.2285 25.8367 24.7992Z" fill="url(#paint8_linear_28_4390)"/>
</g>
<defs>
<filter id="filter0_f_28_4390" x="7.20039" y="40.8015" width="36.0001" height="9.6002" filterUnits="userSpaceOnUse" color-interpolation-filters="sRGB">
<feFlood flood-opacity="0" result="BackgroundImageFix"/>
<feBlend mode="normal" in="SourceGraphic" in2="BackgroundImageFix" result="shape"/>
<feGaussianBlur stdDeviation="1.6" result="effect1_foregroundBlur_28_4390"/>
</filter>
<linearGradient id="paint0_linear_28_4390" x1="11.9132" y1="14.7332" x2="11.9132" y2="9.0874" gradientUnits="userSpaceOnUse">
<stop stop-color="#FF9500"/>
<stop offset="1" stop-color="#FFCC1E"/>
</linearGradient>
<linearGradient id="paint1_linear_28_4390" x1="37.6866" y1="14.7332" x2="37.6866" y2="9.0874" gradientUnits="userSpaceOnUse">
<stop stop-color="#0068C0"/>
<stop offset="1" stop-color="#00AEFF"/>
</linearGradient>
<linearGradient id="paint2_linear_28_4390" x1="37.6866" y1="40.5085" x2="37.6866" y2="34.8628" gradientUnits="userSpaceOnUse">
<stop stop-color="#FF9500"/>
<stop offset="1" stop-color="#FFCC1E"/>
</linearGradient>
<linearGradient id="paint3_linear_28_4390" x1="11.9127" y1="40.5051" x2="11.9127" y2="34.8594" gradientUnits="userSpaceOnUse">
<stop stop-color="#62D154"/>
<stop offset="1" stop-color="#9DED93"/>
</linearGradient>
<linearGradient id="paint4_linear_28_4390" x1="17.1223" y1="23.8297" x2="17.1223" y2="10.4179" gradientUnits="userSpaceOnUse">
<stop stop-color="#FFBD00"/>
<stop offset="1" stop-color="#FFF065"/>
</linearGradient>
<linearGradient id="paint5_linear_28_4390" x1="32.4764" y1="23.8297" x2="32.4764" y2="10.4179" gradientUnits="userSpaceOnUse">
<stop stop-color="#0068C0"/>
<stop offset="1" stop-color="#00AEFF"/>
</linearGradient>
<linearGradient id="paint6_linear_28_4390" x1="32.4764" y1="39.1857" x2="32.4764" y2="25.7739" gradientUnits="userSpaceOnUse">
<stop stop-color="#FFBD00"/>
<stop offset="1" stop-color="#FFF065"/>
</linearGradient>
<linearGradient id="paint7_linear_28_4390" x1="17.1223" y1="39.1857" x2="17.1223" y2="25.7739" gradientUnits="userSpaceOnUse">
<stop stop-color="#4CA342"/>
<stop offset="1" stop-color="#54CC46"/>
</linearGradient>
<linearGradient id="paint8_linear_28_4390" x1="24.8006" y1="32.2496" x2="24.8006" y2="17.3487" gradientUnits="userSpaceOnUse">
<stop stop-color="#999999"/>
<stop offset="1" stop-color="#CCCCCC"/>
</linearGradient>
<clipPath id="clip0_28_4390">
<rect width="50.4" height="50.4" fill="white" transform="translate(-0.000488281)"/>
</clipPath>
</defs>
</svg>
