<svg width="30" height="30" viewBox="0 0 30 30" fill="none" xmlns="http://www.w3.org/2000/svg">
<g id="typcn:location">
<path id="Vector" d="M22.0712 6.63094C18.1662 2.78969 11.8349 2.78969 7.92993 6.63094C7.00279 7.53673 6.26607 8.61873 5.76308 9.81332C5.26009 11.0079 5.00098 12.291 5.00098 13.5872C5.00098 14.8834 5.26009 16.1665 5.76308 17.3611C6.26607 18.5556 7.00279 19.6376 7.92993 20.5434L14.9999 27.4997L22.0712 20.5434C22.9983 19.6376 23.7351 18.5556 24.238 17.3611C24.741 16.1665 25.0001 14.8834 25.0001 13.5872C25.0001 12.291 24.741 11.0079 24.238 9.81332C23.7351 8.61873 22.9983 7.53673 22.0712 6.63094ZM14.9999 16.8747C14.1649 16.8747 13.3812 16.5497 12.7899 15.9597C12.2046 15.3731 11.8759 14.5783 11.8759 13.7497C11.8759 12.921 12.2046 12.1262 12.7899 11.5397C13.3799 10.9497 14.1649 10.6247 14.9999 10.6247C15.8349 10.6247 16.6199 10.9497 17.2099 11.5397C17.7952 12.1262 18.124 12.921 18.124 13.7497C18.124 14.5783 17.7952 15.3731 17.2099 15.9597C16.6199 16.5497 15.8349 16.8747 14.9999 16.8747Z" fill="white"/>
</g>
</svg>
