<svg width="50" height="48" viewBox="0 0 50 48" fill="none" xmlns="http://www.w3.org/2000/svg">
<path d="M24.3538 47.2767C24.3538 47.2767 23.1471 44.6167 25.1071 42.7634C27.0671 40.9134 27.4171 41.0734 28.1438 39.5667C28.8738 38.06 29.5238 36.39 30.9304 36.0167C32.3371 35.64 33.5804 36.2167 34.6604 36.1234C36.0071 36.0067 36.3804 35.1234 38.2138 34.7767C39.9838 34.4467 41.2271 35.8 41.9804 37.2534C42.7338 38.7067 42.2804 38.75 44.4371 39.2334C46.5971 39.7167 47.1971 41.2967 47.3638 42.7634C47.5271 44.1767 49.9071 43.5467 48.7538 47.2767H24.3538Z" fill="#006B27"/>
<path d="M39.6828 35.7969L36.9395 47.2735" stroke="white" stroke-width="0.0625" stroke-miterlimit="10"/>
<path d="M44.9238 40.7344L38.1738 47.2744" stroke="white" stroke-width="0.0625" stroke-miterlimit="10"/>
<path d="M48.0799 44.9453L39.3633 47.2786" stroke="white" stroke-width="0.0625" stroke-miterlimit="10"/>
<path d="M30.9824 37.1484L36.0324 47.2751" stroke="white" stroke-width="0.0625" stroke-miterlimit="10"/>
<path d="M26.373 43.3594L34.8264 47.2794" stroke="white" stroke-width="0.0625" stroke-miterlimit="10"/>
<path d="M42.4267 16.4002C46.3902 16.4002 49.6033 13.1871 49.6033 9.22354C49.6033 5.25998 46.3902 2.04688 42.4267 2.04688C38.4631 2.04688 35.25 5.25998 35.25 9.22354C35.25 13.1871 38.4631 16.4002 42.4267 16.4002Z" fill="#FFC000"/>
<path d="M39.213 47.4603H37.043L41.623 7.82031H43.793C44.413 7.82031 44.8563 8.32031 44.783 8.94031L40.4596 46.3403C40.3896 46.9603 39.833 47.4603 39.213 47.4603Z" fill="#006AD3"/>
<path d="M20.5228 47.4603H36.8061C37.4528 47.4603 38.0361 46.937 38.1128 46.2903L42.4228 8.99031C42.4995 8.34365 42.0328 7.82031 41.3861 7.82031H25.1028C24.4561 7.82031 23.8728 8.34365 23.7961 8.99031L19.4861 46.2903C19.4128 46.937 19.8761 47.4603 20.5228 47.4603Z" fill="#2E3744"/>
<path d="M20.6602 45.3265H37.1602L41.2468 9.95312H24.7468L20.6602 45.3265Z" fill="white"/>
<path d="M41.7925 25.1527C42.0825 25.1527 42.3458 24.916 42.3791 24.626L43.3591 16.136C43.3925 15.846 43.1825 15.6094 42.8925 15.6094C42.6025 15.6094 42.3391 15.846 42.3058 16.136L41.3258 24.626C41.2925 24.916 41.4991 25.1527 41.7925 25.1527Z" stroke="white" stroke-width="0.053" stroke-miterlimit="10"/>
<path d="M42.6264 16.1364C42.6131 16.253 42.6964 16.343 42.8097 16.343C42.9231 16.343 43.0297 16.2497 43.0397 16.1364C43.0531 16.0197 42.9697 15.9297 42.8564 15.9297C42.7431 15.9297 42.6397 16.0197 42.6264 16.1364Z" stroke="white" stroke-width="0.053" stroke-miterlimit="10"/>
<path d="M32.1731 9.06958H35.1331C35.2497 9.06958 35.3531 8.97625 35.3631 8.86292C35.3764 8.74625 35.2931 8.65625 35.1797 8.65625H32.2197C32.1031 8.65625 31.9997 8.74958 31.9897 8.86292C31.9764 8.97958 32.0564 9.06958 32.1731 9.06958Z" fill="#006AD3"/>
<path d="M30.8834 8.86448C30.8601 9.06115 31.0001 9.22115 31.1967 9.22115C31.3934 9.22115 31.5701 9.06115 31.5934 8.86448C31.6167 8.66781 31.4767 8.50781 31.2801 8.50781C31.0834 8.50781 30.9034 8.66781 30.8834 8.86448Z" fill="#006AD3"/>
<path d="M12.2704 47.3997C12.2704 47.3997 11.7737 46.3797 12.5804 45.6731C13.3837 44.9631 13.5271 45.0264 13.8271 44.4497C14.1271 43.8731 14.3937 43.2331 14.9704 43.0897C15.5471 42.9464 16.0571 43.1664 16.5004 43.1297C17.0504 43.0831 17.2071 42.7464 17.9571 42.6131C18.6837 42.4864 19.1937 43.0031 19.5037 43.5597C19.8137 44.1164 19.6271 44.1331 20.5137 44.3197C21.4004 44.5064 21.6437 45.1097 21.7137 45.6697C21.7804 46.2097 22.7571 45.9697 22.2837 47.3964L12.2704 47.3997Z" fill="#006B27"/>
<path d="M18.5608 43.0078L17.4375 47.4011" stroke="white" stroke-width="0.0625" stroke-miterlimit="10"/>
<path d="M20.7095 44.8984L17.9395 47.4018" stroke="white" stroke-width="0.0625" stroke-miterlimit="10"/>
<path d="M22.0064 46.5078L18.4297 47.4011" stroke="white" stroke-width="0.0625" stroke-miterlimit="10"/>
<path d="M14.9941 43.5234L17.0641 47.4001" stroke="white" stroke-width="0.0625" stroke-miterlimit="10"/>
<path d="M13.0996 45.8984L16.5663 47.3984" stroke="white" stroke-width="0.0625" stroke-miterlimit="10"/>
<g filter="url(#filter0_d_6_74042)">
<path d="M15.8965 40.793C24.1236 40.793 30.793 34.1236 30.793 25.8965C30.793 17.6694 24.1236 11 15.8965 11C7.66938 11 1 17.6694 1 25.8965C1 34.1236 7.66938 40.793 15.8965 40.793Z" fill="#4D67DF"/>
</g>
<path d="M22.261 30.2376C21.3402 29.4792 20.2297 28.1927 20.2297 22.654C20.2297 22.654 20.2297 22.1664 19.9778 21.5706C19.5824 20.6253 18.5532 19.4038 15.8962 19.4038C13.2392 19.4038 12.21 20.6253 11.8145 21.5706C11.5626 22.1664 11.5626 22.654 11.5626 22.654C11.5626 28.1927 10.4522 29.4792 9.5313 30.2376C8.87315 30.7793 8.3125 31.0529 8.3125 32.4044H23.4798C23.4798 31.0529 22.9192 30.7793 22.261 30.2376Z" fill="#FACB1B"/>
<path d="M15.8962 32.4044H8.3125C8.3125 31.0529 8.87315 30.7793 9.5313 30.2376C10.4522 29.4792 11.5626 28.1927 11.5626 22.654C11.5626 22.654 11.5626 22.1664 11.8145 21.5706C12.21 20.6253 13.2392 19.4038 15.8962 19.4038V32.4044Z" fill="#FBEC9A"/>
<path d="M15.8983 19.388C16.4967 19.388 16.9817 18.9029 16.9817 18.3046C16.9817 17.7062 16.4967 17.2212 15.8983 17.2212C15.3 17.2212 14.8149 17.7062 14.8149 18.3046C14.8149 18.9029 15.3 19.388 15.8983 19.388Z" fill="#FBE158"/>
<path d="M11.5666 22.5557C11.5858 22.2848 11.6652 21.9108 11.8144 21.5576H15.896V22.641H11.5625C11.5625 22.641 11.5625 22.6107 11.5666 22.5557Z" fill="#FACB1B"/>
<path d="M20.2259 22.5557C20.2067 22.2848 20.1274 21.9108 19.9781 21.5576H15.8965V22.641H20.23C20.23 22.641 20.23 22.6107 20.2259 22.5557Z" fill="#F3B607"/>
<path d="M22.2613 30.2212H15.8965V32.388H23.4801C23.4801 31.0364 22.9195 30.7629 22.2613 30.2212Z" fill="#F3B607"/>
<path d="M9.5313 30.2212H15.8962V32.388H8.3125C8.3125 31.0364 8.87315 30.7629 9.5313 30.2212Z" fill="#FACB1B"/>
<path d="M15.8948 34.5706C16.4694 34.5706 17.0206 34.3423 17.4269 33.9359C17.8333 33.5296 18.0616 32.9785 18.0616 32.4038H13.728C13.728 32.9785 13.9563 33.5296 14.3627 33.9359C14.769 34.3423 15.3201 34.5706 15.8948 34.5706Z" fill="#FBE158"/>
<defs>
<filter id="filter0_d_6_74042" x="0" y="11" width="33.793" height="33.793" filterUnits="userSpaceOnUse" color-interpolation-filters="sRGB">
<feFlood flood-opacity="0" result="BackgroundImageFix"/>
<feColorMatrix in="SourceAlpha" type="matrix" values="0 0 0 0 0 0 0 0 0 0 0 0 0 0 0 0 0 0 127 0" result="hardAlpha"/>
<feOffset dx="1" dy="2"/>
<feGaussianBlur stdDeviation="1"/>
<feComposite in2="hardAlpha" operator="out"/>
<feColorMatrix type="matrix" values="0 0 0 0 0 0 0 0 0 0 0 0 0 0 0 0 0 0 0.25 0"/>
<feBlend mode="normal" in2="BackgroundImageFix" result="effect1_dropShadow_6_74042"/>
<feBlend mode="normal" in="SourceGraphic" in2="effect1_dropShadow_6_74042" result="shape"/>
</filter>
</defs>
</svg>
