<svg width="50" height="50" viewBox="0 0 50 50" fill="none" xmlns="http://www.w3.org/2000/svg">
<rect x="0.5" y="0.5" width="49" height="49" rx="24.5" fill="white"/>
<rect x="0.5" y="0.5" width="49" height="49" rx="24.5" stroke="#F4F4F4"/>
<g opacity="0.15" filter="url(#filter0_f_205_8396)">
<path d="M25.0961 41.7488C30.9345 41.7488 35.6675 41.0382 35.6675 40.1615C35.6675 39.2849 30.9345 38.5742 25.0961 38.5742C19.2576 38.5742 14.5247 39.2849 14.5247 40.1615C14.5247 41.0382 19.2576 41.7488 25.0961 41.7488Z" fill="#6FABE6"/>
</g>
<path d="M32.5767 13.838C28.3925 9.679 21.6088 9.679 17.4247 13.838C16.4313 14.8187 15.6419 15.9902 15.1029 17.2836C14.564 18.5771 14.2864 19.9663 14.2864 21.3697C14.2864 22.7731 14.564 24.1623 15.1029 25.4557C15.6419 26.7491 16.4313 27.9206 17.4247 28.9014L25 36.433L32.5767 28.9014C33.5701 27.9206 34.3594 26.7491 34.8984 25.4557C35.4373 24.1623 35.7149 22.7731 35.7149 21.3697C35.7149 19.9663 35.4373 18.5771 34.8984 17.2836C34.3594 15.9902 33.5701 14.8187 32.5767 13.838ZM25 24.9291C24.1053 24.9291 23.2655 24.5772 22.632 23.9384C22.0049 23.3034 21.6527 22.4428 21.6527 21.5456C21.6527 20.6484 22.0049 19.7879 22.632 19.1528C23.2642 18.514 24.1053 18.1621 25 18.1621C25.8947 18.1621 26.7358 18.514 27.368 19.1528C27.9951 19.7879 28.3473 20.6484 28.3473 21.5456C28.3473 22.4428 27.9951 23.3034 27.368 23.9384C26.7358 24.5772 25.8947 24.9291 25 24.9291Z" fill="url(#paint0_linear_205_8396)"/>
<path d="M32.5767 13.838C28.3925 9.679 21.6088 9.679 17.4247 13.838C16.4313 14.8187 15.6419 15.9902 15.1029 17.2836C14.564 18.5771 14.2864 19.9663 14.2864 21.3697C14.2864 22.7731 14.564 24.1623 15.1029 25.4557C15.6419 26.7491 16.4313 27.9206 17.4247 28.9014L25 36.433L32.5767 28.9014C33.5701 27.9206 34.3594 26.7491 34.8984 25.4557C35.4373 24.1623 35.7149 22.7731 35.7149 21.3697C35.7149 19.9663 35.4373 18.5771 34.8984 17.2836C34.3594 15.9902 33.5701 14.8187 32.5767 13.838ZM25 24.9291C24.1053 24.9291 23.2655 24.5772 22.632 23.9384C22.0049 23.3034 21.6527 22.4428 21.6527 21.5456C21.6527 20.6484 22.0049 19.7879 22.632 19.1528C23.2642 18.514 24.1053 18.1621 25 18.1621C25.8947 18.1621 26.7358 18.514 27.368 19.1528C27.9951 19.7879 28.3473 20.6484 28.3473 21.5456C28.3473 22.4428 27.9951 23.3034 27.368 23.9384C26.7358 24.5772 25.8947 24.9291 25 24.9291Z" fill="url(#paint1_linear_205_8396)" fill-opacity="0.3"/>
<defs>
<filter id="filter0_f_205_8396" x="12.2389" y="36.2885" width="25.7143" height="7.74721" filterUnits="userSpaceOnUse" color-interpolation-filters="sRGB">
<feFlood flood-opacity="0" result="BackgroundImageFix"/>
<feBlend mode="normal" in="SourceGraphic" in2="BackgroundImageFix" result="shape"/>
<feGaussianBlur stdDeviation="1.14286" result="effect1_foregroundBlur_205_8396"/>
</filter>
<linearGradient id="paint0_linear_205_8396" x1="25.0007" y1="10.7188" x2="25.0007" y2="36.433" gradientUnits="userSpaceOnUse">
<stop stop-color="#99ABFF"/>
<stop offset="1" stop-color="#3851C3"/>
</linearGradient>
<linearGradient id="paint1_linear_205_8396" x1="22.1874" y1="22.4933" x2="35.5101" y2="15.3019" gradientUnits="userSpaceOnUse">
<stop stop-color="white" stop-opacity="0"/>
<stop offset="1" stop-color="white"/>
</linearGradient>
</defs>
</svg>
