<svg width="51" height="51" viewBox="0 0 51 51" fill="none" xmlns="http://www.w3.org/2000/svg">
<g clip-path="url(#clip0_28_4294)">
<g opacity="0.15" filter="url(#filter0_f_28_4294)">
<path d="M25.2004 47.1985C33.3742 47.1985 40.0004 46.4822 40.0004 45.5985C40.0004 44.7149 33.3742 43.9985 25.2004 43.9985C17.0266 43.9985 10.4004 44.7149 10.4004 45.5985C10.4004 46.4822 17.0266 47.1985 25.2004 47.1985Z" fill="#BC9360"/>
</g>
<path d="M24.7998 6.53086C24.623 6.53086 24.4534 6.46062 24.3284 6.3356C24.2034 6.21058 24.1331 6.04101 24.1331 5.8642V3.86686C24.1331 3.69005 24.2034 3.52048 24.3284 3.39546C24.4534 3.27043 24.623 3.2002 24.7998 3.2002C24.9766 3.2002 25.1462 3.27043 25.2712 3.39546C25.3962 3.52048 25.4665 3.69005 25.4665 3.86686V5.8642C25.4665 6.04101 25.3962 6.21058 25.2712 6.3356C25.1462 6.46062 24.9766 6.53086 24.7998 6.53086ZM37.0585 11.6082C36.9265 11.6085 36.7974 11.5696 36.6876 11.4964C36.5778 11.4232 36.4922 11.319 36.4417 11.197C36.3912 11.0751 36.3781 10.9409 36.4039 10.8115C36.4298 10.6821 36.4936 10.5633 36.5871 10.4702L37.9991 9.0582C38.061 8.9963 38.1345 8.9472 38.2154 8.9137C38.2963 8.8802 38.3829 8.86296 38.4705 8.86296C38.558 8.86296 38.6447 8.8802 38.7256 8.9137C38.8064 8.9472 38.8799 8.9963 38.9418 9.0582C39.0037 9.12009 39.0528 9.19357 39.0863 9.27444C39.1198 9.35532 39.137 9.44199 39.137 9.52953C39.137 9.61706 39.1198 9.70374 39.0863 9.78461C39.0528 9.86548 39.0037 9.93897 38.9418 10.0009L37.5298 11.4129C37.468 11.4749 37.3946 11.5241 37.3137 11.5577C37.2328 11.5912 37.146 11.6084 37.0585 11.6082ZM44.1331 23.8669H42.1358C41.959 23.8669 41.7894 23.7966 41.6644 23.6716C41.5394 23.5466 41.4691 23.377 41.4691 23.2002C41.4691 23.0234 41.5394 22.8538 41.6644 22.7288C41.7894 22.6038 41.959 22.5335 42.1358 22.5335H44.1331C44.31 22.5335 44.4795 22.6038 44.6045 22.7288C44.7296 22.8538 44.7998 23.0234 44.7998 23.2002C44.7998 23.377 44.7296 23.5466 44.6045 23.6716C44.4795 23.7966 44.31 23.8669 44.1331 23.8669ZM38.4705 37.5375C38.3829 37.5376 38.2962 37.5204 38.2153 37.4869C38.1344 37.4534 38.061 37.4042 37.9991 37.3422L36.5871 35.9302C36.5252 35.8683 36.4761 35.7948 36.4426 35.7139C36.4091 35.6331 36.3919 35.5464 36.3919 35.4589C36.3919 35.3713 36.4091 35.2847 36.4426 35.2038C36.4761 35.1229 36.5252 35.0494 36.5871 34.9875C36.649 34.9256 36.7225 34.8765 36.8034 34.843C36.8843 34.8095 36.9709 34.7923 37.0585 34.7923C37.146 34.7923 37.2327 34.8095 37.3136 34.843C37.3944 34.8765 37.4679 34.9256 37.5298 34.9875L38.9418 36.3995C39.0353 36.4926 39.0991 36.6114 39.125 36.7408C39.1509 36.8703 39.1378 37.0044 39.0873 37.1264C39.0368 37.2483 38.9512 37.3525 38.8414 37.4257C38.7315 37.4989 38.6024 37.5378 38.4705 37.5375ZM24.7998 43.2002C24.623 43.2002 24.4534 43.13 24.3284 43.0049C24.2034 42.8799 24.1331 42.7103 24.1331 42.5335V40.5362C24.1331 40.3594 24.2034 40.1898 24.3284 40.0648C24.4534 39.9398 24.623 39.8695 24.7998 39.8695C24.9766 39.8695 25.1462 39.9398 25.2712 40.0648C25.3962 40.1898 25.4665 40.3594 25.4665 40.5362V42.5335C25.4665 42.7103 25.3962 42.8799 25.2712 43.0049C25.1462 43.13 24.9766 43.2002 24.7998 43.2002ZM11.1291 37.5375C10.9972 37.5378 10.8681 37.4989 10.7583 37.4257C10.6484 37.3525 10.5629 37.2483 10.5124 37.1264C10.4619 37.0044 10.4487 36.8703 10.4746 36.7408C10.5005 36.6114 10.5643 36.4926 10.6578 36.3995L12.0698 34.9875C12.1317 34.9256 12.2052 34.8765 12.2861 34.843C12.3669 34.8095 12.4536 34.7923 12.5411 34.7923C12.6287 34.7923 12.7154 34.8095 12.7962 34.843C12.8771 34.8765 12.9506 34.9256 13.0125 34.9875C13.0744 35.0494 13.1235 35.1229 13.157 35.2038C13.1905 35.2847 13.2077 35.3713 13.2077 35.4589C13.2077 35.5464 13.1905 35.6331 13.157 35.7139C13.1235 35.7948 13.0744 35.8683 13.0125 35.9302L11.6005 37.3422C11.5386 37.4042 11.4652 37.4534 11.3843 37.4869C11.3034 37.5204 11.2167 37.5376 11.1291 37.5375ZM7.4638 23.8669H5.46647C5.28966 23.8669 5.12009 23.7966 4.99507 23.6716C4.87004 23.5466 4.7998 23.377 4.7998 23.2002C4.7998 23.0234 4.87004 22.8538 4.99507 22.7288C5.12009 22.6038 5.28966 22.5335 5.46647 22.5335H7.4638C7.64062 22.5335 7.81019 22.6038 7.93521 22.7288C8.06023 22.8538 8.13047 23.0234 8.13047 23.2002C8.13047 23.377 8.06023 23.5466 7.93521 23.6716C7.81019 23.7966 7.64062 23.8669 7.4638 23.8669ZM12.5411 11.6082C12.4536 11.6083 12.3669 11.5911 12.286 11.5576C12.2051 11.524 12.1316 11.4749 12.0698 11.4129L10.6578 10.0009C10.5959 9.93897 10.5468 9.86548 10.5133 9.78461C10.4798 9.70374 10.4626 9.61706 10.4626 9.52953C10.4626 9.44199 10.4798 9.35532 10.5133 9.27444C10.5468 9.19357 10.5959 9.12009 10.6578 9.0582C10.7197 8.9963 10.7932 8.9472 10.8741 8.9137C10.9549 8.8802 11.0416 8.86296 11.1291 8.86296C11.2167 8.86296 11.3034 8.8802 11.3842 8.9137C11.4651 8.9472 11.5386 8.9963 11.6005 9.0582L13.0125 10.4702C13.106 10.5633 13.1698 10.6821 13.1957 10.8115C13.2216 10.9409 13.2084 11.0751 13.1579 11.197C13.1074 11.319 13.0218 11.4232 12.912 11.4964C12.8022 11.5696 12.6731 11.6085 12.5411 11.6082Z" fill="#FBB83B"/>
<path d="M24.7998 6.53086C24.623 6.53086 24.4534 6.46062 24.3284 6.3356C24.2034 6.21058 24.1331 6.04101 24.1331 5.8642V3.86686C24.1331 3.69005 24.2034 3.52048 24.3284 3.39546C24.4534 3.27043 24.623 3.2002 24.7998 3.2002C24.9766 3.2002 25.1462 3.27043 25.2712 3.39546C25.3962 3.52048 25.4665 3.69005 25.4665 3.86686V5.8642C25.4665 6.04101 25.3962 6.21058 25.2712 6.3356C25.1462 6.46062 24.9766 6.53086 24.7998 6.53086ZM37.0585 11.6082C36.9265 11.6085 36.7974 11.5696 36.6876 11.4964C36.5778 11.4232 36.4922 11.319 36.4417 11.197C36.3912 11.0751 36.3781 10.9409 36.4039 10.8115C36.4298 10.6821 36.4936 10.5633 36.5871 10.4702L37.9991 9.0582C38.061 8.9963 38.1345 8.9472 38.2154 8.9137C38.2963 8.8802 38.3829 8.86296 38.4705 8.86296C38.558 8.86296 38.6447 8.8802 38.7256 8.9137C38.8064 8.9472 38.8799 8.9963 38.9418 9.0582C39.0037 9.12009 39.0528 9.19357 39.0863 9.27444C39.1198 9.35532 39.137 9.44199 39.137 9.52953C39.137 9.61706 39.1198 9.70374 39.0863 9.78461C39.0528 9.86548 39.0037 9.93897 38.9418 10.0009L37.5298 11.4129C37.468 11.4749 37.3946 11.5241 37.3137 11.5577C37.2328 11.5912 37.146 11.6084 37.0585 11.6082ZM44.1331 23.8669H42.1358C41.959 23.8669 41.7894 23.7966 41.6644 23.6716C41.5394 23.5466 41.4691 23.377 41.4691 23.2002C41.4691 23.0234 41.5394 22.8538 41.6644 22.7288C41.7894 22.6038 41.959 22.5335 42.1358 22.5335H44.1331C44.31 22.5335 44.4795 22.6038 44.6045 22.7288C44.7296 22.8538 44.7998 23.0234 44.7998 23.2002C44.7998 23.377 44.7296 23.5466 44.6045 23.6716C44.4795 23.7966 44.31 23.8669 44.1331 23.8669ZM38.4705 37.5375C38.3829 37.5376 38.2962 37.5204 38.2153 37.4869C38.1344 37.4534 38.061 37.4042 37.9991 37.3422L36.5871 35.9302C36.5252 35.8683 36.4761 35.7948 36.4426 35.7139C36.4091 35.6331 36.3919 35.5464 36.3919 35.4589C36.3919 35.3713 36.4091 35.2847 36.4426 35.2038C36.4761 35.1229 36.5252 35.0494 36.5871 34.9875C36.649 34.9256 36.7225 34.8765 36.8034 34.843C36.8843 34.8095 36.9709 34.7923 37.0585 34.7923C37.146 34.7923 37.2327 34.8095 37.3136 34.843C37.3944 34.8765 37.4679 34.9256 37.5298 34.9875L38.9418 36.3995C39.0353 36.4926 39.0991 36.6114 39.125 36.7408C39.1509 36.8703 39.1378 37.0044 39.0873 37.1264C39.0368 37.2483 38.9512 37.3525 38.8414 37.4257C38.7315 37.4989 38.6024 37.5378 38.4705 37.5375ZM24.7998 43.2002C24.623 43.2002 24.4534 43.13 24.3284 43.0049C24.2034 42.8799 24.1331 42.7103 24.1331 42.5335V40.5362C24.1331 40.3594 24.2034 40.1898 24.3284 40.0648C24.4534 39.9398 24.623 39.8695 24.7998 39.8695C24.9766 39.8695 25.1462 39.9398 25.2712 40.0648C25.3962 40.1898 25.4665 40.3594 25.4665 40.5362V42.5335C25.4665 42.7103 25.3962 42.8799 25.2712 43.0049C25.1462 43.13 24.9766 43.2002 24.7998 43.2002ZM11.1291 37.5375C10.9972 37.5378 10.8681 37.4989 10.7583 37.4257C10.6484 37.3525 10.5629 37.2483 10.5124 37.1264C10.4619 37.0044 10.4487 36.8703 10.4746 36.7408C10.5005 36.6114 10.5643 36.4926 10.6578 36.3995L12.0698 34.9875C12.1317 34.9256 12.2052 34.8765 12.2861 34.843C12.3669 34.8095 12.4536 34.7923 12.5411 34.7923C12.6287 34.7923 12.7154 34.8095 12.7962 34.843C12.8771 34.8765 12.9506 34.9256 13.0125 34.9875C13.0744 35.0494 13.1235 35.1229 13.157 35.2038C13.1905 35.2847 13.2077 35.3713 13.2077 35.4589C13.2077 35.5464 13.1905 35.6331 13.157 35.7139C13.1235 35.7948 13.0744 35.8683 13.0125 35.9302L11.6005 37.3422C11.5386 37.4042 11.4652 37.4534 11.3843 37.4869C11.3034 37.5204 11.2167 37.5376 11.1291 37.5375ZM7.4638 23.8669H5.46647C5.28966 23.8669 5.12009 23.7966 4.99507 23.6716C4.87004 23.5466 4.7998 23.377 4.7998 23.2002C4.7998 23.0234 4.87004 22.8538 4.99507 22.7288C5.12009 22.6038 5.28966 22.5335 5.46647 22.5335H7.4638C7.64062 22.5335 7.81019 22.6038 7.93521 22.7288C8.06023 22.8538 8.13047 23.0234 8.13047 23.2002C8.13047 23.377 8.06023 23.5466 7.93521 23.6716C7.81019 23.7966 7.64062 23.8669 7.4638 23.8669ZM12.5411 11.6082C12.4536 11.6083 12.3669 11.5911 12.286 11.5576C12.2051 11.524 12.1316 11.4749 12.0698 11.4129L10.6578 10.0009C10.5959 9.93897 10.5468 9.86548 10.5133 9.78461C10.4798 9.70374 10.4626 9.61706 10.4626 9.52953C10.4626 9.44199 10.4798 9.35532 10.5133 9.27444C10.5468 9.19357 10.5959 9.12009 10.6578 9.0582C10.7197 8.9963 10.7932 8.9472 10.8741 8.9137C10.9549 8.8802 11.0416 8.86296 11.1291 8.86296C11.2167 8.86296 11.3034 8.8802 11.3842 8.9137C11.4651 8.9472 11.5386 8.9963 11.6005 9.0582L13.0125 10.4702C13.106 10.5633 13.1698 10.6821 13.1957 10.8115C13.2216 10.9409 13.2084 11.0751 13.1579 11.197C13.1074 11.319 13.0218 11.4232 12.912 11.4964C12.8022 11.5696 12.6731 11.6085 12.5411 11.6082ZM31.4278 7.8482C31.3181 7.84822 31.2102 7.8212 31.1134 7.76951C31.0167 7.71782 30.9342 7.64307 30.8733 7.55188C30.8124 7.4607 30.7749 7.35589 30.7642 7.24675C30.7534 7.1376 30.7698 7.0275 30.8118 6.9262L31.5758 5.08086C31.6092 4.99997 31.6583 4.92645 31.7202 4.86451C31.782 4.80258 31.8555 4.75343 31.9363 4.71987C32.0172 4.68632 32.1038 4.66902 32.1914 4.66896C32.2789 4.6689 32.3656 4.68609 32.4465 4.71953C32.5274 4.75297 32.6009 4.80202 32.6628 4.86388C32.7248 4.92573 32.7739 4.99918 32.8075 5.08003C32.841 5.16088 32.8583 5.24754 32.8584 5.33508C32.8584 5.42261 32.8412 5.5093 32.8078 5.5902L32.0438 7.43553C31.9937 7.55767 31.9083 7.66214 31.7986 7.73562C31.6889 7.80911 31.5598 7.8483 31.4278 7.8482ZM40.8145 17.2275C40.6603 17.2272 40.511 17.1736 40.3919 17.0756C40.2729 16.9777 40.1914 16.8416 40.1613 16.6904C40.1312 16.5392 40.1544 16.3823 40.2269 16.2462C40.2995 16.1102 40.4168 16.0035 40.5591 15.9442L42.4038 15.1795C42.5656 15.1198 42.7442 15.125 42.9023 15.194C43.0603 15.2631 43.1854 15.3907 43.2515 15.55C43.3175 15.7093 43.3193 15.888 43.2565 16.0486C43.1937 16.2093 43.0711 16.3393 42.9145 16.4115L41.0698 17.1762C40.9889 17.2099 40.9021 17.2273 40.8145 17.2275ZM42.6638 31.2595C42.5764 31.2594 42.4898 31.2419 42.4091 31.2082L40.5638 30.4442C40.4034 30.3746 40.2768 30.2448 40.2112 30.0828C40.1456 29.9208 40.1463 29.7395 40.2131 29.5779C40.2798 29.4164 40.4074 29.2875 40.5683 29.2191C40.7292 29.1507 40.9105 29.1482 41.0731 29.2122L42.9185 29.9762C43.0614 30.0349 43.1795 30.1414 43.2526 30.2776C43.3256 30.4138 43.3492 30.5711 43.3191 30.7226C43.289 30.8742 43.2072 31.0106 43.0877 31.1085C42.9682 31.2065 42.8183 31.2598 42.6638 31.2595ZM32.2051 41.7262C32.0732 41.7264 31.9442 41.6873 31.8345 41.6139C31.7248 41.5405 31.6394 41.4362 31.5891 41.3142L30.8245 39.4695C30.7647 39.3077 30.7699 39.1291 30.839 38.9711C30.9081 38.8131 31.0356 38.6879 31.1949 38.6219C31.3543 38.5558 31.533 38.554 31.6936 38.6169C31.8542 38.6797 31.9842 38.8022 32.0565 38.9589L32.8211 40.8035C32.8631 40.9049 32.8794 41.015 32.8687 41.1242C32.858 41.2333 32.8205 41.3382 32.7596 41.4294C32.6987 41.5206 32.6162 41.5954 32.5195 41.6472C32.4228 41.699 32.3148 41.7261 32.2051 41.7262ZM17.4071 41.7315C17.2975 41.7316 17.1895 41.7045 17.0928 41.6528C16.996 41.6012 16.9136 41.5264 16.8526 41.4352C16.7917 41.344 16.7542 41.2392 16.7435 41.1301C16.7328 41.0209 16.7491 40.9108 16.7911 40.8095L17.5551 38.9642C17.5886 38.8833 17.6376 38.8098 17.6995 38.7478C17.7613 38.6859 17.8348 38.6368 17.9156 38.6032C17.9965 38.5697 18.0832 38.5524 18.1707 38.5523C18.2582 38.5522 18.3449 38.5694 18.4258 38.6029C18.5067 38.6363 18.5802 38.6854 18.6422 38.7472C18.7041 38.8091 18.7532 38.8825 18.7868 38.9634C18.8203 39.0442 18.8376 39.1309 18.8377 39.2184C18.8378 39.3059 18.8206 39.3926 18.7871 39.4735L18.0231 41.3189C17.9729 41.441 17.8876 41.5454 17.7779 41.6188C17.6682 41.6923 17.5392 41.7315 17.4071 41.7315ZM6.94114 31.2722C6.78698 31.2719 6.63768 31.2182 6.51861 31.1203C6.39954 31.0224 6.31805 30.8863 6.28796 30.7351C6.25788 30.5839 6.28107 30.4269 6.3536 30.2909C6.42612 30.1549 6.54351 30.0482 6.6858 29.9889L8.53047 29.2242C8.61137 29.1907 8.69807 29.1734 8.78564 29.1734C8.87321 29.1734 8.95992 29.1906 9.04083 29.2241C9.12175 29.2576 9.19527 29.3067 9.2572 29.3686C9.31914 29.4305 9.36827 29.504 9.4018 29.5849C9.43534 29.6658 9.45261 29.7525 9.45263 29.84C9.45265 29.9276 9.43542 30.0143 9.40193 30.0952C9.36844 30.1761 9.31934 30.2497 9.25743 30.3116C9.19553 30.3735 9.12203 30.4227 9.04114 30.4562L7.19647 31.2209C7.11555 31.2545 7.02879 31.272 6.94114 31.2722ZM8.78047 17.2389C8.69303 17.2387 8.60648 17.2213 8.5258 17.1875L6.68047 16.4235C6.5201 16.354 6.39348 16.2242 6.32787 16.0621C6.26227 15.9001 6.26293 15.7188 6.32972 15.5572C6.3965 15.3957 6.52407 15.2668 6.68495 15.1984C6.84582 15.13 7.02712 15.1275 7.1898 15.1915L9.03514 15.9555C9.17807 16.0142 9.29617 16.1208 9.36924 16.2569C9.44232 16.3931 9.46582 16.5504 9.43575 16.702C9.40567 16.8535 9.32387 16.9899 9.20435 17.0879C9.08483 17.1858 8.93499 17.2392 8.78047 17.2389ZM18.1605 7.85286C18.0285 7.85302 17.8995 7.81393 17.7898 7.74057C17.6801 7.6672 17.5947 7.56288 17.5445 7.44086L16.7798 5.5962C16.7181 5.43408 16.722 5.25429 16.7907 5.09502C16.8594 4.93574 16.9875 4.80951 17.1478 4.74314C17.308 4.67676 17.4878 4.67546 17.649 4.73951C17.8103 4.80357 17.9401 4.92793 18.0111 5.0862L18.7758 6.93086C18.8176 7.03212 18.8338 7.14212 18.8231 7.25114C18.8123 7.36016 18.7749 7.46486 18.714 7.55598C18.6532 7.6471 18.5709 7.72185 18.4744 7.77363C18.3778 7.8254 18.27 7.85262 18.1605 7.85286Z" fill="#FBB83B"/>
<path d="M31.4276 7.84818C31.3179 7.84821 31.2099 7.82118 31.1132 7.76949C31.0165 7.7178 30.934 7.64305 30.8731 7.55187C30.8122 7.46068 30.7747 7.35587 30.7639 7.24673C30.7532 7.13759 30.7696 7.02748 30.8116 6.92618L31.5756 5.08085C31.609 4.99995 31.6581 4.92644 31.7199 4.8645C31.7818 4.80256 31.8552 4.75341 31.9361 4.71986C32.0169 4.6863 32.1036 4.669 32.1911 4.66895C32.2787 4.66889 32.3653 4.68607 32.4462 4.71951C32.5271 4.75296 32.6007 4.802 32.6626 4.86386C32.7245 4.92571 32.7737 4.99916 32.8072 5.08001C32.8408 5.16086 32.8581 5.24753 32.8581 5.33506C32.8582 5.4226 32.841 5.50928 32.8076 5.59018L32.0436 7.43551C31.9934 7.55766 31.9081 7.66212 31.7984 7.73561C31.6887 7.80909 31.5596 7.84828 31.4276 7.84818ZM40.8142 17.2275C40.6601 17.2272 40.5108 17.1735 40.3917 17.0756C40.2726 16.9777 40.1912 16.8416 40.1611 16.6904C40.131 16.5392 40.1542 16.3823 40.2267 16.2462C40.2992 16.1102 40.4166 16.0035 40.5589 15.9442L42.4036 15.1795C42.5654 15.1198 42.744 15.125 42.902 15.194C43.0601 15.2631 43.1852 15.3907 43.2512 15.55C43.3173 15.7093 43.3191 15.888 43.2562 16.0486C43.1934 16.2092 43.0709 16.3393 42.9142 16.4115L41.0696 17.1762C40.9887 17.2099 40.9019 17.2273 40.8142 17.2275ZM42.6636 31.2595C42.5761 31.2594 42.4896 31.2419 42.4089 31.2082L40.5636 30.4442C40.4032 30.3746 40.2766 30.2448 40.211 30.0828C40.1454 29.9208 40.146 29.7394 40.2128 29.5779C40.2796 29.4163 40.4072 29.2875 40.5681 29.2191C40.7289 29.1507 40.9102 29.1482 41.0729 29.2122L42.9182 29.9762C43.0612 30.0349 43.1793 30.1414 43.2523 30.2776C43.3254 30.4137 43.3489 30.571 43.3188 30.7226C43.2888 30.8742 43.207 31.0106 43.0875 31.1085C42.9679 31.2065 42.8181 31.2598 42.6636 31.2595ZM32.2049 41.7262C32.0729 41.7263 31.9439 41.6872 31.8342 41.6139C31.7245 41.5405 31.6392 41.4362 31.5889 41.3142L30.8242 39.4695C30.7645 39.3077 30.7697 39.1291 30.8388 38.9711C30.9078 38.813 31.0354 38.6879 31.1947 38.6218C31.354 38.5558 31.5327 38.554 31.6933 38.6168C31.854 38.6797 31.984 38.8022 32.0562 38.9588L32.8209 40.8035C32.8629 40.9049 32.8792 41.015 32.8685 41.1242C32.8577 41.2333 32.8203 41.3382 32.7594 41.4294C32.6985 41.5206 32.616 41.5954 32.5193 41.6472C32.4226 41.699 32.3146 41.7261 32.2049 41.7262ZM17.4069 41.7315C17.2972 41.7315 17.1893 41.7045 17.0925 41.6528C16.9958 41.6011 16.9133 41.5264 16.8524 41.4352C16.7915 41.344 16.754 41.2392 16.7433 41.1301C16.7325 41.0209 16.7489 40.9108 16.7909 40.8095L17.5549 38.9642C17.5884 38.8833 17.6374 38.8098 17.6993 38.7478C17.7611 38.6859 17.8346 38.6367 17.9154 38.6032C17.9963 38.5696 18.0829 38.5523 18.1705 38.5523C18.258 38.5522 18.3447 38.5694 18.4256 38.6028C18.5065 38.6363 18.58 38.6853 18.6419 38.7472C18.7039 38.809 18.753 38.8825 18.7866 38.9633C18.8201 39.0442 18.8374 39.1309 18.8375 39.2184C18.8375 39.3059 18.8204 39.3926 18.7869 39.4735L18.0229 41.3188C17.9727 41.4409 17.8873 41.5453 17.7776 41.6188C17.668 41.6923 17.5389 41.7315 17.4069 41.7315ZM6.94091 31.2722C6.78675 31.2719 6.63745 31.2182 6.51838 31.1203C6.39931 31.0224 6.31781 30.8863 6.28773 30.7351C6.25765 30.5839 6.28084 30.4269 6.35337 30.2909C6.42589 30.1549 6.54327 30.0481 6.68557 29.9888L8.53024 29.2242C8.61113 29.1906 8.69784 29.1734 8.78541 29.1734C8.87298 29.1733 8.95969 29.1906 9.0406 29.2241C9.12151 29.2575 9.19504 29.3066 9.25697 29.3685C9.31891 29.4305 9.36804 29.504 9.40157 29.5848C9.4351 29.6657 9.45237 29.7524 9.4524 29.84C9.45242 29.9276 9.43519 30.0143 9.4017 30.0952C9.36821 30.1761 9.31911 30.2496 9.2572 30.3116C9.1953 30.3735 9.1218 30.4226 9.04091 30.4562L7.19624 31.2208C7.11532 31.2545 7.02856 31.272 6.94091 31.2722ZM8.78024 17.2388C8.6928 17.2387 8.60625 17.2212 8.52557 17.1875L6.68024 16.4235C6.51987 16.3539 6.39325 16.2242 6.32764 16.0621C6.26203 15.9001 6.2627 15.7188 6.32949 15.5572C6.39627 15.3957 6.52384 15.2668 6.68471 15.1984C6.84559 15.13 7.02689 15.1275 7.18957 15.1915L9.03491 15.9555C9.17784 16.0142 9.29594 16.1208 9.36901 16.2569C9.44208 16.3931 9.46559 16.5504 9.43551 16.7019C9.40544 16.8535 9.32364 16.9899 9.20412 17.0879C9.08459 17.1858 8.93476 17.2392 8.78024 17.2388ZM18.1602 7.85285C18.0283 7.853 17.8993 7.81391 17.7896 7.74055C17.6799 7.66719 17.5945 7.56287 17.5442 7.44085L16.7796 5.59618C16.7179 5.43406 16.7218 5.25428 16.7905 5.095C16.8592 4.93572 16.9873 4.8095 17.1475 4.74312C17.3078 4.67674 17.4876 4.67544 17.6488 4.7395C17.81 4.80355 17.9399 4.92791 18.0109 5.08618L18.7756 6.93085C18.8174 7.03211 18.8336 7.1421 18.8228 7.25112C18.8121 7.36015 18.7746 7.46484 18.7138 7.55596C18.653 7.64708 18.5707 7.72183 18.4741 7.77361C18.3776 7.82539 18.2698 7.8526 18.1602 7.85285Z" fill="#FBB83B"/>
<path d="M24.8001 38.5358C33.2685 38.5358 40.1335 31.6708 40.1335 23.2025C40.1335 14.7341 33.2685 7.86914 24.8001 7.86914C16.3318 7.86914 9.4668 14.7341 9.4668 23.2025C9.4668 31.6708 16.3318 38.5358 24.8001 38.5358Z" fill="#FBB83B"/>
<path d="M36.5772 13.3813C37.1664 15.0341 37.467 16.776 37.4658 18.5307C37.4658 26.9993 30.6012 33.864 22.1325 33.864C17.3985 33.864 13.1672 31.718 10.3545 28.3467C12.4705 34.2813 18.1378 38.5307 24.7992 38.5307C33.2678 38.5307 40.1325 31.666 40.1325 23.1973C40.1373 19.6093 38.8786 16.1341 36.5772 13.3813Z" fill="#F4AC3D"/>
</g>
<defs>
<filter id="filter0_f_28_4294" x="7.20039" y="40.7985" width="36.0001" height="9.6002" filterUnits="userSpaceOnUse" color-interpolation-filters="sRGB">
<feFlood flood-opacity="0" result="BackgroundImageFix"/>
<feBlend mode="normal" in="SourceGraphic" in2="BackgroundImageFix" result="shape"/>
<feGaussianBlur stdDeviation="1.6" result="effect1_foregroundBlur_28_4294"/>
</filter>
<clipPath id="clip0_28_4294">
<rect width="50.4" height="50.4" fill="white"/>
</clipPath>
</defs>
</svg>
