<svg width="20" height="20" viewBox="0 0 20 20" fill="none" xmlns="http://www.w3.org/2000/svg">
<path fill-rule="evenodd" clip-rule="evenodd" d="M16.95 5.684L10.637 10.912C10.4576 11.0606 10.232 11.142 9.999 11.142C9.76604 11.142 9.54039 11.0606 9.361 10.912L3.051 5.684C3.01714 5.78591 2.99992 5.89261 3 6V14C3 14.2652 3.10536 14.5196 3.29289 14.7071C3.48043 14.8946 3.73478 15 4 15H16C16.2652 15 16.5196 14.8946 16.7071 14.7071C16.8946 14.5196 17 14.2652 17 14V6C17.0004 5.89267 16.9835 5.78597 16.95 5.684ZM4 4H16C16.5304 4 17.0391 4.21071 17.4142 4.58579C17.7893 4.96086 18 5.46957 18 6V14C18 14.5304 17.7893 15.0391 17.4142 15.4142C17.0391 15.7893 16.5304 16 16 16H4C3.46957 16 2.96086 15.7893 2.58579 15.4142C2.21071 15.0391 2 14.5304 2 14V6C2 5.46957 2.21071 4.96086 2.58579 4.58579C2.96086 4.21071 3.46957 4 4 4ZM3.79 5L9.366 9.603C9.54459 9.7505 9.76884 9.83144 10.0005 9.83199C10.2321 9.83254 10.4567 9.75266 10.636 9.606L16.268 5H3.79Z" fill="black"/>
</svg>
