<svg width="14" height="14" viewBox="0 0 14 14" fill="none" xmlns="http://www.w3.org/2000/svg">
<g id="typcn:location">
<path id="Vector" d="M10.3001 3.09444C8.47775 1.30185 5.52316 1.30185 3.70083 3.09444C3.26816 3.51714 2.92436 4.02207 2.68963 4.57955C2.4549 5.13703 2.33398 5.73581 2.33398 6.34069C2.33398 6.94557 2.4549 7.54435 2.68963 8.10182C2.92436 8.6593 3.26816 9.16423 3.70083 9.58694L7.00016 12.8332L10.3001 9.58694C10.7327 9.16423 11.0766 8.6593 11.3113 8.10182C11.546 7.54435 11.6669 6.94557 11.6669 6.34069C11.6669 5.73581 11.546 5.13703 11.3113 4.57955C11.0766 4.02207 10.7327 3.51714 10.3001 3.09444ZM7.00016 7.87485C6.6105 7.87485 6.24475 7.72319 5.96883 7.44785C5.69569 7.17413 5.54228 6.80322 5.54228 6.41652C5.54228 6.02982 5.69569 5.65892 5.96883 5.38519C6.24416 5.10985 6.6105 4.95819 7.00016 4.95819C7.38983 4.95819 7.75616 5.10985 8.0315 5.38519C8.30464 5.65892 8.45805 6.02982 8.45805 6.41652C8.45805 6.80322 8.30464 7.17413 8.0315 7.44785C7.75616 7.72319 7.38983 7.87485 7.00016 7.87485Z" fill="white"/>
</g>
</svg>
