<svg width="51" height="51" viewBox="0 0 51 51" fill="none" xmlns="http://www.w3.org/2000/svg">
<path d="M44.2744 19.813C44.2734 22.4263 43.2349 24.9324 41.387 26.7803C39.539 28.6282 37.033 29.6668 34.4197 29.6677H13.3963C12.8139 29.6686 12.2336 29.598 11.6684 29.4575C9.95368 29.0353 8.45288 27.9999 7.44944 26.5468C6.446 25.0936 6.00938 23.3234 6.22204 21.5703C6.43471 19.8172 7.28194 18.2027 8.60372 17.0316C9.9255 15.8606 11.6303 15.214 13.3963 15.2141C13.8462 15.2142 14.2951 15.2583 14.7365 15.3455C14.8691 12.6535 16.0316 10.1156 17.9833 8.25677C19.9351 6.39797 22.5267 5.36064 25.2219 5.35941C27.4148 5.35358 29.5533 6.04113 31.3319 7.32378C32.35 8.04941 33.2309 8.95037 33.9335 9.98456C34.0912 9.97799 34.2554 9.95828 34.4197 9.95828C37.033 9.95922 39.5391 10.9978 41.387 12.8457C43.2349 14.6936 44.2734 17.1997 44.2744 19.813Z" fill="#6FB6FC"/>
<path d="M44.2747 19.8173C44.2737 22.4307 43.2352 24.9367 41.3873 26.7846C39.5393 28.6325 37.0333 29.6711 34.42 29.6721H13.3966C12.8142 29.673 12.2339 29.6024 11.6687 29.4618C10.7648 28.414 10.1809 27.1286 9.98632 25.7585C9.79176 24.3884 9.99477 22.9913 10.5712 21.7332C11.1476 20.4752 12.0733 19.4091 13.238 18.6618C14.4027 17.9146 15.7575 17.5175 17.1414 17.5179C17.5913 17.518 18.0402 17.562 18.4816 17.6493C18.6153 14.9577 19.7781 12.4203 21.7296 10.5618C23.6811 8.7032 26.2721 7.6655 28.967 7.66319C29.7659 7.64626 30.56 7.53377 31.3322 7.32812C32.3503 8.05375 33.2312 8.95471 33.9338 9.9889C34.0915 9.98233 34.2557 9.96262 34.42 9.96262C37.0333 9.96356 39.5393 11.0021 41.3873 12.85C43.2352 14.698 44.2737 17.204 44.2747 19.8173ZM37.7049 13.381C38.8906 13.9872 39.8861 14.9088 40.5816 16.0444C41.2771 17.1801 41.6457 18.4856 41.6468 19.8173" fill="#E6F3FF"/>
<path d="M29.165 30.979C29.165 32.0244 28.7497 33.0271 28.0105 33.7663C27.2712 34.5056 26.2686 34.9209 25.2231 34.9209C24.1777 34.9209 23.175 34.5056 22.4358 33.7663C21.6965 33.0271 21.2812 32.0244 21.2812 30.979C21.2812 28.8019 25.2231 24.4092 25.2231 24.4092C25.2231 24.4092 29.165 28.8019 29.165 30.979ZM19.9673 38.8628C19.9673 39.9082 19.552 40.9108 18.8127 41.6501C18.0735 42.3893 17.0708 42.8046 16.0254 42.8046C14.9799 42.8046 13.9773 42.3893 13.238 41.6501C12.4988 40.9108 12.0835 39.9082 12.0835 38.8628C12.0835 36.6857 16.0254 32.293 16.0254 32.293C16.0254 32.293 19.9673 36.6857 19.9673 38.8628ZM39.6767 34.9209C39.6767 35.9663 39.2614 36.969 38.5221 37.7082C37.7829 38.4475 36.7803 38.8628 35.7348 38.8628C34.6894 38.8628 33.6867 38.4475 32.9475 37.7082C32.2082 36.969 31.7929 35.9663 31.7929 34.9209C31.7929 32.7438 35.7348 28.3511 35.7348 28.3511C35.7348 28.3511 39.6767 32.7438 39.6767 34.9209Z" fill="#6FB6FC"/>
<g opacity="0.15" filter="url(#filter0_f_28_4306)">
<path d="M25.2004 46.4625C33.3742 46.4625 40.0004 45.7573 40.0004 44.8875C40.0004 44.0177 33.3742 43.3125 25.2004 43.3125C17.0266 43.3125 10.4004 44.0177 10.4004 44.8875C10.4004 45.7573 17.0266 46.4625 25.2004 46.4625Z" fill="#6FB6FC"/>
</g>
<defs>
<filter id="filter0_f_28_4306" x="7.20039" y="40.1125" width="36.0001" height="9.5499" filterUnits="userSpaceOnUse" color-interpolation-filters="sRGB">
<feFlood flood-opacity="0" result="BackgroundImageFix"/>
<feBlend mode="normal" in="SourceGraphic" in2="BackgroundImageFix" result="shape"/>
<feGaussianBlur stdDeviation="1.6" result="effect1_foregroundBlur_28_4306"/>
</filter>
</defs>
</svg>
