<svg width="25" height="24" viewBox="0 0 25 24" fill="none" xmlns="http://www.w3.org/2000/svg">
<path fill-rule="evenodd" clip-rule="evenodd" d="M7.83319 9.16664C7.66839 9.16667 7.5073 9.21557 7.37029 9.30714C7.23327 9.39871 7.12649 9.52886 7.06343 9.68111C7.00037 9.83337 6.98386 10.0009 7.016 10.1625C7.04814 10.3242 7.12748 10.4726 7.244 10.5892L11.4108 14.756C11.5671 14.9122 11.779 15 12 15C12.221 15 12.4329 14.9122 12.5892 14.756L16.756 10.5892C16.8725 10.4726 16.9519 10.3242 16.984 10.1625C17.0161 10.0009 16.9996 9.83337 16.9366 9.68111C16.8735 9.52886 16.7667 9.39871 16.6297 9.30714C16.4927 9.21557 16.3316 9.16667 16.1668 9.16664H7.83319Z" fill="black"/>
</svg>
