<svg width="51" height="50" viewBox="0 0 51 50" fill="none" xmlns="http://www.w3.org/2000/svg">
<path d="M17.167 27.0833V9.375C17.167 8.5462 17.4962 7.75134 18.0823 7.16529C18.6683 6.57924 19.4632 6.25 20.292 6.25C21.1208 6.25 21.9156 6.57924 22.5017 7.16529C23.0878 7.75134 23.417 8.5462 23.417 9.375V25M23.417 23.9583V19.7917C23.417 18.9629 23.7462 18.168 24.3323 17.582C24.9183 16.9959 25.7132 16.6667 26.542 16.6667C27.3708 16.6667 28.1656 16.9959 28.7517 17.582C29.3378 18.168 29.667 18.9629 29.667 19.7917V25M29.667 21.875C29.667 21.0462 29.9962 20.2513 30.5823 19.6653C31.1683 19.0792 31.9632 18.75 32.792 18.75C33.6208 18.75 34.4156 19.0792 35.0017 19.6653C35.5877 20.2513 35.917 21.0462 35.917 21.875V25" stroke="white" stroke-width="3" stroke-linecap="round" stroke-linejoin="round"/>
<path d="M35.9167 23.9596C35.9167 23.1308 36.2459 22.336 36.832 21.7499C37.418 21.1639 38.2129 20.8346 39.0417 20.8346C39.8705 20.8346 40.6653 21.1639 41.2514 21.7499C41.8374 22.336 42.1667 23.1308 42.1667 23.9596V33.3346C42.1667 36.6498 40.8497 39.8293 38.5055 42.1735C36.1613 44.5177 32.9819 45.8346 29.6667 45.8346H25.5H25.9333C23.8632 45.835 21.8254 45.3212 20.0029 44.3394C18.1804 43.3576 16.6302 41.9385 15.4917 40.2096L15.0833 39.5846C14.4333 38.5874 12.1514 34.6096 8.2375 27.6513C7.83844 26.942 7.73184 26.105 7.94038 25.3183C8.14892 24.5316 8.65614 23.8573 9.35417 23.4388C10.098 22.9938 10.969 22.8095 11.8293 22.9151C12.6896 23.0208 13.4901 23.4103 14.1042 24.0221L17.1667 27.0846M10.9167 6.2513L8.83333 4.16797M8.83333 14.5846H6.75M29.6667 6.2513L31.75 4.16797M31.75 12.5013H33.8333" stroke="white" stroke-width="3" stroke-linecap="round" stroke-linejoin="round"/>
</svg>
