<svg width="18" height="19" viewBox="0 0 18 19" fill="none" xmlns="http://www.w3.org/2000/svg">
<g id="fluent:people-28-filled">
<path id="Vector" d="M6.10707 9.50056C6.48697 9.50056 6.86314 9.42573 7.21412 9.28035C7.5651 9.13497 7.88401 8.92189 8.15263 8.65326C8.42126 8.38463 8.63435 8.06573 8.77972 7.71475C8.9251 7.36377 8.99993 6.9876 8.99993 6.6077C8.99993 6.22781 8.9251 5.85163 8.77972 5.50065C8.63435 5.14967 8.42126 4.83077 8.15263 4.56214C7.88401 4.29352 7.5651 4.08043 7.21412 3.93505C6.86314 3.78967 6.48697 3.71484 6.10707 3.71484C5.33984 3.71484 4.60403 4.01963 4.06151 4.56214C3.519 5.10466 3.21422 5.84047 3.21422 6.6077C3.21422 7.37493 3.519 8.11074 4.06151 8.65326C4.60403 9.19578 5.33984 9.50056 6.10707 9.50056ZM10.9928 14.3985C11.4833 14.5496 12.0946 14.6434 12.8571 14.6434C16.7142 14.6434 16.7142 12.2327 16.7142 12.2327C16.7142 11.8491 16.5618 11.4812 16.2906 11.2099C16.0193 10.9387 15.6514 10.7863 15.2678 10.7863H10.9889C11.3626 11.175 11.5709 11.6935 11.5701 12.2327V12.5895L11.5681 12.6428C11.5546 12.8576 11.5214 13.0706 11.4691 13.2793C11.3697 13.6746 11.2092 14.052 10.9934 14.3978M15.1071 7.25056C15.1071 7.54603 15.0489 7.83861 14.9358 8.1116C14.8227 8.38458 14.657 8.63262 14.4481 8.84155C14.2391 9.05048 13.9911 9.21621 13.7181 9.32929C13.4451 9.44236 13.1525 9.50056 12.8571 9.50056C12.5616 9.50056 12.269 9.44236 11.996 9.32929C11.7231 9.21621 11.475 9.05048 11.2661 8.84155C11.0572 8.63262 10.8914 8.38458 10.7783 8.1116C10.6653 7.83861 10.6071 7.54603 10.6071 7.25056C10.6071 6.65382 10.8441 6.08152 11.2661 5.65957C11.688 5.23761 12.2603 5.00056 12.8571 5.00056C13.4538 5.00056 14.0261 5.23761 14.4481 5.65957C14.87 6.08152 15.1071 6.65382 15.1071 7.25056ZM1.28564 12.2327C1.28564 11.8491 1.43804 11.4812 1.70929 11.2099C1.98055 10.9387 2.34846 10.7863 2.73207 10.7863H9.48207C9.86569 10.7863 10.2336 10.9387 10.5049 11.2099C10.7761 11.4812 10.9285 11.8491 10.9285 12.2327V12.5541C10.9285 12.5541 10.9285 15.9291 6.10707 15.9291C1.28564 15.9291 1.28564 12.5541 1.28564 12.5541V12.2327Z" fill="#8A8A8A"/>
</g>
</svg>
