<svg width="31" height="30" viewBox="0 0 31 30" fill="none" xmlns="http://www.w3.org/2000/svg">
<path d="M5.5 5H9.25L11.75 2.5H19.25L21.75 5H25.5C26.163 5 26.7989 5.26339 27.2678 5.73223C27.7366 6.20107 28 6.83696 28 7.5V22.5C28 23.163 27.7366 23.7989 27.2678 24.2678C26.7989 24.7366 26.163 25 25.5 25H5.5C4.83696 25 4.20107 24.7366 3.73223 24.2678C3.26339 23.7989 3 23.163 3 22.5V7.5C3 6.83696 3.26339 6.20107 3.73223 5.73223C4.20107 5.26339 4.83696 5 5.5 5ZM15.5 8.75C13.8424 8.75 12.2527 9.40848 11.0806 10.5806C9.90848 11.7527 9.25 13.3424 9.25 15C9.25 16.6576 9.90848 18.2473 11.0806 19.4194C12.2527 20.5915 13.8424 21.25 15.5 21.25C17.1576 21.25 18.7473 20.5915 19.9194 19.4194C21.0915 18.2473 21.75 16.6576 21.75 15C21.75 13.3424 21.0915 11.7527 19.9194 10.5806C18.7473 9.40848 17.1576 8.75 15.5 8.75ZM15.5 11.25C16.4946 11.25 17.4484 11.6451 18.1517 12.3483C18.8549 13.0516 19.25 14.0054 19.25 15C19.25 15.9946 18.8549 16.9484 18.1517 17.6517C17.4484 18.3549 16.4946 18.75 15.5 18.75C14.5054 18.75 13.5516 18.3549 12.8483 17.6517C12.1451 16.9484 11.75 15.9946 11.75 15C11.75 14.0054 12.1451 13.0516 12.8483 12.3483C13.5516 11.6451 14.5054 11.25 15.5 11.25Z" fill="black"/>
</svg>
