<svg width="13" height="13" viewBox="0 0 13 13" fill="none" xmlns="http://www.w3.org/2000/svg">
<g clip-path="url(#clip0_81_30631)">
<path d="M6.5 0.5C8.0913 0.5 9.61742 1.13214 10.7426 2.25736C11.8679 3.38258 12.5 4.9087 12.5 6.5C12.5 8.0913 11.8679 9.61742 10.7426 10.7426C9.61742 11.8679 8.0913 12.5 6.5 12.5C4.9087 12.5 3.38258 11.8679 2.25736 10.7426C1.13214 9.61742 0.5 8.0913 0.5 6.5C0.5 4.9087 1.13214 3.38258 2.25736 2.25736C3.38258 1.13214 4.9087 0.5 6.5 0.5ZM7.2965 3.734C7.2965 3.53509 7.21748 3.34432 7.07683 3.20367C6.93618 3.06302 6.74541 2.984 6.5465 2.984C6.34759 2.984 6.15682 3.06302 6.01617 3.20367C5.87552 3.34432 5.7965 3.53509 5.7965 3.734V5.7965H3.734C3.53509 5.7965 3.34432 5.87552 3.20367 6.01617C3.06302 6.15682 2.984 6.34759 2.984 6.5465C2.984 6.74541 3.06302 6.93618 3.20367 7.07683C3.34432 7.21748 3.53509 7.2965 3.734 7.2965H5.7965V9.359C5.7965 9.55791 5.87552 9.74868 6.01617 9.88933C6.15682 10.03 6.34759 10.109 6.5465 10.109C6.74541 10.109 6.93618 10.03 7.07683 9.88933C7.21748 9.74868 7.2965 9.55791 7.2965 9.359V7.2965H9.359C9.55791 7.2965 9.74868 7.21748 9.88933 7.07683C10.03 6.93618 10.109 6.74541 10.109 6.5465C10.109 6.34759 10.03 6.15682 9.88933 6.01617C9.74868 5.87552 9.55791 5.7965 9.359 5.7965H7.2965V3.734Z" fill="white"/>
</g>
<defs>
<clipPath id="clip0_81_30631">
<rect width="12" height="12" fill="white" transform="translate(0.5 0.5)"/>
</clipPath>
</defs>
</svg>
