<svg width="50" height="50" viewBox="0 0 50 50" fill="none" xmlns="http://www.w3.org/2000/svg">
<rect x="0.5" y="0.5" width="49" height="49" rx="24.5" fill="white"/>
<rect x="0.5" y="0.5" width="49" height="49" rx="24.5" stroke="#F4F4F4"/>
<g opacity="0.15" filter="url(#filter0_f_205_966)">
<path d="M24.4291 41.0262C30.2675 41.0262 35.0005 40.3155 35.0005 39.4389C35.0005 38.5622 30.2675 37.8516 24.4291 37.8516C18.5907 37.8516 13.8577 38.5622 13.8577 39.4389C13.8577 40.3155 18.5907 41.0262 24.4291 41.0262Z" fill="#6FABE6"/>
</g>
<g clip-path="url(#clip0_205_966)">
<path d="M35.3911 26.1094L36.2036 29.9049L32.5067 31.0656L31.346 34.7625L27.5447 33.9558L24.6429 36.5558L21.7411 33.9558L17.9456 34.7683L16.7558 31.0714L13.059 29.9107L13.8947 26.1094L11.2947 23.2076L13.8947 20.3058L13.0822 16.5335C17.313 15.1696 16.75 15.4424 16.8545 15.1058L17.9688 11.6237L21.7411 12.4594L24.6429 9.85938L27.5447 12.4594L31.3402 11.6469L32.5009 15.3438L36.1978 16.5335L35.3911 20.3058L37.9911 23.2076L35.3911 26.1094Z" fill="#82BCF4"/>
<path d="M33.3482 30.7501C33.3482 30.814 33.4701 30.7501 32.5067 31.0693L31.346 34.7662L27.5447 33.9537L24.6429 36.5537L21.7411 33.9537L17.9456 34.7662L16.7558 31.0693L13.059 29.9086L13.8947 26.1073L11.2947 23.2055L13.8947 20.3037L13.0822 16.5314C17.313 15.1676 16.75 15.4403 16.8545 15.1037C18.9786 14.9919 21.1032 15.3136 23.0989 16.0494C25.0947 16.7851 26.9197 17.9195 28.4629 19.3834C30.006 20.8473 31.235 22.61 32.0749 24.5642C32.9148 26.5184 33.348 28.6231 33.3482 30.7501Z" fill="#6FABE6"/>
<path d="M33.3489 23.2046C33.3481 24.566 33.028 25.9083 32.4143 27.1235C31.8006 28.3388 30.9104 29.3931 29.8153 30.2019C28.7202 31.0107 27.4506 31.5514 26.1086 31.7805C24.7666 32.0096 23.3896 31.9208 22.0882 31.5212C20.7867 31.1215 19.5972 30.4222 18.615 29.4794C17.6329 28.5366 16.8856 27.3766 16.4331 26.0926C15.9806 24.8086 15.8356 23.4363 16.0097 22.0861C16.1838 20.7358 16.6722 19.4452 17.4356 18.318C22.2699 11.2376 33.3489 14.6617 33.3489 23.2046Z" fill="#EDEBF2"/>
<path d="M31.0274 25.5253C31.0285 27.2673 30.5069 28.9696 29.5301 30.4119C27.8546 31.5522 25.8337 32.0721 23.8159 31.882C21.7981 31.6919 19.9099 30.8038 18.4768 29.3707C17.0436 27.9375 16.1555 26.0493 15.9654 24.0315C15.7753 22.0137 16.2952 19.9928 17.4355 18.3173C18.7446 17.4293 20.271 16.9149 21.8505 16.8292C23.4301 16.7435 25.0031 17.0898 26.4006 17.831C27.7982 18.5721 28.9673 19.68 29.7825 21.0357C30.5977 22.3913 31.0281 23.9435 31.0274 25.5253Z" fill="#DAD7E5"/>
<path d="M29.5765 21.2774L24.1328 26.7212C23.8063 27.0472 23.3638 27.2304 22.9024 27.2304C22.441 27.2304 21.9985 27.0472 21.672 26.7212L19.7104 24.7596C19.4796 24.5287 19.3499 24.2156 19.3499 23.889C19.3499 23.5625 19.4796 23.2494 19.7104 23.0185C19.9413 22.7876 20.2545 22.6579 20.581 22.6579C20.9075 22.6579 21.2206 22.7876 21.4515 23.0185L22.9024 24.4694C29.5011 17.8707 27.4002 19.9774 27.8354 19.5364C28.0663 19.3055 28.3795 19.1758 28.706 19.1758C29.0325 19.1758 29.3456 19.3055 29.5765 19.5364C29.8074 19.7672 29.9371 20.0804 29.9371 20.4069C29.9371 20.7334 29.8074 21.0466 29.5765 21.2774Z" fill="#82BCF4"/>
<path d="M28.9965 21.8596L24.1332 26.723C23.8067 27.0491 23.3642 27.2322 22.9028 27.2322C22.4414 27.2322 21.9989 27.0491 21.6724 26.723L19.7108 24.7614C19.5309 24.5818 19.4113 24.3507 19.3687 24.1C19.326 23.8494 19.3625 23.5917 19.4729 23.3627C19.7019 23.2523 19.9596 23.2159 20.2102 23.2585C20.4608 23.3012 20.692 23.4208 20.8715 23.6007L22.3224 25.0516C29.1823 18.1918 26.8492 20.5306 27.3483 20.0315C27.5908 19.8129 27.9101 19.6996 28.236 19.7165C28.562 19.7334 28.8679 19.879 29.0865 20.1215C29.3051 20.3639 29.4184 20.6832 29.4015 21.0092C29.3846 21.3351 29.239 21.6411 28.9965 21.8596Z" fill="#6FABE6"/>
</g>
<defs>
<filter id="filter0_f_205_966" x="11.572" y="35.5658" width="25.7143" height="7.74721" filterUnits="userSpaceOnUse" color-interpolation-filters="sRGB">
<feFlood flood-opacity="0" result="BackgroundImageFix"/>
<feBlend mode="normal" in="SourceGraphic" in2="BackgroundImageFix" result="shape"/>
<feGaussianBlur stdDeviation="1.14286" result="effect1_foregroundBlur_205_966"/>
</filter>
<clipPath id="clip0_205_966">
<rect width="27.8571" height="27.8571" fill="white" transform="translate(10.7146 9.28125)"/>
</clipPath>
</defs>
</svg>
