<svg width="20" height="20" viewBox="0 0 20 20" fill="none" xmlns="http://www.w3.org/2000/svg">
<g id="solar:copy-bold">
<rect x="0.526316" y="0.526316" width="18.9474" height="18.9474" rx="9.47368" stroke="#172E84" stroke-width="1.05263"/>
<path id="Vector" d="M11.7058 4.73828H9.6563C8.72788 4.73828 7.99209 4.73828 7.41683 4.81618C6.8242 4.89618 6.34472 5.0646 5.96683 5.44407C5.58841 5.82354 5.42051 6.30512 5.34104 6.89986C5.26367 7.47776 5.26367 8.21618 5.26367 9.14828V12.2209C5.26367 13.0146 5.74788 13.6946 6.43578 13.9799C6.40051 13.5009 6.40051 12.8299 6.40051 12.2709V9.63407C6.40051 8.95986 6.40051 8.37828 6.46262 7.91302C6.52946 7.41407 6.67999 6.93618 7.0663 6.54828C7.45262 6.16039 7.92894 6.00933 8.42578 5.94197C8.88894 5.87986 9.46788 5.87986 10.14 5.87986H11.7558C12.4274 5.87986 13.0053 5.87986 13.4689 5.94197C13.33 5.58738 13.0875 5.28288 12.773 5.06817C12.4585 4.85345 12.0866 4.73849 11.7058 4.73828Z" fill="#172E84"/>
<path id="Vector_2" d="M7.1582 9.68431C7.1582 8.24957 7.1582 7.5322 7.60241 7.08641C8.0461 6.64063 8.76031 6.64062 10.1898 6.64062H11.7056C13.1345 6.64062 13.8493 6.64063 14.2935 7.08641C14.7377 7.5322 14.7372 8.24957 14.7372 9.68431V12.2212C14.7372 13.6559 14.7372 14.3733 14.2935 14.819C13.8493 15.2648 13.1345 15.2648 11.7056 15.2648H10.1898C8.76083 15.2648 8.0461 15.2648 7.60241 14.819C7.1582 14.3733 7.1582 13.6559 7.1582 12.2212V9.68431Z" fill="#172E84"/>
</g>
</svg>
