<svg width="60" height="60" viewBox="0 0 60 60" fill="none" xmlns="http://www.w3.org/2000/svg">
<g id="majesticons:lock">
<g id="Group">
<path id="Vector" fill-rule="evenodd" clip-rule="evenodd" d="M7.5 30C7.5 28.0109 8.29018 26.1032 9.6967 24.6967C11.1032 23.2902 13.0109 22.5 15 22.5H45C46.9891 22.5 48.8968 23.2902 50.3033 24.6967C51.7098 26.1032 52.5 28.0109 52.5 30V47.5C52.5 49.4891 51.7098 51.3968 50.3033 52.8033C48.8968 54.2098 46.9891 55 45 55H15C13.0109 55 11.1032 54.2098 9.6967 52.8033C8.29018 51.3968 7.5 49.4891 7.5 47.5V30ZM32.5 35C32.5 34.337 32.2366 33.7011 31.7678 33.2322C31.2989 32.7634 30.663 32.5 30 32.5C29.337 32.5 28.7011 32.7634 28.2322 33.2322C27.7634 33.7011 27.5 34.337 27.5 35V42.5C27.5 43.163 27.7634 43.7989 28.2322 44.2678C28.7011 44.7366 29.337 45 30 45C30.663 45 31.2989 44.7366 31.7678 44.2678C32.2366 43.7989 32.5 43.163 32.5 42.5V35Z" fill="white"/>
<path id="Vector_2" d="M20 25V17.5C20 14.8478 21.0536 12.3043 22.9289 10.4289C24.8043 8.55357 27.3478 7.5 30 7.5C32.6522 7.5 35.1957 8.55357 37.0711 10.4289C38.9464 12.3043 40 14.8478 40 17.5V25" stroke="white" stroke-width="2" stroke-linecap="round" stroke-linejoin="round"/>
</g>
</g>
</svg>
