<svg width="46" height="46" viewBox="0 0 46 46" fill="none" xmlns="http://www.w3.org/2000/svg">
<rect width="46" height="46" rx="23" fill="white"/>
<path d="M36 34.6925L29.0167 27.7091C30.6948 25.6945 31.5316 23.1104 31.3531 20.4945C31.1745 17.8786 29.9943 15.4322 28.058 13.6643C26.1216 11.8964 23.5782 10.9431 20.9569 11.0026C18.3356 11.0622 15.8381 12.1301 13.9841 13.9841C12.1301 15.8381 11.0622 18.3356 11.0026 20.9569C10.9431 23.5782 11.8964 26.1216 13.6643 28.058C15.4322 29.9943 17.8786 31.1745 20.4945 31.3531C23.1104 31.5316 25.6945 30.6948 27.7091 29.0167L34.6925 36L36 34.6925ZM12.8825 21.2048C12.8825 19.5588 13.3706 17.9497 14.285 16.5812C15.1995 15.2126 16.4993 14.1459 18.02 13.516C19.5407 12.8861 21.214 12.7213 22.8284 13.0424C24.4428 13.3635 25.9256 14.1561 27.0895 15.32C28.2534 16.4839 29.0461 17.9668 29.3672 19.5812C29.6883 21.1955 29.5235 22.8689 28.8936 24.3896C28.2637 25.9103 27.197 27.2101 25.8284 28.1245C24.4598 29.039 22.8508 29.5271 21.2048 29.5271C18.9983 29.5246 16.8829 28.647 15.3227 27.0868C13.7625 25.5266 12.8849 23.4112 12.8825 21.2048Z" fill="black"/>
</svg>
