<svg width="90" height="120" viewBox="0 0 90 120" fill="none" xmlns="http://www.w3.org/2000/svg">
<rect width="90" height="120" rx="6" fill="#A7A7A7"/>
<path d="M19.112 52.952C19.752 52.952 20.216 53.416 20.216 54.04C20.216 54.664 19.752 55.128 19.112 55.128C18.488 55.128 18.024 54.664 18.024 54.04C18.024 53.416 18.488 52.952 19.112 52.952ZM19.944 66.344H18.296V57.176H19.944V66.344ZM22.5304 57.176H24.1784V58.472C24.5944 57.8 25.4104 56.952 26.9464 56.952C28.3064 56.952 29.3464 57.704 29.7944 58.872C30.3384 57.72 31.4904 56.952 33.0424 56.952C34.9944 56.952 36.4024 58.44 36.4024 60.76V66.328H34.7544V61.032C34.7544 59.384 33.9544 58.392 32.6584 58.392C31.2824 58.392 30.2904 59.736 30.2904 61.4V66.328H28.6424V61.096C28.6424 59.384 27.8264 58.392 26.5464 58.392C25.1864 58.392 24.1784 59.736 24.1784 61.384V66.328H22.5304V57.176ZM42.7971 66.552C40.2051 66.552 38.2691 64.488 38.2691 61.752C38.2691 59.016 40.2051 56.952 42.7971 56.952C44.4611 56.952 45.5811 57.752 46.0451 58.536V57.176H47.6931V66.328H46.0451V64.968C45.5811 65.752 44.4611 66.552 42.7971 66.552ZM42.9411 65.096C44.7971 65.096 46.0771 63.656 46.0771 61.752C46.0771 59.848 44.7971 58.408 42.9411 58.408C41.1011 58.408 39.8851 59.848 39.8851 61.752C39.8851 63.656 41.1011 65.096 42.9411 65.096ZM54.7604 70.44C52.1364 70.44 50.7444 68.92 50.4244 67.192H52.1044C52.2964 68.168 53.1124 69.016 54.7604 69.016C56.4244 69.016 57.5764 67.896 57.5764 66.104V64.84C57.1124 65.624 55.9924 66.424 54.3284 66.424C51.7364 66.424 49.8004 64.392 49.8004 61.704C49.8004 59 51.7364 56.952 54.3284 56.952C55.9924 56.952 57.1124 57.752 57.5764 58.536V57.176H59.2244V66.12C59.2244 68.648 57.3844 70.44 54.7604 70.44ZM54.4724 65C56.3284 65 57.6084 63.576 57.6084 61.704C57.6084 59.832 56.3284 58.408 54.4724 58.408C52.6324 58.408 51.4164 59.832 51.4164 61.704C51.4164 63.576 52.6324 65 54.4724 65ZM65.9236 66.552C63.2516 66.552 61.3316 64.504 61.3316 61.752C61.3316 59 63.2516 56.952 65.9236 56.952C68.5956 56.952 70.4996 59 70.4996 61.752C70.4996 61.96 70.4996 62.2 70.4676 62.424H62.9796C63.1556 63.992 64.2916 65.16 65.9236 65.16C67.1716 65.16 68.1476 64.584 68.4836 63.832H70.1636C69.6676 65.416 68.0196 66.552 65.9236 66.552ZM68.8836 61.08C68.6916 59.48 67.5716 58.344 65.9236 58.344C64.2756 58.344 63.1556 59.496 62.9796 61.08H68.8836Z" fill="black"/>
</svg>
