<svg width="40" height="41" viewBox="0 0 40 41" fill="none" xmlns="http://www.w3.org/2000/svg">
<g clip-path="url(#clip0_381_2053)">
<circle cx="20" cy="20.5" r="20" fill="#0077FF"/>
<path d="M18.6667 11.168H15.55C14.4208 11.168 13.4125 11.8296 13.0375 12.8162L8.12917 25.6846C8.04583 25.909 8 26.1489 8 26.3888C8 27.5534 9.02083 28.5013 10.275 28.5013H18.6667V26.0251C18.6667 25.3403 19.2625 24.787 20 24.787C20.7375 24.787 21.3333 25.3403 21.3333 26.0251V28.5013H29.725C30.9833 28.5013 32 27.5534 32 26.3888C32 26.1489 31.9542 25.909 31.8708 25.6846L26.9625 12.8162C26.5833 11.8296 25.5792 11.168 24.45 11.168H21.3333V13.6442C21.3333 14.329 20.7375 14.8823 20 14.8823C19.2625 14.8823 18.6667 14.329 18.6667 13.6442V11.168ZM21.3333 18.5965V21.0727C21.3333 21.7576 20.7375 22.3108 20 22.3108C19.2625 22.3108 18.6667 21.7576 18.6667 21.0727V18.5965C18.6667 17.9117 19.2625 17.3584 20 17.3584C20.7375 17.3584 21.3333 17.9117 21.3333 18.5965Z" fill="white"/>
</g>
<defs>
<clipPath id="clip0_381_2053">
<rect width="40" height="40" fill="white" transform="translate(0 0.5)"/>
</clipPath>
</defs>
</svg>
