<svg width="40" height="41" viewBox="0 0 40 41" fill="none" xmlns="http://www.w3.org/2000/svg">
<g clip-path="url(#clip0_381_2067)">
<circle cx="20" cy="20.5" r="20" fill="#0077FF"/>
<path d="M19.4979 8.50866C14.0815 8.28298 9.56784 12.4957 9.34216 17.9122C9.11647 23.3286 13.3292 27.8423 18.7457 28.068V24.1561L14.8338 20.2442C14.5329 19.9433 14.5329 19.492 14.8338 19.191C15.1347 18.8901 15.5861 18.8901 15.887 19.191L18.7457 22.0497V17.3856L16.7145 15.3544C16.4136 15.0535 16.4136 14.6021 16.7145 14.3012C17.0154 14.0003 17.4668 14.0003 17.7677 14.3012L20.2502 16.7837V19.0406L22.7328 16.5581C23.0337 16.2572 23.485 16.2572 23.7859 16.5581C24.0869 16.859 24.0869 17.3103 23.7859 17.6113L20.2502 21.147V28.068C25.6666 27.8423 29.8794 23.3286 29.6537 17.9122C29.4281 12.4957 24.9144 8.28298 19.4979 8.50866Z" fill="white"/>
<path d="M19.4984 28.0664H18.7461V31.8278C18.7461 32.2792 19.047 32.5801 19.4984 32.5801C19.9497 32.5801 20.2507 32.2792 20.2507 31.8278V28.0664H19.4984Z" fill="white"/>
</g>
<defs>
<clipPath id="clip0_381_2067">
<rect width="40" height="40" fill="white" transform="translate(0 0.5)"/>
</clipPath>
</defs>
</svg>
