<svg width="40" height="40" viewBox="0 0 40 40" fill="none" xmlns="http://www.w3.org/2000/svg">
<path d="M33.8337 16.999C33.8359 12.7144 32.4526 9.25355 29.6525 6.67271C26.8815 4.11861 23.6572 2.83203 20.0003 2.83203C16.3434 2.83203 13.1197 4.11862 10.3497 6.67278C7.55087 9.25356 6.16699 12.7143 6.16699 16.9987L6.16699 16.9989C6.16816 19.9113 7.32493 23.0294 9.5662 26.3422C11.8084 29.6565 15.1847 33.2241 19.6763 37.0462L20.0002 37.3218L20.3243 37.0462C24.817 33.2253 28.1939 29.6576 30.4362 26.3421C32.6773 23.0283 33.8336 19.9102 33.8337 16.999ZM33.8337 16.999L33.3337 16.9987H33.8337C33.8337 16.9988 33.8337 16.9989 33.8337 16.999Z" fill="#0077FF" stroke="#EBEBEB"/>
<path d="M17.5001 16.75C17.5001 15.3576 18.1147 14.0223 19.2086 13.0377C20.3026 12.0531 21.7863 11.5 23.3334 11.5H24.5834C24.8044 11.5 25.0164 11.421 25.1727 11.2803C25.329 11.1397 25.4167 10.9489 25.4167 10.75C25.4167 10.5511 25.329 10.3603 25.1727 10.2197C25.0164 10.079 24.8044 10 24.5834 10H23.3334C21.3443 10 19.4366 10.7112 18.0301 11.977C16.6236 13.2429 15.8334 14.9598 15.8334 16.75C15.8334 16.9489 15.7456 17.1397 15.5893 17.2803C15.4331 17.421 15.2211 17.5 15.0001 17.5H12.5001C12.2791 17.5 12.0671 17.579 11.9108 17.7197C11.7545 17.8603 11.6667 18.0511 11.6667 18.25C11.6667 18.4489 11.7545 18.6397 11.9108 18.7803C12.0671 18.921 12.2791 19 12.5001 19H15.0001C15.6631 19 16.299 18.7629 16.7678 18.341C17.2367 17.919 17.5001 17.3467 17.5001 16.75ZM24.1667 14.5C23.2827 14.5 22.4348 14.8161 21.8097 15.3787C21.1846 15.9413 20.8334 16.7044 20.8334 17.5C20.8334 18.6935 20.3066 19.8381 19.3689 20.682C18.4313 21.5259 17.1595 22 15.8334 22H12.5001C12.2791 22 12.0671 21.921 11.9108 21.7803C11.7545 21.6397 11.6667 21.4489 11.6667 21.25C11.6667 21.0511 11.7545 20.8603 11.9108 20.7197C12.0671 20.579 12.2791 20.5 12.5001 20.5H15.8334C16.7175 20.5 17.5653 20.1839 18.1904 19.6213C18.8156 19.0587 19.1667 18.2956 19.1667 17.5C19.1667 16.3065 19.6935 15.1619 20.6312 14.318C21.5689 13.4741 22.8407 13 24.1667 13H27.5001C27.7211 13 27.9331 13.079 28.0893 13.2197C28.2456 13.3603 28.3334 13.5511 28.3334 13.75C28.3334 13.9489 28.2456 14.1397 28.0893 14.2803C27.9331 14.421 27.7211 14.5 27.5001 14.5H24.1667ZM25.0001 17.5C24.7791 17.5 24.5671 17.579 24.4108 17.7197C24.2545 17.8603 24.1667 18.0511 24.1667 18.25C24.1667 20.0402 23.3766 21.7571 21.97 23.023C20.5635 24.2888 18.6559 25 16.6667 25H15.0001C14.7791 25 14.5671 24.921 14.4108 24.7803C14.2545 24.6397 14.1667 24.4489 14.1667 24.25C14.1667 24.0511 14.2545 23.8603 14.4108 23.7197C14.5671 23.579 14.7791 23.5 15.0001 23.5H16.6667C18.2138 23.5 19.6976 22.9469 20.7915 21.9623C21.8855 20.9777 22.5001 19.6424 22.5001 18.25C22.5001 17.6533 22.7635 17.081 23.2323 16.659C23.7012 16.2371 24.337 16 25.0001 16H27.5001C27.7211 16 27.9331 16.079 28.0893 16.2197C28.2456 16.3603 28.3334 16.5511 28.3334 16.75C28.3334 16.9489 28.2456 17.1397 28.0893 17.2803C27.9331 17.421 27.7211 17.5 27.5001 17.5H25.0001Z" fill="white"/>
</svg>
