<svg width="40" height="40" viewBox="0 0 40 40" fill="none" xmlns="http://www.w3.org/2000/svg">
<path d="M33.8334 16.999C33.8357 12.7144 32.4523 9.25355 29.6523 6.67271C26.8812 4.11861 23.657 2.83203 20.0001 2.83203C16.3432 2.83203 13.1194 4.11862 10.3495 6.67278C7.55063 9.25356 6.16675 12.7143 6.16675 16.9987L6.16675 16.9989C6.16791 19.9113 7.32468 23.0294 9.56595 26.3422C11.8082 29.6565 15.1845 33.2241 19.6761 37.0462L20 37.3218L20.324 37.0462C24.8167 33.2253 28.1936 29.6576 30.4359 26.3421C32.6771 23.0283 33.8333 19.9102 33.8334 16.999ZM33.8334 16.999L33.3334 16.9987H33.8334C33.8334 16.9988 33.8334 16.9989 33.8334 16.999Z" fill="#0077FF" stroke="#EBEBEB"/>
<path d="M26.6666 14.9982V21.6648C26.6666 21.8122 26.6081 21.9535 26.5039 22.0577C26.3997 22.1619 26.2584 22.2204 26.111 22.2204H22.2221C22.0748 22.2204 21.9335 22.1619 21.8293 22.0577C21.7251 21.9535 21.6666 21.8122 21.6666 21.6648V18.0537C21.6666 17.9801 21.6373 17.9094 21.5852 17.8573C21.5331 17.8052 21.4625 17.776 21.3888 17.776H18.611C18.5374 17.776 18.4667 17.8052 18.4146 17.8573C18.3625 17.9094 18.3333 17.9801 18.3333 18.0537V21.6648C18.3333 21.8122 18.2747 21.9535 18.1705 22.0577C18.0663 22.1619 17.925 22.2204 17.7777 22.2204H13.8888C13.7415 22.2204 13.6002 22.1619 13.496 22.0577C13.3918 21.9535 13.3333 21.8122 13.3333 21.6648V14.9982C13.3334 14.7035 13.4505 14.421 13.6589 14.2128L19.2145 8.65721C19.4229 8.44899 19.7054 8.33203 19.9999 8.33203C20.2945 8.33203 20.577 8.44899 20.7853 8.65721L26.3409 14.2128C26.5493 14.421 26.6664 14.7035 26.6666 14.9982Z" fill="white"/>
</svg>
