<svg width="40" height="40" viewBox="0 0 40 40" fill="none" xmlns="http://www.w3.org/2000/svg">
<path d="M33.8337 16.999C33.8359 12.7144 32.4526 9.25355 29.6525 6.67271C26.8815 4.11861 23.6572 2.83203 20.0003 2.83203C16.3434 2.83203 13.1197 4.11862 10.3497 6.67278C7.55087 9.25356 6.16699 12.7143 6.16699 16.9987L6.16699 16.9989C6.16816 19.9113 7.32493 23.0294 9.5662 26.3422C11.8084 29.6565 15.1847 33.2241 19.6763 37.0462L20.0002 37.3218L20.3243 37.0462C24.817 33.2253 28.1939 29.6576 30.4362 26.3421C32.6773 23.0283 33.8336 19.9102 33.8337 16.999ZM33.8337 16.999L33.3337 16.9987H33.8337C33.8337 16.9988 33.8337 16.9989 33.8337 16.999Z" fill="#0077FF" stroke="#EBEBEB"/>
<path d="M20.0007 9.33771C16.4481 9.18969 13.4877 11.9528 13.3397 15.5053C13.1916 19.0578 15.9547 22.0183 19.5072 22.1663V19.6006L16.9415 17.0349C16.7442 16.8375 16.7442 16.5414 16.9415 16.3441C17.1389 16.1467 17.4349 16.1467 17.6323 16.3441L19.5072 18.219V15.1599L18.175 13.8277C17.9777 13.6303 17.9777 13.3343 18.175 13.1369C18.3724 12.9396 18.6685 12.9396 18.8658 13.1369L20.4941 14.7652V16.2454L22.1223 14.6172C22.3197 14.4198 22.6157 14.4198 22.8131 14.6172C23.0104 14.8145 23.0104 15.1106 22.8131 15.3079L20.4941 17.6269V22.1663C24.0466 22.0183 26.8097 19.0578 26.6616 15.5053C26.5136 11.9528 23.5532 9.18969 20.0007 9.33771Z" fill="white"/>
<path d="M20.0005 22.168H19.5071V24.635C19.5071 24.931 19.7044 25.1284 20.0005 25.1284C20.2965 25.1284 20.4939 24.931 20.4939 24.635V22.168H20.0005Z" fill="white"/>
</svg>
