<svg width="40" height="41" viewBox="0 0 40 41" fill="none" xmlns="http://www.w3.org/2000/svg">
<g clip-path="url(#clip0_381_2046)">
<circle cx="20" cy="20.5" r="20" fill="#0077FF"/>
<path d="M30.6668 18.0475V28.9279C30.6668 29.1684 30.5732 29.399 30.4065 29.5691C30.2398 29.7391 30.0137 29.8346 29.7779 29.8346H23.5557C23.32 29.8346 23.0939 29.7391 22.9272 29.5691C22.7605 29.399 22.6668 29.1684 22.6668 28.9279V23.0344C22.6668 22.9141 22.62 22.7988 22.5367 22.7138C22.4533 22.6288 22.3403 22.581 22.2224 22.581H17.7779C17.6601 22.581 17.547 22.6288 17.4637 22.7138C17.3803 22.7988 17.3335 22.9141 17.3335 23.0344V28.9279C17.3335 29.1684 17.2398 29.399 17.0731 29.5691C16.9064 29.7391 16.6804 29.8346 16.4446 29.8346H10.2224C9.98664 29.8346 9.76054 29.7391 9.59385 29.5691C9.42715 29.399 9.3335 29.1684 9.3335 28.9279V18.0475C9.33371 17.5667 9.52116 17.1056 9.85461 16.7657L18.7435 7.69868C19.0769 7.35886 19.5289 7.16797 20.0002 7.16797C20.4715 7.16797 20.9235 7.35886 21.2568 7.69868L30.1457 16.7657C30.4792 17.1056 30.6666 17.5667 30.6668 18.0475Z" fill="white"/>
</g>
<defs>
<clipPath id="clip0_381_2046">
<rect width="40" height="40" fill="white" transform="translate(0 0.5)"/>
</clipPath>
</defs>
</svg>
