<svg width="40" height="40" viewBox="0 0 40 40" fill="none" xmlns="http://www.w3.org/2000/svg">
<path d="M33.8337 16.999C33.8359 12.7144 32.4526 9.25355 29.6525 6.67271C26.8815 4.11861 23.6572 2.83203 20.0003 2.83203C16.3434 2.83203 13.1197 4.11862 10.3497 6.67278C7.55087 9.25356 6.16699 12.7143 6.16699 16.9987L6.16699 16.9989C6.16816 19.9113 7.32493 23.0294 9.5662 26.3422C11.8084 29.6565 15.1847 33.2241 19.6763 37.0462L20.0002 37.3218L20.3243 37.0462C24.817 33.2253 28.1939 29.6576 30.4362 26.3421C32.6773 23.0283 33.8336 19.9102 33.8337 16.999ZM33.8337 16.999L33.3337 16.9987H33.8337C33.8337 16.9988 33.8337 16.9989 33.8337 16.999Z" fill="#0077FF" stroke="#EBEBEB"/>
<path d="M19.0742 10H16.9098C16.1257 10 15.4254 10.4594 15.165 11.1446L11.7564 20.081C11.6986 20.2369 11.6667 20.4034 11.6667 20.57C11.6667 21.3788 12.3757 22.037 13.2466 22.037H19.0742V20.3175C19.0742 19.8419 19.4879 19.4577 20.0001 19.4577C20.5122 19.4577 20.926 19.8419 20.926 20.3175V22.037H26.7536C27.6274 22.037 28.3334 21.3788 28.3334 20.57C28.3334 20.4034 28.3016 20.2369 28.2437 20.081L24.8352 11.1446C24.5718 10.4594 23.8745 10 23.0904 10H20.926V11.7196C20.926 12.1951 20.5122 12.5794 20.0001 12.5794C19.4879 12.5794 19.0742 12.1951 19.0742 11.7196V10ZM20.926 15.1587V16.8783C20.926 17.3539 20.5122 17.7381 20.0001 17.7381C19.4879 17.7381 19.0742 17.3539 19.0742 16.8783V15.1587C19.0742 14.6832 19.4879 14.2989 20.0001 14.2989C20.5122 14.2989 20.926 14.6832 20.926 15.1587Z" fill="white"/>
</svg>
