<svg width="40" height="41" viewBox="0 0 40 41" fill="none" xmlns="http://www.w3.org/2000/svg">
<g clip-path="url(#clip0_381_2084)">
<circle cx="20" cy="20.5" r="20" fill="#0077FF"/>
<path d="M16.4 18.7C16.4 16.5959 17.285 14.5781 18.8603 13.0903C20.4356 11.6025 22.5722 10.7667 24.8 10.7667H26.6C26.9183 10.7667 27.2235 10.6473 27.4485 10.4347C27.6736 10.2222 27.8 9.93391 27.8 9.63333C27.8 9.33275 27.6736 9.04449 27.4485 8.83195C27.2235 8.6194 26.9183 8.5 26.6 8.5H24.8C21.9357 8.5 19.1886 9.57464 17.1632 11.4875C15.1379 13.4004 14 15.9948 14 18.7C14 19.0006 13.8736 19.2888 13.6485 19.5014C13.4235 19.7139 13.1183 19.8333 12.8 19.8333H9.2C8.88174 19.8333 8.57652 19.9527 8.35147 20.1653C8.12643 20.3778 8 20.6661 8 20.9667C8 21.2672 8.12643 21.5555 8.35147 21.7681C8.57652 21.9806 8.88174 22.1 9.2 22.1H12.8C13.7548 22.1 14.6705 21.7418 15.3456 21.1042C16.0207 20.4665 16.4 19.6017 16.4 18.7ZM26 15.3C24.727 15.3 23.5061 15.7776 22.6059 16.6278C21.7057 17.4779 21.2 18.631 21.2 19.8333C21.2 21.6368 20.4414 23.3664 19.0912 24.6417C17.7409 25.9169 15.9096 26.6333 14 26.6333H9.2C8.88174 26.6333 8.57652 26.5139 8.35147 26.3014C8.12643 26.0888 8 25.8006 8 25.5C8 25.1994 8.12643 24.9112 8.35147 24.6986C8.57652 24.4861 8.88174 24.3667 9.2 24.3667H14C15.273 24.3667 16.4939 23.889 17.3941 23.0389C18.2943 22.1887 18.8 21.0356 18.8 19.8333C18.8 18.0299 19.5586 16.3003 20.9088 15.025C22.2591 13.7498 24.0904 13.0333 26 13.0333H30.8C31.1183 13.0333 31.4235 13.1527 31.6485 13.3653C31.8736 13.5778 32 13.8661 32 14.1667C32 14.4672 31.8736 14.7555 31.6485 14.9681C31.4235 15.1806 31.1183 15.3 30.8 15.3H26ZM27.2 19.8333C26.8817 19.8333 26.5765 19.9527 26.3515 20.1653C26.1264 20.3778 26 20.6661 26 20.9667C26 23.6719 24.8621 26.2663 22.8368 28.1792C20.8114 30.092 18.0643 31.1667 15.2 31.1667H12.8C12.4817 31.1667 12.1765 31.0473 11.9515 30.8347C11.7264 30.6222 11.6 30.3339 11.6 30.0333C11.6 29.7328 11.7264 29.4445 11.9515 29.2319C12.1765 29.0194 12.4817 28.9 12.8 28.9H15.2C17.4278 28.9 19.5644 28.0642 21.1397 26.5764C22.715 25.0886 23.6 23.0707 23.6 20.9667C23.6 20.0649 23.9793 19.2001 24.6544 18.5625C25.3295 17.9249 26.2452 17.5667 27.2 17.5667H30.8C31.1183 17.5667 31.4235 17.6861 31.6485 17.8986C31.8736 18.1112 32 18.3994 32 18.7C32 19.0006 31.8736 19.2888 31.6485 19.5014C31.4235 19.7139 31.1183 19.8333 30.8 19.8333H27.2Z" fill="white"/>
</g>
<defs>
<clipPath id="clip0_381_2084">
<rect width="40" height="40" fill="white" transform="translate(0 0.5)"/>
</clipPath>
</defs>
</svg>
