<svg width="40" height="40" viewBox="0 0 40 40" fill="none" xmlns="http://www.w3.org/2000/svg">
<rect x="11.2695" y="7.93359" width="18.4095" height="18.4095" rx="9.20475" fill="white"/>
<path d="M20.1201 37.0189L20.4736 37.3725L20.8272 37.0189L30.5903 27.2558C32.5912 25.2549 33.9538 22.7056 34.5059 19.9303C35.0579 17.155 34.7745 14.2783 33.6917 11.664C32.6088 9.04974 30.775 6.81528 28.4222 5.2432C26.0694 3.67112 23.3033 2.83203 20.4736 2.83203C17.644 2.83203 14.8778 3.67112 12.525 5.2432C10.1722 6.81528 8.33847 9.04974 7.25559 11.664C6.17271 14.2783 5.88938 17.155 6.4414 19.9303C6.99343 22.7056 8.35604 25.2549 10.3569 27.2557L20.1201 37.0189Z" fill="#FF0000" stroke="#EBEBEB"/>
<circle cx="20.5" cy="17.5" r="6.5" fill="white"/>
<path d="M21.0249 20.424H19.9689V15.32H19.3689V14.344H21.0249V20.424Z" fill="black"/>
</svg>
