<svg width="40" height="40" viewBox="0 0 40 40" fill="none" xmlns="http://www.w3.org/2000/svg">
<rect x="11.2695" y="7.93359" width="18.4095" height="18.4095" rx="9.20475" fill="white"/>
<path d="M20.1201 37.0189L20.4736 37.3725L20.8272 37.0189L30.5903 27.2558C32.5912 25.2549 33.9538 22.7056 34.5059 19.9303C35.0579 17.155 34.7745 14.2783 33.6917 11.664C32.6088 9.04974 30.775 6.81528 28.4222 5.2432C26.0694 3.67112 23.3033 2.83203 20.4736 2.83203C17.644 2.83203 14.8778 3.67112 12.525 5.2432C10.1722 6.81528 8.33847 9.04974 7.25559 11.664C6.17271 14.2783 5.88938 17.155 6.4414 19.9303C6.99343 22.7056 8.35604 25.2549 10.3569 27.2557L20.1201 37.0189Z" fill="#FF0000" stroke="#EBEBEB"/>
<circle cx="20.5" cy="17.5" r="6.5" fill="white"/>
<path d="M22.2656 18.216V19.08C22.2656 19.976 21.6656 20.496 20.4976 20.496C19.3296 20.496 18.7296 19.976 18.7296 19.08V18.608H19.7936V18.968C19.7936 19.376 20.0496 19.528 20.4976 19.528C20.9456 19.528 21.2016 19.376 21.2016 18.968V18.288C21.2016 17.912 20.9856 17.728 20.5696 17.728H19.8976V16.744H20.5376C20.8896 16.744 21.0896 16.56 21.0896 16.224V15.768C21.0896 15.432 20.8736 15.24 20.4736 15.24C20.0816 15.24 19.8656 15.432 19.8656 15.768V15.992H18.8096V15.616C18.8096 14.72 19.4976 14.264 20.4736 14.264C21.4496 14.264 22.1536 14.72 22.1536 15.616V16.256C22.1536 16.712 21.9216 17.04 21.5536 17.208C22.0336 17.344 22.2656 17.728 22.2656 18.216Z" fill="black"/>
</svg>
