<svg width="28" height="28" viewBox="0 0 28 28" fill="none" xmlns="http://www.w3.org/2000/svg">
<g id="octicon:x-16">
<path id="Vector" d="M6.38913 6.42373C6.63861 6.17508 6.9768 6.03542 7.3294 6.03542C7.682 6.03542 8.02019 6.17508 8.26967 6.42373L13.9823 12.1243L19.6948 6.42373C19.8575 6.24895 20.0643 6.12118 20.2936 6.05388C20.5229 5.98658 20.7662 5.98225 20.9977 6.04133C21.2293 6.10041 21.4406 6.22073 21.6094 6.3896C21.7782 6.55847 21.8982 6.76964 21.9568 7.00087C22.0159 7.23169 22.0117 7.47413 21.9446 7.70276C21.8775 7.93139 21.7499 8.13779 21.5754 8.30032L15.8628 14.0009L21.5754 19.7015C21.7505 19.8638 21.8786 20.0702 21.946 20.299C22.0134 20.5278 22.0178 20.7706 21.9586 21.0016C21.8994 21.2327 21.7788 21.4436 21.6096 21.612C21.4404 21.7804 21.2287 21.9002 20.997 21.9587C20.7657 22.0177 20.5228 22.0134 20.2937 21.9465C20.0645 21.8795 19.8577 21.7522 19.6948 21.5781L13.9823 15.8775L8.26967 21.5781C8.01749 21.8129 7.68378 21.9408 7.33891 21.9349C6.99405 21.9289 6.66497 21.7896 6.42106 21.5462C6.17717 21.3028 6.03753 20.9744 6.03157 20.6303C6.02561 20.2861 6.15381 19.9531 6.38913 19.7015L12.1017 14.0009L6.38913 8.30032C6.13996 8.05136 6 7.71388 6 7.36202C6 7.01016 6.13996 6.67269 6.38913 6.42373Z" fill="black"/>
</g>
</svg>
