<svg width="16" height="16" viewBox="0 0 16 16" fill="none" xmlns="http://www.w3.org/2000/svg">
<rect x="1" y="1" width="14" height="14" rx="7" fill="white"/>
<rect x="1" y="1" width="14" height="14" rx="7" stroke="black" stroke-width="2"/>
<path d="M6.22866 10.964V9.34C6.22866 8.788 6.36466 8.452 6.76466 8.14L8.16466 7.076C8.32466 6.932 8.39666 6.756 8.39666 6.532C8.39666 6.196 8.26066 6.004 7.99666 6.004C7.73266 6.004 7.59666 6.22 7.59666 6.604H6.22866C6.22866 5.316 6.94866 4.724 7.99666 4.724C9.05266 4.724 9.76466 5.316 9.76466 6.532C9.76466 7.244 9.56466 7.82 9.07666 8.172L7.78066 9.116C7.66866 9.204 7.59666 9.324 7.59666 9.452V9.692H9.76466V10.964H6.22866Z" fill="black"/>
</svg>
