<svg width="16" height="16" viewBox="0 0 16 16" fill="none" xmlns="http://www.w3.org/2000/svg">
<rect x="1" y="1" width="14" height="14" rx="7" fill="white"/>
<rect x="1" y="1" width="14" height="14" rx="7" stroke="black" stroke-width="2"/>
<path d="M9.83759 8.676V9.612C9.83759 10.508 9.23759 11.036 7.99759 11.036C6.75759 11.036 6.15759 10.508 6.15759 9.612V9.068H7.52559V9.428C7.52559 9.692 7.69359 9.764 7.99759 9.764C8.30159 9.764 8.46959 9.692 8.46959 9.428V8.788C8.46959 8.524 8.33359 8.412 8.06959 8.412H7.31759V7.132H8.06959C8.30159 7.132 8.39759 7.06 8.39759 6.836V6.348C8.39759 6.116 8.26159 6.004 7.99759 6.004C7.73359 6.004 7.59759 6.116 7.59759 6.348V6.532H6.22959V6.084C6.22959 5.18 6.94159 4.724 7.99759 4.724C9.05359 4.724 9.76559 5.18 9.76559 6.084V6.868C9.76559 7.284 9.53359 7.58 9.23759 7.74C9.64559 7.876 9.83759 8.26 9.83759 8.676Z" fill="black"/>
</svg>
