<svg width="20" height="20" viewBox="0 0 20 20" fill="none" xmlns="http://www.w3.org/2000/svg">
<g clip-path="url(#clip0_13_1289)">
<path d="M17.7779 16.1111H2.2223C2.07496 16.1111 1.93365 16.0526 1.82947 15.9484C1.72528 15.8442 1.66675 15.7029 1.66675 15.5556C1.66675 15.4082 1.72528 15.2669 1.82947 15.1627C1.93365 15.0585 2.07496 15 2.2223 15H17.7779C17.9252 15 18.0665 15.0585 18.1707 15.1627C18.2749 15.2669 18.3334 15.4082 18.3334 15.5556C18.3334 15.7029 18.2749 15.8442 18.1707 15.9484C18.0665 16.0526 17.9252 16.1111 17.7779 16.1111Z" fill="black"/>
<path d="M17.7779 10.5556H2.2223C2.07496 10.5556 1.93365 10.497 1.82947 10.3929C1.72528 10.2887 1.66675 10.1474 1.66675 10C1.66675 9.85267 1.72528 9.71136 1.82947 9.60718C1.93365 9.50299 2.07496 9.44446 2.2223 9.44446H17.7779C17.9252 9.44446 18.0665 9.50299 18.1707 9.60718C18.2749 9.71136 18.3334 9.85267 18.3334 10C18.3334 10.1474 18.2749 10.2887 18.1707 10.3929C18.0665 10.497 17.9252 10.5556 17.7779 10.5556Z" fill="black"/>
<path d="M17.7779 5.00003H2.2223C2.07496 5.00003 1.93365 4.9415 1.82947 4.83731C1.72528 4.73312 1.66675 4.59181 1.66675 4.44447C1.66675 4.29713 1.72528 4.15582 1.82947 4.05163C1.93365 3.94745 2.07496 3.88892 2.2223 3.88892H17.7779C17.9252 3.88892 18.0665 3.94745 18.1707 4.05163C18.2749 4.15582 18.3334 4.29713 18.3334 4.44447C18.3334 4.59181 18.2749 4.73312 18.1707 4.83731C18.0665 4.9415 17.9252 5.00003 17.7779 5.00003Z" fill="black"/>
</g>
<defs>
<clipPath id="clip0_13_1289">
<rect width="20" height="20" fill="white"/>
</clipPath>
</defs>
</svg>
